STARTFONT 2.1
FONT -HP-Gothic-Bold-R-Normal--24-173-100-100-C-240-JISX0208.1990-0
SIZE 17 100 100
FONTBOUNDINGBOX 24 24 0 -2

STARTPROPERTIES 23
FONTNAME_REGISTRY ""
FOUNDRY "HP"
FAMILY_NAME "Gothic"
WEIGHT_NAME "Bold"
SLANT "R"
SETWIDTH_NAME "Normal"
ADD_STYLE_NAME ""
PIXEL_SIZE 24
POINT_SIZE 173
RESOLUTION_X 100
RESOLUTION_Y 100
SPACING "C"
AVERAGE_WIDTH 240
CHARSET_REGISTRY "JISX0208.1990"
CHARSET_ENCODING "0"
COPYRIGHT "Copyright (c) 1994 Hewlett-Packard Company. Copyright 1994 by Bridge Inc."
_HP_ASXVERSION "@(#) ASX 3.00 $Revision: 13.9 $ gotB24k"
WEIGHT 10
X_HEIGHT 22
QUAD_WIDTH 24
DEFAULT_CHAR 8751
FONT_DESCENT 2
FONT_ASCENT 22
ENDPROPERTIES

CHARS 6963

STARTCHAR jisx0208_2121
ENCODING 8481
SWIDTH 960 0
DWIDTH 24 0
BBX 24 24 0 -2
BITMAP
000000
000000
000000
000000
000000
000000
000000
000000
000000
000000
000000
000000
000000
000000
000000
000000
000000
000000
000000
000000
000000
000000
000000
000000
ENDCHAR

STARTCHAR jisx0208_2122
ENCODING 8482
SWIDTH 960 0
DWIDTH 24 0
BBX 24 24 0 -2
BITMAP
000000
000000
000000
000000
000000
000000
000000
000000
000000
000000
000000
000000
000000
000000
000000
000000
180000
3C0000
3E0000
1F0000
0F8000
078000
030000
000000
ENDCHAR

STARTCHAR jisx0208_2123
ENCODING 8483
SWIDTH 960 0
DWIDTH 24 0
BBX 24 24 0 -2
BITMAP
000000
000000
000000
000000
000000
000000
000000
000000
000000
000000
000000
000000
000000
000000
000000
0F0000
1F8000
3FC000
39C000
39C000
3FC000
1F8000
0F0000
000000
ENDCHAR

STARTCHAR jisx0208_2124
ENCODING 8484
SWIDTH 960 0
DWIDTH 24 0
BBX 24 24 0 -2
BITMAP
000000
000000
000000
000000
000000
000000
000000
000000
000000
000000
000000
000000
000000
000000
000000
000000
000000
3C0000
3C0000
3C0000
3C0000
1C0000
380000
000000
ENDCHAR

STARTCHAR jisx0208_2125
ENCODING 8485
SWIDTH 960 0
DWIDTH 24 0
BBX 24 24 0 -2
BITMAP
000000
000000
000000
000000
000000
000000
000000
000000
000000
000000
000000
000000
000000
000000
000000
000000
000000
3C0000
3C0000
3C0000
3C0000
000000
000000
000000
ENDCHAR

STARTCHAR jisx0208_2126
ENCODING 8486
SWIDTH 960 0
DWIDTH 24 0
BBX 24 24 0 -2
BITMAP
000000
000000
000000
000000
000000
000000
000000
000000
000000
003E00
003E00
003E00
003E00
003E00
000000
000000
000000
000000
000000
000000
000000
000000
000000
000000
ENDCHAR

STARTCHAR jisx0208_2127
ENCODING 8487
SWIDTH 960 0
DWIDTH 24 0
BBX 24 24 0 -2
BITMAP
000000
000000
000000
000000
003C00
003C00
003C00
003C00
000000
000000
000000
000000
000000
000000
000000
003C00
003C00
003C00
003C00
000000
000000
000000
000000
000000
ENDCHAR

STARTCHAR jisx0208_2128
ENCODING 8488
SWIDTH 960 0
DWIDTH 24 0
BBX 24 24 0 -2
BITMAP
000000
000000
000000
000000
003C00
003C00
003C00
003C00
000000
000000
000000
000000
000000
000000
000000
003C00
003C00
003C00
003C00
001C00
003800
000000
000000
000000
ENDCHAR

STARTCHAR jisx0208_2129
ENCODING 8489
SWIDTH 960 0
DWIDTH 24 0
BBX 24 24 0 -2
BITMAP
000000
000000
00FE00
01FF00
03FF80
03C780
038380
038780
038F80
001F00
003E00
003C00
003800
003800
003800
003800
000000
003C00
003C00
003C00
003C00
000000
000000
000000
ENDCHAR

STARTCHAR jisx0208_212A
ENCODING 8490
SWIDTH 960 0
DWIDTH 24 0
BBX 24 24 0 -2
BITMAP
000000
000000
003C00
003C00
003C00
003C00
003C00
003C00
003C00
003C00
003C00
003C00
001800
001800
001800
001800
000000
003C00
003C00
003C00
003C00
000000
000000
000000
ENDCHAR

STARTCHAR jisx0208_212B
ENCODING 8491
SWIDTH 960 0
DWIDTH 24 0
BBX 24 24 0 -2
BITMAP
0C0000
0E0000
3E0000
360000
380000
180000
000000
000000
000000
000000
000000
000000
000000
000000
000000
000000
000000
000000
000000
000000
000000
000000
000000
000000
ENDCHAR

STARTCHAR jisx0208_212C
ENCODING 8492
SWIDTH 960 0
DWIDTH 24 0
BBX 24 24 0 -2
BITMAP
000000
3C0000
7E0000
6E0000
660000
7E0000
3C0000
000000
000000
000000
000000
000000
000000
000000
000000
000000
000000
000000
000000
000000
000000
000000
000000
000000
ENDCHAR

STARTCHAR jisx0208_212D
ENCODING 8493
SWIDTH 960 0
DWIDTH 24 0
BBX 24 24 0 -2
BITMAP
000F00
007F80
00FF80
00F800
000000
000000
000000
000000
000000
000000
000000
000000
000000
000000
000000
000000
000000
000000
000000
000000
000000
000000
000000
000000
ENDCHAR

STARTCHAR jisx0208_212E
ENCODING 8494
SWIDTH 960 0
DWIDTH 24 0
BBX 24 24 0 -2
BITMAP
007800
00FF00
00FF80
000F80
000000
000000
000000
000000
000000
000000
000000
000000
000000
000000
000000
000000
000000
000000
000000
000000
000000
000000
000000
000000
ENDCHAR

STARTCHAR jisx0208_212F
ENCODING 8495
SWIDTH 960 0
DWIDTH 24 0
BBX 24 24 0 -2
BITMAP
00E380
00E380
00E380
000000
000000
000000
000000
000000
000000
000000
000000
000000
000000
000000
000000
000000
000000
000000
000000
000000
000000
000000
000000
000000
ENDCHAR

STARTCHAR jisx0208_2130
ENCODING 8496
SWIDTH 960 0
DWIDTH 24 0
BBX 24 24 0 -2
BITMAP
001C00
007F00
00FF80
00F780
000000
000000
000000
000000
000000
000000
000000
000000
000000
000000
000000
000000
000000
000000
000000
000000
000000
000000
000000
000000
ENDCHAR

STARTCHAR jisx0208_2131
ENCODING 8497
SWIDTH 960 0
DWIDTH 24 0
BBX 24 24 0 -2
BITMAP
7FFFFF
7FFFFF
7FFFFF
000000
000000
000000
000000
000000
000000
000000
000000
000000
000000
000000
000000
000000
000000
000000
000000
000000
000000
000000
000000
000000
ENDCHAR

STARTCHAR jisx0208_2132
ENCODING 8498
SWIDTH 960 0
DWIDTH 24 0
BBX 24 24 0 -2
BITMAP
000000
000000
000000
000000
000000
000000
000000
000000
000000
000000
000000
000000
000000
000000
000000
000000
000000
000000
000000
000000
7FFFFF
7FFFFF
7FFFFF
000000
ENDCHAR

STARTCHAR jisx0208_2133
ENCODING 8499
SWIDTH 960 0
DWIDTH 24 0
BBX 24 24 0 -2
BITMAP
000000
000000
000000
000000
000000
018000
03E000
03F000
01F800
007C00
003E00
001F00
000F80
000780
0003C0
0003C0
000180
000000
000000
000000
000000
000000
000000
000000
ENDCHAR

STARTCHAR jisx0208_2134
ENCODING 8500
SWIDTH 960 0
DWIDTH 24 0
BBX 24 24 0 -2
BITMAP
000000
000000
0000C0
0000E0
0003E0
018360
03E380
03F180
01F800
007C00
003E00
001F00
000F80
000780
0003C0
0003C0
000180
000000
000000
000000
000000
000000
000000
000000
ENDCHAR

STARTCHAR jisx0208_2135
ENCODING 8501
SWIDTH 960 0
DWIDTH 24 0
BBX 24 24 0 -2
BITMAP
000000
000000
000000
000000
01C000
03F000
03F800
00FC00
003E00
001F00
000F80
000780
0003C0
0003C0
0001C0
001FC0
001FC0
000F80
000000
000000
000000
000000
000000
000000
ENDCHAR

STARTCHAR jisx0208_2136
ENCODING 8502
SWIDTH 960 0
DWIDTH 24 0
BBX 24 24 0 -2
BITMAP
000000
000000
000060
000070
01C1F0
03F1B0
03F9C0
00FCC0
003E00
001F00
000F80
000780
0003C0
0003C0
0001C0
001FC0
001FC0
000F80
000000
000000
000000
000000
000000
000000
ENDCHAR

STARTCHAR jisx0208_2137
ENCODING 8503
SWIDTH 960 0
DWIDTH 24 0
BBX 24 24 0 -2
BITMAP
000000
000000
000000
000000
000000
0039C0
0039C0
0039C0
0039C0
007BC0
007380
007380
00F780
00E700
01EF00
01CE00
01CE00
000000
000000
000000
000000
000000
000000
000000
ENDCHAR

STARTCHAR jisx0208_2138
ENCODING 8504
SWIDTH 960 0
DWIDTH 24 0
BBX 24 24 0 -2
BITMAP
001C00
003E00
007F00
00FF80
01F7C0
03E3E0
07C1F0
1F80FC
3F007E
7E003F
78000F
37FFF6
07FFF0
07FFF0
001C00
001C00
001C00
001C00
001C00
3FFFFE
3FFFFE
3FFFFE
000000
000000
ENDCHAR

STARTCHAR jisx0208_2139
ENCODING 8505
SWIDTH 960 0
DWIDTH 24 0
BBX 24 24 0 -2
BITMAP
000000
007000
007000
007000
00F030
00EFF8
01FFFC
01FFFC
03C038
07C078
0780F0
0F01F0
1F01E0
3E73C0
3CF7C0
18FF80
003F00
000F80
0007C0
0003E0
0001E0
0000C0
000000
000000
ENDCHAR

STARTCHAR jisx0208_213A
ENCODING 8506
SWIDTH 960 0
DWIDTH 24 0
BBX 24 24 0 -2
BITMAP
000000
00000C
00001E
00003E
00007C
0000F8
0001F0
03E3E0
07F7C0
0FFF80
0F3F00
1E1FE0
1E7BF0
1C79F8
3CF078
3DF030
3BE000
3FC000
378000
3F0000
1E0000
000000
000000
000000
ENDCHAR

STARTCHAR jisx0208_213B
ENCODING 8507
SWIDTH 960 0
DWIDTH 24 0
BBX 24 24 0 -2
BITMAP
000000
00FF80
03FFE0
07FFF0
0F80F8
1E003C
1C001C
3C001E
38000E
38000E
38000E
38000E
38000E
38000E
38000E
3C001E
1C001C
1E003C
0F80F8
07FFF0
03FFE0
00FF80
000000
000000
ENDCHAR

STARTCHAR jisx0208_213C
ENCODING 8508
SWIDTH 960 0
DWIDTH 24 0
BBX 24 24 0 -2
BITMAP
000000
000000
000000
000000
000000
000000
000000
000000
000000
000000
1FFFFC
1FFFFC
1FFFFC
000000
000000
000000
000000
000000
000000
000000
000000
000000
000000
000000
ENDCHAR

STARTCHAR jisx0208_213D
ENCODING 8509
SWIDTH 960 0
DWIDTH 24 0
BBX 24 24 0 -2
BITMAP
000000
000000
000000
000000
000000
000000
000000
000000
000000
000000
7FFFFF
7FFFFF
7FFFFF
000000
000000
000000
000000
000000
000000
000000
000000
000000
000000
000000
ENDCHAR

STARTCHAR jisx0208_213E
ENCODING 8510
SWIDTH 960 0
DWIDTH 24 0
BBX 24 24 0 -2
BITMAP
000000
000000
000000
000000
000000
000000
000000
000000
000000
000000
007F00
007F00
007F00
000000
000000
000000
000000
000000
000000
000000
000000
000000
000000
000000
ENDCHAR

STARTCHAR jisx0208_213F
ENCODING 8511
SWIDTH 960 0
DWIDTH 24 0
BBX 24 24 0 -2
BITMAP
000006
00000F
00001F
00003E
00007C
0000F8
0001F0
0003E0
0007C0
000F80
001F00
003E00
007C00
00F800
01F000
03E000
07C000
0F8000
1F0000
3E0000
7C0000
780000
300000
000000
ENDCHAR

STARTCHAR jisx0208_2140
ENCODING 8512
SWIDTH 960 0
DWIDTH 24 0
BBX 24 24 0 -2
BITMAP
300000
780000
7C0000
3E0000
1F0000
0F8000
07C000
03E000
01F000
00F800
007C00
003E00
001F00
000F80
0007C0
0003E0
0001F0
0000F8
00007C
00003E
00001F
00000F
000006
000000
ENDCHAR

STARTCHAR jisx0208_2141
ENCODING 8513
SWIDTH 960 0
DWIDTH 24 0
BBX 24 24 0 -2
BITMAP
000000
000000
000000
000000
000000
000000
000000
000000
03E006
0FF80F
1FFC1F
3E3E3E
7C1FFC
780FF8
3003E0
000000
000000
000000
000000
000000
000000
000000
000000
000000
ENDCHAR

STARTCHAR jisx0208_2142
ENCODING 8514
SWIDTH 960 0
DWIDTH 24 0
BBX 24 24 0 -2
BITMAP
01C1C0
01C1C0
01C1C0
01C1C0
01C1C0
01C1C0
01C1C0
01C1C0
01C1C0
01C1C0
01C1C0
01C1C0
01C1C0
01C1C0
01C1C0
01C1C0
01C1C0
01C1C0
01C1C0
01C1C0
01C1C0
01C1C0
01C1C0
000000
ENDCHAR

STARTCHAR jisx0208_2143
ENCODING 8515
SWIDTH 960 0
DWIDTH 24 0
BBX 24 24 0 -2
BITMAP
001C00
001C00
001C00
001C00
001C00
001C00
001C00
001C00
001C00
001C00
001C00
001C00
001C00
001C00
001C00
001C00
001C00
001C00
001C00
001C00
001C00
001C00
001C00
000000
ENDCHAR

STARTCHAR jisx0208_2144
ENCODING 8516
SWIDTH 960 0
DWIDTH 24 0
BBX 24 24 0 -2
BITMAP
000000
000000
000000
000000
000000
000000
000000
000000
000000
1E3C78
1E3C78
1E3C78
1E3C78
000000
000000
000000
000000
000000
000000
000000
000000
000000
000000
000000
ENDCHAR

STARTCHAR jisx0208_2145
ENCODING 8517
SWIDTH 960 0
DWIDTH 24 0
BBX 24 24 0 -2
BITMAP
000000
000000
000000
000000
000000
000000
000000
000000
000000
0780F0
0780F0
0780F0
0780F0
000000
000000
000000
000000
000000
000000
000000
000000
000000
000000
000000
ENDCHAR

STARTCHAR jisx0208_2146
ENCODING 8518
SWIDTH 960 0
DWIDTH 24 0
BBX 24 24 0 -2
BITMAP
00000E
00001E
00001C
00001E
00001E
00001E
000000
000000
000000
000000
000000
000000
000000
000000
000000
000000
000000
000000
000000
000000
000000
000000
000000
000000
ENDCHAR

STARTCHAR jisx0208_2147
ENCODING 8519
SWIDTH 960 0
DWIDTH 24 0
BBX 24 24 0 -2
BITMAP
3C0000
3C0000
3C0000
3C0000
1C0000
380000
000000
000000
000000
000000
000000
000000
000000
000000
000000
000000
000000
000000
000000
000000
000000
000000
000000
000000
ENDCHAR

STARTCHAR jisx0208_2148
ENCODING 8520
SWIDTH 960 0
DWIDTH 24 0
BBX 24 24 0 -2
BITMAP
0000EE
0001FE
0001DC
0001DE
0001DE
0001DE
000000
000000
000000
000000
000000
000000
000000
000000
000000
000000
000000
000000
000000
000000
000000
000000
000000
000000
ENDCHAR

STARTCHAR jisx0208_2149
ENCODING 8521
SWIDTH 960 0
DWIDTH 24 0
BBX 24 24 0 -2
BITMAP
3BC000
3BC000
3BC000
3FC000
1DC000
3B8000
000000
000000
000000
000000
000000
000000
000000
000000
000000
000000
000000
000000
000000
000000
000000
000000
000000
000000
ENDCHAR

STARTCHAR jisx0208_214A
ENCODING 8522
SWIDTH 960 0
DWIDTH 24 0
BBX 24 24 0 -2
BITMAP
000006
00000E
00001E
00003E
00003C
000078
000078
0000F0
0000F0
0000E0
0000E0
0000E0
0000E0
0000E0
0000F0
0000F0
000078
000078
00003C
00003E
00001E
00000E
000006
000000
ENDCHAR

STARTCHAR jisx0208_214B
ENCODING 8523
SWIDTH 960 0
DWIDTH 24 0
BBX 24 24 0 -2
BITMAP
300000
380000
3C0000
3E0000
1E0000
0F0000
0F0000
078000
078000
038000
038000
038000
038000
038000
078000
078000
0F0000
0F0000
1E0000
3E0000
3C0000
380000
300000
000000
ENDCHAR

STARTCHAR jisx0208_214C
ENCODING 8524
SWIDTH 960 0
DWIDTH 24 0
BBX 24 24 0 -2
BITMAP
00000E
00003E
0000FE
0000F8
0000E0
0000E0
0000E0
0000E0
0000E0
0000E0
0000E0
0000E0
0000E0
0000E0
0000E0
0000E0
0000E0
0000E0
0000E0
0000F8
0000FE
00003E
00000E
000000
ENDCHAR

STARTCHAR jisx0208_214D
ENCODING 8525
SWIDTH 960 0
DWIDTH 24 0
BBX 24 24 0 -2
BITMAP
380000
3E0000
3F8000
0F8000
038000
038000
038000
038000
038000
038000
038000
038000
038000
038000
038000
038000
038000
038000
038000
0F8000
3F8000
3E0000
380000
000000
ENDCHAR

STARTCHAR jisx0208_214E
ENCODING 8526
SWIDTH 960 0
DWIDTH 24 0
BBX 24 24 0 -2
BITMAP
0000FE
0000FE
0000FE
0000E0
0000E0
0000E0
0000E0
0000E0
0000E0
0000E0
0000E0
0000E0
0000E0
0000E0
0000E0
0000E0
0000E0
0000E0
0000E0
0000E0
0000FE
0000FE
0000FE
000000
ENDCHAR

STARTCHAR jisx0208_214F
ENCODING 8527
SWIDTH 960 0
DWIDTH 24 0
BBX 24 24 0 -2
BITMAP
3F8000
3F8000
3F8000
038000
038000
038000
038000
038000
038000
038000
038000
038000
038000
038000
038000
038000
038000
038000
038000
038000
3F8000
3F8000
3F8000
000000
ENDCHAR

STARTCHAR jisx0208_2150
ENCODING 8528
SWIDTH 960 0
DWIDTH 24 0
BBX 24 24 0 -2
BITMAP
00001E
00003E
00007E
000078
000070
000070
000070
000070
000070
000070
0001F0
0001E0
0001F0
000070
000070
000070
000070
000070
000070
000078
00007E
00003E
00001E
000000
ENDCHAR

STARTCHAR jisx0208_2151
ENCODING 8529
SWIDTH 960 0
DWIDTH 24 0
BBX 24 24 0 -2
BITMAP
3C0000
3E0000
3F0000
0F0000
070000
070000
070000
070000
070000
070000
07C000
03C000
07C000
070000
070000
070000
070000
070000
070000
0F0000
3F0000
3E0000
3C0000
000000
ENDCHAR

STARTCHAR jisx0208_2152
ENCODING 8530
SWIDTH 960 0
DWIDTH 24 0
BBX 24 24 0 -2
BITMAP
00000E
00000E
00001E
00001C
00003C
000038
000078
000070
0000F0
0000E0
0001E0
0001C0
0001E0
0000E0
0000F0
000070
000078
000038
00003C
00001C
00001E
00000E
00000E
000000
ENDCHAR

STARTCHAR jisx0208_2153
ENCODING 8531
SWIDTH 960 0
DWIDTH 24 0
BBX 24 24 0 -2
BITMAP
380000
380000
3C0000
1C0000
1E0000
0E0000
0F0000
070000
078000
038000
03C000
01C000
03C000
038000
078000
070000
0F0000
0E0000
1E0000
1C0000
3C0000
380000
380000
000000
ENDCHAR

STARTCHAR jisx0208_2154
ENCODING 8532
SWIDTH 960 0
DWIDTH 24 0
BBX 24 24 0 -2
BITMAP
000077
000077
0000FF
0000EE
0001FE
0001DC
0003FC
0003B8
0007F8
000770
000FF0
000EE0
000FF0
000770
0007F8
0003B8
0003FC
0001DC
0001FE
0000EE
0000FF
000077
000077
000000
ENDCHAR

STARTCHAR jisx0208_2155
ENCODING 8533
SWIDTH 960 0
DWIDTH 24 0
BBX 24 24 0 -2
BITMAP
770000
770000
7F8000
3B8000
3FC000
1DC000
1FE000
0EE000
0FF000
077000
07F800
03B800
07F800
077000
0FF000
0EE000
1FE000
1DC000
3FC000
3B8000
7F8000
770000
770000
000000
ENDCHAR

STARTCHAR jisx0208_2156
ENCODING 8534
SWIDTH 960 0
DWIDTH 24 0
BBX 24 24 0 -2
BITMAP
0003FE
0003FE
0003FE
000380
000380
000380
000380
000380
000380
000380
000380
000380
000380
000380
000380
000380
000380
000380
000380
000380
000380
000380
000380
000000
ENDCHAR

STARTCHAR jisx0208_2157
ENCODING 8535
SWIDTH 960 0
DWIDTH 24 0
BBX 24 24 0 -2
BITMAP
00E000
00E000
00E000
00E000
00E000
00E000
00E000
00E000
00E000
00E000
00E000
00E000
00E000
00E000
00E000
00E000
00E000
00E000
00E000
00E000
3FE000
3FE000
3FE000
000000
ENDCHAR

STARTCHAR jisx0208_2158
ENCODING 8536
SWIDTH 960 0
DWIDTH 24 0
BBX 24 24 0 -2
BITMAP
0007FE
0007FE
0007FE
00070E
00077E
00077E
00077E
000770
000770
000770
000770
000770
000770
000770
000770
000770
000770
000770
000770
000770
0007F0
0007F0
0007F0
000000
ENDCHAR

STARTCHAR jisx0208_2159
ENCODING 8537
SWIDTH 960 0
DWIDTH 24 0
BBX 24 24 0 -2
BITMAP
07F000
07F000
07F000
077000
077000
077000
077000
077000
077000
077000
077000
077000
077000
077000
077000
077000
3F7000
3F7000
3F7000
387000
3FF000
3FF000
3FF000
000000
ENDCHAR

STARTCHAR jisx0208_215A
ENCODING 8538
SWIDTH 960 0
DWIDTH 24 0
BBX 24 24 0 -2
BITMAP
0000FE
0000FE
0000FC
0000F8
0000F8
0000F0
0000F0
0000F0
0000E0
0000E0
0000E0
0000E0
0000E0
0000E0
0000E0
0000F0
0000F0
0000F0
0000F8
0000F8
0000FC
0000FE
0000FE
000000
ENDCHAR

STARTCHAR jisx0208_215B
ENCODING 8539
SWIDTH 960 0
DWIDTH 24 0
BBX 24 24 0 -2
BITMAP
3F8000
3F8000
1F8000
0F8000
0F8000
078000
078000
078000
038000
038000
038000
038000
038000
038000
038000
078000
078000
078000
0F8000
0F8000
1F8000
3F8000
3F8000
000000
ENDCHAR

STARTCHAR jisx0208_215C
ENCODING 8540
SWIDTH 960 0
DWIDTH 24 0
BBX 24 24 0 -2
BITMAP
000000
000000
000000
001C00
001C00
001C00
001C00
001C00
001C00
001C00
0FFFF8
0FFFF8
0FFFF8
001C00
001C00
001C00
001C00
001C00
001C00
001C00
000000
000000
000000
000000
ENDCHAR

STARTCHAR jisx0208_215D
ENCODING 8541
SWIDTH 960 0
DWIDTH 24 0
BBX 24 24 0 -2
BITMAP
000000
000000
000000
000000
000000
000000
000000
000000
000000
000000
0FFFF8
0FFFF8
0FFFF8
000000
000000
000000
000000
000000
000000
000000
000000
000000
000000
000000
ENDCHAR

STARTCHAR jisx0208_215E
ENCODING 8542
SWIDTH 960 0
DWIDTH 24 0
BBX 24 24 0 -2
BITMAP
000000
000000
000000
001C00
001C00
001C00
001C00
001C00
0FFFF8
0FFFF8
0FFFF8
001C00
001C00
001C00
001C00
001C00
000000
0FFFF8
0FFFF8
0FFFF8
000000
000000
000000
000000
ENDCHAR

STARTCHAR jisx0208_215F
ENCODING 8543
SWIDTH 960 0
DWIDTH 24 0
BBX 24 24 0 -2
BITMAP
000000
000000
000000
000000
030060
0780F0
07C1F0
03E3E0
01F7C0
00FF80
007F00
003E00
007F00
00FF80
01F7C0
03E3E0
07C1F0
0780F0
030060
000000
000000
000000
000000
000000
ENDCHAR

STARTCHAR jisx0208_2160
ENCODING 8544
SWIDTH 960 0
DWIDTH 24 0
BBX 24 24 0 -2
BITMAP
000000
000000
000000
000000
003C00
003C00
003C00
003C00
000000
000000
1FFFF8
1FFFF8
1FFFF8
000000
000000
003C00
003C00
003C00
003C00
000000
000000
000000
000000
000000
ENDCHAR

STARTCHAR jisx0208_2161
ENCODING 8545
SWIDTH 960 0
DWIDTH 24 0
BBX 24 24 0 -2
BITMAP
000000
000000
000000
000000
000000
000000
000000
0FFFF8
0FFFF8
0FFFF8
000000
000000
000000
0FFFF8
0FFFF8
0FFFF8
000000
000000
000000
000000
000000
000000
000000
000000
ENDCHAR

STARTCHAR jisx0208_2162
ENCODING 8546
SWIDTH 960 0
DWIDTH 24 0
BBX 24 24 0 -2
BITMAP
000000
000000
000000
0001C0
0003C0
000380
000780
0FFF78
0FFFF8
0FFFF8
000E00
001C00
003C00
0FFBF8
0FFFF8
0FFFF8
007000
00E000
01E000
01C000
000000
000000
000000
000000
ENDCHAR

STARTCHAR jisx0208_2163
ENCODING 8547
SWIDTH 960 0
DWIDTH 24 0
BBX 24 24 0 -2
BITMAP
000000
000000
000000
000038
0000F8
0003F8
000FE0
003F80
00FE00
03F800
0FE000
0F8000
0FE000
03F800
00FE00
003F80
000FE0
0003F8
0000F8
000038
000000
000000
000000
000000
ENDCHAR

STARTCHAR jisx0208_2164
ENCODING 8548
SWIDTH 960 0
DWIDTH 24 0
BBX 24 24 0 -2
BITMAP
000000
000000
000000
0E0000
0F8000
0FE000
03F800
00FE00
003F80
000FE0
0003F8
0000F8
0003F8
000FE0
003F80
00FE00
03F800
0FE000
0F8000
0E0000
000000
000000
000000
000000
ENDCHAR

STARTCHAR jisx0208_2165
ENCODING 8549
SWIDTH 960 0
DWIDTH 24 0
BBX 24 24 0 -2
BITMAP
000000
000000
000078
0007F8
003FF8
01FFC0
0FFC00
0FE000
0FFC00
01FFC0
003FF8
0007F8
000078
000000
0FFFF8
0FFFF8
0FFFF8
000000
0FFFF8
0FFFF8
0FFFF8
000000
000000
000000
ENDCHAR

STARTCHAR jisx0208_2166
ENCODING 8550
SWIDTH 960 0
DWIDTH 24 0
BBX 24 24 0 -2
BITMAP
000000
000000
0F0000
0FF000
0FFE00
01FFC0
001FF8
0003F8
001FF8
01FFC0
0FFE00
0FF000
0F0000
000000
0FFFF8
0FFFF8
0FFFF8
000000
0FFFF8
0FFFF8
0FFFF8
000000
000000
000000
ENDCHAR

STARTCHAR jisx0208_2167
ENCODING 8551
SWIDTH 960 0
DWIDTH 24 0
BBX 24 24 0 -2
BITMAP
000000
000000
000000
000000
000000
0F80F8
3FE3FE
3FF7FE
78FF8F
707F07
703E07
701C07
707F07
78FF8F
3FF7FE
3FE3FE
0F80F8
000000
000000
000000
000000
000000
000000
000000
ENDCHAR

STARTCHAR jisx0208_2168
ENCODING 8552
SWIDTH 960 0
DWIDTH 24 0
BBX 24 24 0 -2
BITMAP
000000
000000
000000
001C00
003E00
003E00
003E00
001C00
000000
000000
000000
000000
000000
000000
000000
0E0038
1F007C
1F007C
1F007C
0E0038
000000
000000
000000
000000
ENDCHAR

STARTCHAR jisx0208_2169
ENCODING 8553
SWIDTH 960 0
DWIDTH 24 0
BBX 24 24 0 -2
BITMAP
000000
000FFE
000FFE
000FFE
00003E
0000FE
0001EE
0003EE
0007CE
03EF8E
0FFF0E
1FFE0E
1E3C00
3C1E00
380E00
380E00
380E00
3C1E00
1E3C00
1FFC00
0FF800
03E000
000000
000000
ENDCHAR

STARTCHAR jisx0208_216A
ENCODING 8554
SWIDTH 960 0
DWIDTH 24 0
BBX 24 24 0 -2
BITMAP
000000
003E00
00FF80
01FFC0
01E3C0
03C1E0
0380E0
0380E0
0380E0
03C1E0
01E3C0
01FFC0
00FF80
003E00
001C00
07FFF0
07FFF0
07FFF0
001C00
001C00
001C00
001C00
000000
000000
ENDCHAR

STARTCHAR jisx0208_216B
ENCODING 8555
SWIDTH 960 0
DWIDTH 24 0
BBX 24 24 0 -2
BITMAP
3C0000
7E0000
6E0000
660000
7E0000
3C0000
000000
000000
000000
000000
000000
000000
000000
000000
000000
000000
000000
000000
000000
000000
000000
000000
000000
000000
ENDCHAR

STARTCHAR jisx0208_216C
ENCODING 8556
SWIDTH 960 0
DWIDTH 24 0
BBX 24 24 0 -2
BITMAP
1C0000
1C0000
3C0000
380000
780000
700000
700000
000000
000000
000000
000000
000000
000000
000000
000000
000000
000000
000000
000000
000000
000000
000000
000000
000000
ENDCHAR

STARTCHAR jisx0208_216D
ENCODING 8557
SWIDTH 960 0
DWIDTH 24 0
BBX 24 24 0 -2
BITMAP
1B8000
1B8000
3F8000
370000
7F0000
6E0000
6E0000
000000
000000
000000
000000
000000
000000
000000
000000
000000
000000
000000
000000
000000
000000
000000
000000
000000
ENDCHAR

STARTCHAR jisx0208_216E
ENCODING 8558
SWIDTH 960 0
DWIDTH 24 0
BBX 24 24 0 -2
BITMAP
1E0000
3F0000
370FC0
333FF0
3F7FF8
1EF87C
00E03C
01E01C
01C000
01C000
01C000
01C000
01C000
01C00E
01C00E
01E01E
00E01C
00F87C
007FF8
003FF0
000FC0
000000
000000
000000
ENDCHAR

STARTCHAR jisx0208_216F
ENCODING 8559
SWIDTH 960 0
DWIDTH 24 0
BBX 24 24 0 -2
BITMAP
000000
000000
070070
0780F0
0380E0
03C1E0
01C1C0
01E3C0
00E380
00F780
007700
03FFE0
03FFE0
03FFE0
001C00
03FFE0
03FFE0
03FFE0
001C00
001C00
001C00
000000
000000
000000
ENDCHAR

STARTCHAR jisx0208_2170
ENCODING 8560
SWIDTH 960 0
DWIDTH 24 0
BBX 24 24 0 -2
BITMAP
001C00
001C00
00FF00
03FFC0
03FFC0
079DE0
071CE0
071CE0
07DC00
03FC00
01FF00
007FC0
001FE0
001DF0
071C70
071C70
079C70
03DCF0
03FFE0
01FFE0
007F80
001C00
001C00
000000
ENDCHAR

STARTCHAR jisx0208_2171
ENCODING 8561
SWIDTH 960 0
DWIDTH 24 0
BBX 24 24 0 -2
BITMAP
000000
000000
000000
000000
000180
0001C0
0003C0
003F80
00FF80
01FFC0
01E7E0
03CDE0
039EE0
039C00
03BC00
03B8E0
03F9E0
01F3E0
01FFC0
00FF80
01FE00
01C000
00C000
000000
ENDCHAR

STARTCHAR jisx0208_2172
ENCODING 8562
SWIDTH 960 0
DWIDTH 24 0
BBX 24 24 0 -2
BITMAP
000000
000000
001FC0
003FE0
007FF0
0078F0
007070
007070
007000
07FFC0
07FFC0
07FFC0
003800
003800
07B800
0FF800
0FF838
0E7C78
0FBFF8
0FFFF0
07F7E0
000000
000000
000000
ENDCHAR

STARTCHAR jisx0208_2173
ENCODING 8563
SWIDTH 960 0
DWIDTH 24 0
BBX 24 24 0 -2
BITMAP
000000
000000
078060
1FE0F0
1FE1F0
3CF1E0
3873C0
387780
3CF780
1FEF00
1FFE00
079EF0
003DFC
007BFC
00F79E
00F70E
01E70E
03C79E
07C3FC
0783FC
0300F0
000000
000000
000000
ENDCHAR

STARTCHAR jisx0208_2174
ENCODING 8564
SWIDTH 960 0
DWIDTH 24 0
BBX 24 24 0 -2
BITMAP
000000
000000
0071C0
0071C0
0071C0
0071C0
0071C0
07FFF8
07FFF8
07FFF8
00E380
00E380
00E380
0FFFF0
0FFFF0
0FFFF0
01C700
01C700
01C700
01C700
01C700
000000
000000
000000
ENDCHAR

STARTCHAR jisx0208_2175
ENCODING 8565
SWIDTH 960 0
DWIDTH 24 0
BBX 24 24 0 -2
BITMAP
000000
000000
007800
00FC00
01FE00
01CE00
01CE00
01DE00
01FC00
00F800
01F000
03FC00
03BC70
079E70
070EF0
070FE0
0707E0
0783C0
03FFF0
03FEF0
00FC60
000000
000000
000000
ENDCHAR

STARTCHAR jisx0208_2176
ENCODING 8566
SWIDTH 960 0
DWIDTH 24 0
BBX 24 24 0 -2
BITMAP
000000
000000
000000
000000
001C00
001C00
019CC0
03DDE0
03DFE0
03FBE0
00FF80
003E00
00FF80
03FFE0
03DBE0
03DDE0
019CC0
001C00
001C00
000000
000000
000000
000000
000000
ENDCHAR

STARTCHAR jisx0208_2177
ENCODING 8567
SWIDTH 960 0
DWIDTH 24 0
BBX 24 24 0 -2
BITMAP
000000
00FF80
03FFE0
07FFF0
0FC1F8
1F007C
1E3DBC
3CFFDE
3CFFDE
39E3CE
39C1CE
39C3CE
39C39E
39E7BC
3DFFFC
3CFFF8
1E7DF0
1F0000
0FC1C0
07FFE0
03FFE0
00FF80
000000
000000
ENDCHAR

STARTCHAR jisx0208_2178
ENCODING 8568
SWIDTH 960 0
DWIDTH 24 0
BBX 24 24 0 -2
BITMAP
007F00
00FF80
01FFC0
01E3C0
01C1C0
01E000
01F000
00FC00
01FF00
01DF80
01C7C0
01E3C0
01F1C0
00FBC0
007FC0
001F80
0007C0
0003C0
01C1C0
01E3C0
01FFC0
00FF80
007F00
000000
ENDCHAR

STARTCHAR jisx0208_2179
ENCODING 8569
SWIDTH 960 0
DWIDTH 24 0
BBX 24 24 0 -2
BITMAP
000000
001C00
001C00
003E00
003E00
003E00
007F00
007700
3FF7FE
3FF7FE
1FE3FC
0F0078
07C1F0
03C1E0
01C1C0
039CE0
03FEE0
077FF0
07F7F0
0FC1F8
0F0078
0E0038
000000
000000
ENDCHAR

STARTCHAR jisx0208_217A
ENCODING 8570
SWIDTH 960 0
DWIDTH 24 0
BBX 24 24 0 -2
BITMAP
000000
001C00
001C00
003E00
003E00
003E00
007F00
007F00
3FFFFE
3FFFFE
1FFFFC
0FFFF8
07FFF0
03FFE0
01FFC0
03FFE0
03FFE0
07FFF0
07F7F0
0FC1F8
0F0078
0E0038
000000
000000
ENDCHAR

STARTCHAR jisx0208_217B
ENCODING 8571
SWIDTH 960 0
DWIDTH 24 0
BBX 24 24 0 -2
BITMAP
000000
00FF80
03FFE0
07FFF0
0FC1F8
1F007C
1E003C
3C001E
3C001E
38000E
38000E
38000E
38000E
38000E
3C001E
3C001E
1E003C
1F007C
0FC1F8
07FFF0
03FFE0
00FF80
000000
000000
ENDCHAR

STARTCHAR jisx0208_217C
ENCODING 8572
SWIDTH 960 0
DWIDTH 24 0
BBX 24 24 0 -2
BITMAP
000000
00FF80
03FFE0
07FFF0
0FFFF8
1FFFFC
1FFFFC
3FFFFE
3FFFFE
3FFFFE
3FFFFE
3FFFFE
3FFFFE
3FFFFE
3FFFFE
3FFFFE
1FFFFC
1FFFFC
0FFFF8
07FFF0
03FFE0
00FF80
000000
000000
ENDCHAR

STARTCHAR jisx0208_217D
ENCODING 8573
SWIDTH 960 0
DWIDTH 24 0
BBX 24 24 0 -2
BITMAP
000000
00FF80
03FFE0
07FFF0
0FC1F8
1F3E7C
1EFFBC
3DFFDE
3DE3DE
3BC1EE
3B80EE
3B80EE
3B80EE
3BC1EE
3DE3DE
3DFFDE
1EFFBC
1F3E7C
0FC1F8
07FFF0
03FFE0
00FF80
000000
000000
ENDCHAR

STARTCHAR jisx0208_217E
ENCODING 8574
SWIDTH 960 0
DWIDTH 24 0
BBX 24 24 0 -2
BITMAP
001C00
003E00
007F00
00FF80
01F7C0
03E3E0
07C1F0
0F80F8
1F007C
3E003E
7C001F
78000F
7C001F
3E003E
1F007C
0F80F8
07C1F0
03E3E0
01F7C0
00FF80
007F00
003E00
001C00
000000
ENDCHAR

STARTCHAR jisx0208_2221
ENCODING 8737
SWIDTH 960 0
DWIDTH 24 0
BBX 24 24 0 -2
BITMAP
001C00
003E00
007F00
00FF80
01FFC0
03FFE0
07FFF0
0FFFF8
1FFFFC
3FFFFE
7FFFFF
7FFFFF
7FFFFF
3FFFFE
1FFFFC
0FFFF8
07FFF0
03FFE0
01FFC0
00FF80
007F00
003E00
001C00
000000
ENDCHAR

STARTCHAR jisx0208_2222
ENCODING 8738
SWIDTH 960 0
DWIDTH 24 0
BBX 24 24 0 -2
BITMAP
000000
000000
1FFFFC
1FFFFC
1FFFFC
1C001C
1C001C
1C001C
1C001C
1C001C
1C001C
1C001C
1C001C
1C001C
1C001C
1C001C
1C001C
1C001C
1FFFFC
1FFFFC
1FFFFC
000000
000000
000000
ENDCHAR

STARTCHAR jisx0208_2223
ENCODING 8739
SWIDTH 960 0
DWIDTH 24 0
BBX 24 24 0 -2
BITMAP
000000
000000
1FFFFC
1FFFFC
1FFFFC
1FFFFC
1FFFFC
1FFFFC
1FFFFC
1FFFFC
1FFFFC
1FFFFC
1FFFFC
1FFFFC
1FFFFC
1FFFFC
1FFFFC
1FFFFC
1FFFFC
1FFFFC
1FFFFC
000000
000000
000000
ENDCHAR

STARTCHAR jisx0208_2224
ENCODING 8740
SWIDTH 960 0
DWIDTH 24 0
BBX 24 24 0 -2
BITMAP
000000
000000
001C00
001C00
003E00
007F00
007F00
00F780
00E380
01E3C0
03C1E0
03C1E0
0780F0
070070
0F0078
1E003C
1E003C
3DFFDE
3FFFFE
3FFFFE
000000
000000
000000
000000
ENDCHAR

STARTCHAR jisx0208_2225
ENCODING 8741
SWIDTH 960 0
DWIDTH 24 0
BBX 24 24 0 -2
BITMAP
000000
000000
001C00
001C00
003E00
007F00
007F00
00FF80
00FF80
01FFC0
03FFE0
03FFE0
07FFF0
07FFF0
0FFFF8
1FFFFC
1FFFFC
3FFFFE
3FFFFE
3FFFFE
000000
000000
000000
000000
ENDCHAR

STARTCHAR jisx0208_2226
ENCODING 8742
SWIDTH 960 0
DWIDTH 24 0
BBX 24 24 0 -2
BITMAP
000000
000000
000000
3FFFFE
3FFFFE
3FFFFE
1C001C
1E003C
0F0078
070070
0780F0
03C1E0
03C1E0
01E3C0
00E380
00F780
007F00
007F00
003E00
001C00
001C00
000000
000000
000000
ENDCHAR

STARTCHAR jisx0208_2227
ENCODING 8743
SWIDTH 960 0
DWIDTH 24 0
BBX 24 24 0 -2
BITMAP
000000
000000
000000
3FFFFE
3FFFFE
3FFFFE
1FFFFC
1FFFFC
0FFFF8
07FFF0
07FFF0
03FFE0
03FFE0
01FFC0
00FF80
00FF80
007F00
007F00
003E00
001C00
001C00
000000
000000
000000
ENDCHAR

STARTCHAR jisx0208_2228
ENCODING 8744
SWIDTH 960 0
DWIDTH 24 0
BBX 24 24 0 -2
BITMAP
000000
000000
0C3C30
1E3C78
1F3CF8
0FBDF0
07C3E0
03E7C0
01EF80
1EFF78
1E7E78
1E3C78
1EFF78
01EF80
03E7C0
07C3E0
0FBDF0
1F3CF8
1E3C78
0C3C30
000000
000000
000000
000000
ENDCHAR

STARTCHAR jisx0208_2229
ENCODING 8745
SWIDTH 960 0
DWIDTH 24 0
BBX 24 24 0 -2
BITMAP
000000
000000
1FFFF8
1FFFF8
1FFFF8
1FFFF8
000000
000000
1FFFF8
1FFFF8
1FFFF8
1FFFF8
003C00
003C00
003C00
003C00
003C00
003C00
003C00
003C00
003C00
000000
000000
000000
ENDCHAR

STARTCHAR jisx0208_222A
ENCODING 8746
SWIDTH 960 0
DWIDTH 24 0
BBX 24 24 0 -2
BITMAP
000000
000000
000000
000000
000000
0000C0
0001E0
0001F0
0000F8
00007E
7FFF9F
7FFFFF
7FFFFF
00001E
0000F8
0001F0
0001E0
0000C0
000000
000000
000000
000000
000000
000000
ENDCHAR

STARTCHAR jisx0208_222B
ENCODING 8747
SWIDTH 960 0
DWIDTH 24 0
BBX 24 24 0 -2
BITMAP
000000
000000
000000
000000
000000
018000
03C000
07C000
0F8000
3F0000
7CFFFF
7FFFFF
7FFFFF
3C0000
0F8000
07C000
03C000
018000
000000
000000
000000
000000
000000
000000
ENDCHAR

STARTCHAR jisx0208_222C
ENCODING 8748
SWIDTH 960 0
DWIDTH 24 0
BBX 24 24 0 -2
BITMAP
001C00
003E00
003E00
007F00
00FF80
01DBC0
03DFE0
03DDE0
019CC0
001C00
001C00
001C00
001C00
001C00
001C00
001C00
001C00
001C00
001C00
001C00
001C00
001C00
001C00
000000
ENDCHAR

STARTCHAR jisx0208_222D
ENCODING 8749
SWIDTH 960 0
DWIDTH 24 0
BBX 24 24 0 -2
BITMAP
001C00
001C00
001C00
001C00
001C00
001C00
001C00
001C00
001C00
001C00
001C00
001C00
001C00
001C00
019CC0
03DDE0
03DFE0
01DBC0
00FF80
007F00
003E00
003E00
001C00
000000
ENDCHAR

STARTCHAR jisx0208_222E
ENCODING 8750
SWIDTH 960 0
DWIDTH 24 0
BBX 24 24 0 -2
BITMAP
000000
000000
000000
000000
000000
000000
0FFFF8
0FFFF8
0FFFF8
0FFFF8
000000
000000
000000
0FFFF8
0FFFF8
0FFFF8
0FFFF8
000000
000000
000000
000000
000000
000000
000000
ENDCHAR

STARTCHAR jisx0208_222F
ENCODING 8751
SWIDTH 960 0
DWIDTH 24 0
BBX 24 24 0 -2
BITMAP
000000
300006
300006
000000
000000
000000
000000
000000
000000
000000
000000
000000
000000
000000
000000
000000
000000
000000
000000
000000
300006
300006
000000
000000
ENDCHAR

STARTCHAR jisx0208_223A
ENCODING 8762
SWIDTH 960 0
DWIDTH 24 0
BBX 24 24 0 -2
BITMAP
000000
000000
000000
000000
01FFF8
07FFF8
0FFFF8
0F0000
1E0000
1C0000
1FFFF8
1FFFF8
1FFFF8
1C0000
1E0000
0F0000
0FFFF8
07FFF8
01FFF8
000000
000000
000000
000000
000000
ENDCHAR

STARTCHAR jisx0208_223B
ENCODING 8763
SWIDTH 960 0
DWIDTH 24 0
BBX 24 24 0 -2
BITMAP
000000
000000
000000
000000
0FFFC0
0FFFF0
0FFFF8
000078
00003C
00001C
0FFFFC
0FFFFC
0FFFFC
00001C
00003C
000078
0FFFF8
0FFFF0
0FFFC0
000000
000000
000000
000000
000000
ENDCHAR

STARTCHAR jisx0208_223C
ENCODING 8764
SWIDTH 960 0
DWIDTH 24 0
BBX 24 24 0 -2
BITMAP
000000
000000
000000
00FFF8
03FFF8
07FFF8
078000
0F0000
0E0000
0E0000
0E0000
0F0000
078000
07FFF8
03FFF8
00FFF8
000000
0FFFF8
0FFFF8
0FFFF8
000000
000000
000000
000000
ENDCHAR

STARTCHAR jisx0208_223D
ENCODING 8765
SWIDTH 960 0
DWIDTH 24 0
BBX 24 24 0 -2
BITMAP
000000
000000
000000
0FFF80
0FFFE0
0FFFF0
0000F0
000078
000038
000038
000038
000078
0000F0
0FFFF0
0FFFE0
0FFF80
000000
0FFFF8
0FFFF8
0FFFF8
000000
000000
000000
000000
ENDCHAR

STARTCHAR jisx0208_223E
ENCODING 8766
SWIDTH 960 0
DWIDTH 24 0
BBX 24 24 0 -2
BITMAP
000000
000000
000000
000000
00FFF8
03FFF8
07FFF8
078000
0F0000
0E0000
0E0000
0E0000
0E0000
0E0000
0F0000
078000
07FFF8
03FFF8
00FFF8
000000
000000
000000
000000
000000
ENDCHAR

STARTCHAR jisx0208_223F
ENCODING 8767
SWIDTH 960 0
DWIDTH 24 0
BBX 24 24 0 -2
BITMAP
000000
000000
000000
000000
0FFF80
0FFFE0
0FFFF0
0000F0
000078
000038
000038
000038
000038
000038
000078
0000F0
0FFFF0
0FFFE0
0FFF80
000000
000000
000000
000000
000000
ENDCHAR

STARTCHAR jisx0208_2240
ENCODING 8768
SWIDTH 960 0
DWIDTH 24 0
BBX 24 24 0 -2
BITMAP
000000
000000
000000
070070
070070
070070
070070
070070
070070
070070
070070
070070
070070
070070
070070
0780F0
03C1E0
03FFE0
01FFC0
007F00
000000
000000
000000
000000
ENDCHAR

STARTCHAR jisx0208_2241
ENCODING 8769
SWIDTH 960 0
DWIDTH 24 0
BBX 24 24 0 -2
BITMAP
000000
000000
000000
007F00
01FFC0
03FFE0
03C1E0
0780F0
070070
070070
070070
070070
070070
070070
070070
070070
070070
070070
070070
070070
000000
000000
000000
000000
ENDCHAR

STARTCHAR jisx0208_224A
ENCODING 8778
SWIDTH 960 0
DWIDTH 24 0
BBX 24 24 0 -2
BITMAP
000000
000000
000000
001C00
001C00
003E00
003E00
007F00
007700
00F780
00E380
01E3C0
01C1C0
03C1E0
0380E0
0780F0
070070
0F0078
0E0038
0E0038
000000
000000
000000
000000
ENDCHAR

STARTCHAR jisx0208_224B
ENCODING 8779
SWIDTH 960 0
DWIDTH 24 0
BBX 24 24 0 -2
BITMAP
000000
000000
000000
0E0038
0E0038
0F0078
070070
0780F0
0380E0
03C1E0
01C1C0
01E3C0
00E380
00F780
007700
007F00
003E00
003E00
001C00
001C00
000000
000000
000000
000000
ENDCHAR

STARTCHAR jisx0208_224C
ENCODING 8780
SWIDTH 960 0
DWIDTH 24 0
BBX 24 24 0 -2
BITMAP
000000
000000
000000
000000
000000
000000
000000
000000
1FFFFC
1FFFFC
1FFFFC
00001C
00001C
00001C
00001C
00001C
000000
000000
000000
000000
000000
000000
000000
000000
ENDCHAR

STARTCHAR jisx0208_224D
ENCODING 8781
SWIDTH 960 0
DWIDTH 24 0
BBX 24 24 0 -2
BITMAP
000000
000000
000300
000380
0003C0
0003E0
0001F0
7FFEF8
7FFFFC
7FFFFE
00001F
00000F
00001F
7FFFFE
7FFFFC
7FFFF8
0000F0
0003E0
0003C0
000380
000300
000000
000000
000000
ENDCHAR

STARTCHAR jisx0208_224E
ENCODING 8782
SWIDTH 960 0
DWIDTH 24 0
BBX 24 24 0 -2
BITMAP
000000
000000
006300
00E380
01E3C0
03E3E0
07C1F0
0FBEF8
1FFFFC
3FFFFE
7C001F
78000F
7C001F
3FFFFE
1FFFFC
0FFFF8
0780F0
03E3E0
01E3C0
00E380
006300
000000
000000
000000
ENDCHAR

STARTCHAR jisx0208_224F
ENCODING 8783
SWIDTH 960 0
DWIDTH 24 0
BBX 24 24 0 -2
BITMAP
000000
000000
000000
0E0038
0E0038
0F0078
07FFF0
07FFF0
03FFE0
0380E0
01C1C0
01E3C0
00E380
00F780
007700
007F00
003E00
003E00
001C00
001C00
000000
000000
000000
000000
ENDCHAR

STARTCHAR jisx0208_2250
ENCODING 8784
SWIDTH 960 0
DWIDTH 24 0
BBX 24 24 0 -2
BITMAP
000000
000000
000000
07FFE0
07FFE0
07FFE0
0000E0
0000E0
0000E0
0000E0
07FFE0
07FFE0
07FFE0
0000E0
0000E0
0000E0
0000E0
07FFE0
07FFE0
07FFE0
000000
000000
000000
000000
ENDCHAR

STARTCHAR jisx0208_225C
ENCODING 8796
SWIDTH 960 0
DWIDTH 24 0
BBX 24 24 0 -2
BITMAP
000000
000000
000030
000070
0000F0
0001F0
0003E0
0007C0
000F80
001F00
001E00
003C00
007C00
00F800
01F000
03E000
07C000
0FBFF8
0FFFF8
0FFFF8
000000
000000
000000
000000
ENDCHAR

STARTCHAR jisx0208_225D
ENCODING 8797
SWIDTH 960 0
DWIDTH 24 0
BBX 24 24 0 -2
BITMAP
000000
000000
000000
001C00
001C00
001C00
001C00
001C00
001C00
001C00
001C00
001C00
001C00
001C00
001C00
001C00
001C00
0FFFF8
0FFFF8
0FFFF8
000000
000000
000000
000000
ENDCHAR

STARTCHAR jisx0208_225E
ENCODING 8798
SWIDTH 960 0
DWIDTH 24 0
BBX 24 24 0 -2
BITMAP
00FF80
07FFF0
1FFFFC
3FC1FE
7E003F
78000F
300006
000000
000000
000000
000000
000000
000000
000000
000000
000000
000000
000000
000000
000000
000000
000000
000000
000000
ENDCHAR

STARTCHAR jisx0208_225F
ENCODING 8799
SWIDTH 960 0
DWIDTH 24 0
BBX 24 24 0 -2
BITMAP
000000
000000
003E00
00FF00
01FF80
01E380
00C3C0
0001C0
003DC0
00FFC0
01FFC0
01E3C0
03C1C0
0381C0
0381C0
0381C0
0383C0
03C780
01FF80
01FF00
007C00
000000
000000
000000
ENDCHAR

STARTCHAR jisx0208_2260
ENCODING 8800
SWIDTH 960 0
DWIDTH 24 0
BBX 24 24 0 -2
BITMAP
000000
000000
000000
1FFFFC
1FFFFC
1FFFFC
0E0018
0F0038
078070
0780F0
03C0E0
01C1C0
01E1C0
00F380
00F780
007700
003E00
003E00
001C00
001C00
000000
000000
000000
000000
ENDCHAR

STARTCHAR jisx0208_2261
ENCODING 8801
SWIDTH 960 0
DWIDTH 24 0
BBX 24 24 0 -2
BITMAP
000000
000000
000000
000000
000000
000000
0FFFF8
0FFFF8
0FFFF8
000000
0FFFF8
0FFFF8
0FFFF8
000000
0FFFF8
0FFFF8
0FFFF8
000000
000000
000000
000000
000000
000000
000000
ENDCHAR

STARTCHAR jisx0208_2262
ENCODING 8802
SWIDTH 960 0
DWIDTH 24 0
BBX 24 24 0 -2
BITMAP
000000
000000
000000
01E000
01E000
01E000
01E000
000000
0FFFF8
0FFFF8
0FFFF8
000000
0FFFF8
0FFFF8
0FFFF8
000000
0003C0
0003C0
0003C0
0003C0
000000
000000
000000
000000
ENDCHAR

STARTCHAR jisx0208_2263
ENCODING 8803
SWIDTH 960 0
DWIDTH 24 0
BBX 24 24 0 -2
BITMAP
000000
000000
000C30
001E78
003EF8
007DF0
00FBE0
01F7C0
03EF80
07DF00
0FBE00
0F3C00
0FBE00
07DF00
03EF80
01F7C0
00FBE0
007DF0
003EF8
001E78
000C30
000000
000000
000000
ENDCHAR

STARTCHAR jisx0208_2264
ENCODING 8804
SWIDTH 960 0
DWIDTH 24 0
BBX 24 24 0 -2
BITMAP
000000
000000
061800
0F3C00
0FBE00
07DF00
03EF80
01F7C0
00FBE0
007DF0
003EF8
001E78
003EF8
007DF0
00FBE0
01F7C0
03EF80
07DF00
0FBE00
0F3C00
061800
000000
000000
000000
ENDCHAR

STARTCHAR jisx0208_2265
ENCODING 8805
SWIDTH 960 0
DWIDTH 24 0
BBX 24 24 0 -2
BITMAP
000FFF
000FFF
000FFF
001E00
001C00
001C00
001C00
003C00
003800
003800
007800
007000
0E7000
1E7000
3EF000
7EE000
77E000
33E000
03C000
01C000
01C000
000000
000000
000000
ENDCHAR

STARTCHAR jisx0208_2266
ENCODING 8806
SWIDTH 960 0
DWIDTH 24 0
BBX 24 24 0 -2
BITMAP
000000
000000
000000
000000
000000
0F00F8
3FC3FE
3FE7FE
79EF8F
70DF07
701E07
703C07
707D87
78FBCF
3FF3FE
3FE1FE
0F8078
000000
000000
000000
000000
000000
000000
000000
ENDCHAR

STARTCHAR jisx0208_2267
ENCODING 8807
SWIDTH 960 0
DWIDTH 24 0
BBX 24 24 0 -2
BITMAP
000000
000000
000000
000000
000000
0F80F8
3FE3FE
3FF7FE
78FF8E
707F00
703E00
701C00
707F00
78FF8E
3FF7FE
3FE3FE
0F80F8
000000
000000
000000
000000
000000
000000
000000
ENDCHAR

STARTCHAR jisx0208_2268
ENCODING 8808
SWIDTH 960 0
DWIDTH 24 0
BBX 24 24 0 -2
BITMAP
000000
000000
000000
0E0038
1F007C
1F007C
1F007C
0E0038
000000
000000
000000
000000
000000
000000
000000
001C00
003E00
003E00
003E00
001C00
000000
000000
000000
000000
ENDCHAR

STARTCHAR jisx0208_2269
ENCODING 8809
SWIDTH 960 0
DWIDTH 24 0
BBX 24 24 0 -2
BITMAP
001F00
003F80
007FC0
007BC0
007180
007000
007800
003800
003800
003800
003800
003C00
001C00
001C00
001C00
001C00
001E00
000E00
018E00
03DE00
03FE00
01FC00
00F800
000000
ENDCHAR

STARTCHAR jisx0208_226A
ENCODING 8810
SWIDTH 960 0
DWIDTH 24 0
BBX 24 24 0 -2
BITMAP
01F0F8
03F9FC
07FBFE
07BBDE
071B8C
070380
0783C0
0381C0
0381C0
0381C0
0381C0
03C1E0
01C0E0
01C0E0
01C0E0
01C0E0
01E0F0
00E070
18EC70
3DFEF0
3FDFF0
1FCFE0
0F87C0
000000
ENDCHAR

STARTCHAR jisx0208_2272
ENCODING 8818
SWIDTH 960 0
DWIDTH 24 0
BBX 24 24 0 -2
BITMAP
001C00
003E00
003600
003E00
001C00
000000
003E00
003E00
007F00
007700
00F780
00E380
01E3C0
01C1C0
03FFE0
03FFE0
07FFF0
070070
0F0078
0E0038
0E0038
000000
000000
000000
ENDCHAR

STARTCHAR jisx0208_2273
ENCODING 8819
SWIDTH 960 0
DWIDTH 24 0
BBX 24 24 0 -2
BITMAP
000000
000000
1E0C00
3F1E00
7F9E00
73BC00
73B800
7FF800
3F7000
1EF000
01E000
01C000
03C000
07BC3C
07FE7E
0F7EFF
0EE6E7
1EE6E7
3CFEFF
3C7E7E
183C3C
000000
000000
000000
ENDCHAR

STARTCHAR jisx0208_2274
ENCODING 8820
SWIDTH 960 0
DWIDTH 24 0
BBX 24 24 0 -2
BITMAP
000000
0001C0
0001C0
01C1C0
01C1C0
01C1F8
01FFF8
0FFFF8
0FFFC0
0FC1C0
01C1C0
01C1C0
01C1C0
01C1F8
01FFF8
0FFFF8
0FFFC0
0FC1C0
01C1C0
01C1C0
01C000
01C000
000000
000000
ENDCHAR

STARTCHAR jisx0208_2275
ENCODING 8821
SWIDTH 960 0
DWIDTH 24 0
BBX 24 24 0 -2
BITMAP
000000
00E000
00E000
00E000
00E000
00E000
00E000
00E000
00FF80
00DFC0
00FFE0
00F1E0
00E0E0
00E0E0
00E1E0
00E3E0
00E7C0
00FF80
00DF00
00FE00
00F800
00E000
000000
000000
ENDCHAR

STARTCHAR jisx0208_2276
ENCODING 8822
SWIDTH 960 0
DWIDTH 24 0
BBX 24 24 0 -2
BITMAP
000000
001C00
001E00
001F00
001F80
001FC0
001BE0
001DE0
001CF0
001CF0
001C70
001C70
001CF0
001CF0
001DE0
001FE0
00FBC0
01FD80
03FC00
03FC00
03F800
01F000
000000
000000
ENDCHAR

STARTCHAR jisx0208_2277
ENCODING 8823
SWIDTH 960 0
DWIDTH 24 0
BBX 24 24 0 -2
BITMAP
001800
003C00
003C00
003C00
01DB80
03FFC0
03FFC0
01DB80
003C00
003C00
003C00
003C00
003C00
001800
001800
001800
001800
001800
001800
003C00
003C00
003C00
003C00
000000
ENDCHAR

STARTCHAR jisx0208_2278
ENCODING 8824
SWIDTH 960 0
DWIDTH 24 0
BBX 24 24 0 -2
BITMAP
001800
003C00
003C00
003C00
01DB80
03FFC0
03FFC0
01DB80
003C00
003C00
003C00
001800
003C00
003C00
003C00
01DB80
03FFC0
03FFC0
01DB80
003C00
003C00
003C00
001800
000000
ENDCHAR

STARTCHAR jisx0208_2279
ENCODING 8825
SWIDTH 960 0
DWIDTH 24 0
BBX 24 24 0 -2
BITMAP
007FE0
01FFE0
01FFE0
03FDC0
03FDC0
03FDC0
03FDC0
03FDC0
01FDC0
01FDC0
007DC0
001DC0
001DC0
001DC0
001DC0
001DC0
001DC0
001DC0
001DC0
001DC0
001DC0
001DC0
001DC0
000000
ENDCHAR

STARTCHAR jisx0208_227E
ENCODING 8830
SWIDTH 960 0
DWIDTH 24 0
BBX 24 24 0 -2
BITMAP
00FF80
03FFE0
07FFF0
0FC1F8
1F007C
3E003E
3C001E
78000F
78000F
700007
700007
700007
700007
700007
78000F
78000F
3C001E
3E003E
1F007C
0FC1F8
07FFF0
03FFE0
00FF80
000000
ENDCHAR

STARTCHAR jisx0208_2330
ENCODING 9008
SWIDTH 960 0
DWIDTH 24 0
BBX 24 24 0 -2
BITMAP
000000
000000
007F00
01FFC0
03FFE0
03C1E0
0780F0
070070
070070
070070
070070
070070
070070
070070
070070
070070
0780F0
03C1E0
03FFE0
01FFC0
007F00
000000
000000
000000
ENDCHAR

STARTCHAR jisx0208_2331
ENCODING 9009
SWIDTH 960 0
DWIDTH 24 0
BBX 24 24 0 -2
BITMAP
000000
000000
001C00
007C00
01FC00
01FC00
01DC00
001C00
001C00
001C00
001C00
001C00
001C00
001C00
001C00
001C00
001C00
001C00
001C00
001C00
001C00
000000
000000
000000
ENDCHAR

STARTCHAR jisx0208_2332
ENCODING 9010
SWIDTH 960 0
DWIDTH 24 0
BBX 24 24 0 -2
BITMAP
000000
000000
007E00
01FF80
03FFC0
03C3C0
0781E0
0700E0
0700E0
0001E0
0003C0
000FC0
003F80
00FE00
01F800
03E000
03C000
078000
077FE0
07FFE0
07FFE0
000000
000000
000000
ENDCHAR

STARTCHAR jisx0208_2333
ENCODING 9011
SWIDTH 960 0
DWIDTH 24 0
BBX 24 24 0 -2
BITMAP
000000
000000
00FF00
03FFC0
03FFC0
0781E0
0700E0
0700E0
0001E0
007FC0
007F80
007FE0
0001E0
0000F0
0E0070
0E0070
0F00F0
0781E0
07FFE0
03FFC0
00FF00
000000
000000
000000
ENDCHAR

STARTCHAR jisx0208_2334
ENCODING 9012
SWIDTH 960 0
DWIDTH 24 0
BBX 24 24 0 -2
BITMAP
000000
000000
000380
000780
000F80
001F80
001F80
003B80
007B80
00FB80
00F380
01E380
03C380
07C380
0F8380
0F7FF0
0FFFF0
0FFFF0
000380
000380
000380
000000
000000
000000
ENDCHAR

STARTCHAR jisx0208_2335
ENCODING 9013
SWIDTH 960 0
DWIDTH 24 0
BBX 24 24 0 -2
BITMAP
000000
000000
01FFE0
01FFE0
01FFE0
01C000
01C000
03C000
03BF00
037FC0
03FFE0
03C1E0
0380F0
000070
000070
070070
0780F0
07C1E0
03FFE0
01FFC0
007F00
000000
000000
000000
ENDCHAR

STARTCHAR jisx0208_2336
ENCODING 9014
SWIDTH 960 0
DWIDTH 24 0
BBX 24 24 0 -2
BITMAP
000000
000000
007F00
01FFC0
03FFE0
03C1E0
0780E0
070000
077F00
07FFC0
07FFE0
07C1E0
0780F0
070070
070070
070070
0780F0
03C1E0
03FFE0
01FFC0
007F00
000000
000000
000000
ENDCHAR

STARTCHAR jisx0208_2337
ENCODING 9015
SWIDTH 960 0
DWIDTH 24 0
BBX 24 24 0 -2
BITMAP
000000
000000
07FFF0
07FFF0
07FFF0
0000E0
0001C0
0003C0
000380
000780
000700
000F00
000E00
000E00
001E00
001C00
001C00
003C00
003800
003800
003800
000000
000000
000000
ENDCHAR

STARTCHAR jisx0208_2338
ENCODING 9016
SWIDTH 960 0
DWIDTH 24 0
BBX 24 24 0 -2
BITMAP
000000
000000
00FF00
03FFC0
03FFC0
0781E0
0700E0
0700E0
0781E0
03FFC0
01FF80
07FFE0
0781E0
0F00F0
0E0070
0E0070
0F00F0
0781E0
07FFE0
03FFC0
00FF00
000000
000000
000000
ENDCHAR

STARTCHAR jisx0208_2339
ENCODING 9017
SWIDTH 960 0
DWIDTH 24 0
BBX 24 24 0 -2
BITMAP
000000
000000
007F00
01FFC0
03FFE0
03C1E0
0780F0
070070
070070
070070
0780F0
03C1F0
03FFF0
01FFF0
007F70
000070
0380F0
03C1E0
03FFE0
01FFC0
007F00
000000
000000
000000
ENDCHAR

STARTCHAR jisx0208_2341
ENCODING 9025
SWIDTH 960 0
DWIDTH 24 0
BBX 24 24 0 -2
BITMAP
000000
000000
001C00
001C00
003E00
003E00
007F00
007700
007700
00F780
00E380
01E3C0
01C1C0
03C1E0
03BEE0
03FFE0
07FFF0
070070
0F0078
0E0038
0E0038
000000
000000
000000
ENDCHAR

STARTCHAR jisx0208_2342
ENCODING 9026
SWIDTH 960 0
DWIDTH 24 0
BBX 24 24 0 -2
BITMAP
000000
000000
07FF00
07FFC0
07FFC0
0701E0
0700E0
0700E0
0701E0
07FFC0
07FF80
07FFE0
0701E0
0700F0
070070
070070
070070
0700F0
07FFE0
07FFE0
07FF80
000000
000000
000000
ENDCHAR

STARTCHAR jisx0208_2343
ENCODING 9027
SWIDTH 960 0
DWIDTH 24 0
BBX 24 24 0 -2
BITMAP
000000
000000
007E00
01FF80
03FFC0
07C3E0
0701E0
0F00E0
0E0000
0E0000
0E0000
0E0000
0E0000
0E0070
0E0070
0F00F0
0700E0
07C3E0
03FFC0
01FF80
007E00
000000
000000
000000
ENDCHAR

STARTCHAR jisx0208_2344
ENCODING 9028
SWIDTH 960 0
DWIDTH 24 0
BBX 24 24 0 -2
BITMAP
000000
000000
07FE00
07FF80
07FFC0
0703E0
0700E0
0700F0
070070
070070
070070
070070
070070
070070
070070
0700F0
0700E0
0703E0
07FFC0
07FF80
07FE00
000000
000000
000000
ENDCHAR

STARTCHAR jisx0208_2345
ENCODING 9029
SWIDTH 960 0
DWIDTH 24 0
BBX 24 24 0 -2
BITMAP
000000
000000
03FFF0
03FFF0
03FFF0
038000
038000
038000
038000
03FFC0
03FFC0
03FFC0
038000
038000
038000
038000
038000
038000
03FFF0
03FFF0
03FFF0
000000
000000
000000
ENDCHAR

STARTCHAR jisx0208_2346
ENCODING 9030
SWIDTH 960 0
DWIDTH 24 0
BBX 24 24 0 -2
BITMAP
000000
000000
03FFF0
03FFF0
03FFF0
038000
038000
038000
038000
03FFC0
03FFC0
03FFC0
038000
038000
038000
038000
038000
038000
038000
038000
038000
000000
000000
000000
ENDCHAR

STARTCHAR jisx0208_2347
ENCODING 9031
SWIDTH 960 0
DWIDTH 24 0
BBX 24 24 0 -2
BITMAP
000000
000000
007E00
01FF80
03FFC0
07C3E0
0701E0
0F00E0
0E0000
0E0000
0E0000
0E0FF0
0E0FF0
0E0FF0
0E0070
0F0070
0700F0
07C3F0
03FFF0
01FF70
007E70
000000
000000
000000
ENDCHAR

STARTCHAR jisx0208_2348
ENCODING 9032
SWIDTH 960 0
DWIDTH 24 0
BBX 24 24 0 -2
BITMAP
000000
000000
070070
070070
070070
070070
070070
070070
070070
07FFF0
07FFF0
07FFF0
070070
070070
070070
070070
070070
070070
070070
070070
070070
000000
000000
000000
ENDCHAR

STARTCHAR jisx0208_2349
ENCODING 9033
SWIDTH 960 0
DWIDTH 24 0
BBX 24 24 0 -2
BITMAP
000000
000000
007F00
007F00
007F00
001C00
001C00
001C00
001C00
001C00
001C00
001C00
001C00
001C00
001C00
001C00
001C00
001C00
007F00
007F00
007F00
000000
000000
000000
ENDCHAR

STARTCHAR jisx0208_234A
ENCODING 9034
SWIDTH 960 0
DWIDTH 24 0
BBX 24 24 0 -2
BITMAP
000000
000000
0001C0
0001C0
0001C0
0001C0
0001C0
0001C0
0001C0
0001C0
0001C0
0001C0
0001C0
0001C0
0381C0
0381C0
0381C0
03C3C0
01FF80
01FF80
007E00
000000
000000
000000
ENDCHAR

STARTCHAR jisx0208_234B
ENCODING 9035
SWIDTH 960 0
DWIDTH 24 0
BBX 24 24 0 -2
BITMAP
000000
000000
0701E0
0703E0
0707C0
070F80
071F00
073E00
077C00
07F800
06F000
07FC00
07BC00
079E00
070F00
070F80
070780
0703C0
0701E0
0701F0
0700F0
000000
000000
000000
ENDCHAR

STARTCHAR jisx0208_234C
ENCODING 9036
SWIDTH 960 0
DWIDTH 24 0
BBX 24 24 0 -2
BITMAP
000000
000000
038000
038000
038000
038000
038000
038000
038000
038000
038000
038000
038000
038000
038000
038000
038000
038000
03FFF0
03FFF0
03FFF0
000000
000000
000000
ENDCHAR

STARTCHAR jisx0208_234D
ENCODING 9037
SWIDTH 960 0
DWIDTH 24 0
BBX 24 24 0 -2
BITMAP
000000
000000
0E0038
0E0038
0F0078
0F0078
0F80F8
0F80F8
0F80F8
0FC1F8
0DC1B8
0FE3B8
0EE3B8
0EF7B8
0E7738
0E7738
0E7F38
0E3E38
0E3E38
0E1C38
0E1C38
000000
000000
000000
ENDCHAR

STARTCHAR jisx0208_234E
ENCODING 9038
SWIDTH 960 0
DWIDTH 24 0
BBX 24 24 0 -2
BITMAP
000000
000000
070070
078070
07C070
07C070
07E070
06F070
07F070
077870
073C70
073E70
071E70
070F70
070770
070770
0703F0
0701F0
0701F0
0700F0
070070
000000
000000
000000
ENDCHAR

STARTCHAR jisx0208_234F
ENCODING 9039
SWIDTH 960 0
DWIDTH 24 0
BBX 24 24 0 -2
BITMAP
000000
000000
007E00
01FF80
03FFC0
07C3E0
0700E0
0F00F0
0E0070
0E0070
0E0070
0E0070
0E0070
0E0070
0E0070
0F00F0
0700E0
07C3E0
03FFC0
01FF80
007E00
000000
000000
000000
ENDCHAR

STARTCHAR jisx0208_2350
ENCODING 9040
SWIDTH 960 0
DWIDTH 24 0
BBX 24 24 0 -2
BITMAP
000000
000000
03FF80
03FFE0
03FFE0
0380F0
038070
038070
038070
038070
0380F0
03FFE0
03FFE0
03FF80
038000
038000
038000
038000
038000
038000
038000
000000
000000
000000
ENDCHAR

STARTCHAR jisx0208_2351
ENCODING 9041
SWIDTH 960 0
DWIDTH 24 0
BBX 24 24 0 -2
BITMAP
000000
000000
007E00
01FF80
03FFC0
07C3E0
0700E0
0F00F0
0E0070
0E0070
0E0070
0E0070
0E0070
0E0070
0E0670
0F0EF0
070FE0
07C7E0
03FBC0
01FFE0
007EC0
000000
000000
000000
ENDCHAR

STARTCHAR jisx0208_2352
ENCODING 9042
SWIDTH 960 0
DWIDTH 24 0
BBX 24 24 0 -2
BITMAP
000000
000000
07FF00
07FFC0
07FFC0
0701E0
0700E0
0700E0
0700E0
0700E0
0701E0
07FFC0
07FFC0
07FF80
0703C0
0701C0
0701E0
0700E0
0700F0
070070
070070
000000
000000
000000
ENDCHAR

STARTCHAR jisx0208_2353
ENCODING 9043
SWIDTH 960 0
DWIDTH 24 0
BBX 24 24 0 -2
BITMAP
000000
000000
00FF00
03FFC0
03FFC0
0781E0
0700E0
0700E0
07C000
03F800
01FF00
007FC0
000FE0
0001F0
070070
070070
078070
03C0F0
03FFE0
01FFE0
007F80
000000
000000
000000
ENDCHAR

STARTCHAR jisx0208_2354
ENCODING 9044
SWIDTH 960 0
DWIDTH 24 0
BBX 24 24 0 -2
BITMAP
000000
000000
0FFFF8
0FFFF8
0FFFF8
001C00
001C00
001C00
001C00
001C00
001C00
001C00
001C00
001C00
001C00
001C00
001C00
001C00
001C00
001C00
001C00
000000
000000
000000
ENDCHAR

STARTCHAR jisx0208_2355
ENCODING 9045
SWIDTH 960 0
DWIDTH 24 0
BBX 24 24 0 -2
BITMAP
000000
000000
070070
070070
070070
070070
070070
070070
070070
070070
070070
070070
070070
070070
070070
070070
0780F0
03C1E0
03FFE0
01FFC0
007F00
000000
000000
000000
ENDCHAR

STARTCHAR jisx0208_2356
ENCODING 9046
SWIDTH 960 0
DWIDTH 24 0
BBX 24 24 0 -2
BITMAP
000000
000000
0E0038
0E0038
0F0078
070070
0780F0
0380E0
0380E0
03C1E0
01C1C0
01E3C0
00E380
00F780
007700
007700
007F00
003E00
003E00
001C00
001C00
000000
000000
000000
ENDCHAR

STARTCHAR jisx0208_2357
ENCODING 9047
SWIDTH 960 0
DWIDTH 24 0
BBX 24 24 0 -2
BITMAP
000000
000000
381C0E
381C0E
381C0E
3C3E1E
1C3E1C
1C3E1C
1E3E3C
0E7F38
0E7738
0F7778
077770
07F770
06E3F0
03E3E0
03E3E0
03E3E0
01C1C0
01C1C0
01C1C0
000000
000000
000000
ENDCHAR

STARTCHAR jisx0208_2358
ENCODING 9048
SWIDTH 960 0
DWIDTH 24 0
BBX 24 24 0 -2
BITMAP
000000
000000
0780F0
07C1F0
03C1E0
01E3C0
00F780
00F780
007F00
003E00
003E00
001C00
007F00
007F00
00F780
01E3C0
01E3C0
03C1E0
0780F0
0F80F8
0F0078
000000
000000
000000
ENDCHAR

STARTCHAR jisx0208_2359
ENCODING 9049
SWIDTH 960 0
DWIDTH 24 0
BBX 24 24 0 -2
BITMAP
000000
000000
070070
070070
0780F0
0380E0
03C1E0
01C1C0
01E3C0
00E380
00F780
007700
007F00
003E00
003E00
001C00
001C00
001C00
001C00
001C00
001C00
000000
000000
000000
ENDCHAR

STARTCHAR jisx0208_235A
ENCODING 9050
SWIDTH 960 0
DWIDTH 24 0
BBX 24 24 0 -2
BITMAP
000000
000000
03FFE0
03FFE0
03FFE0
0001C0
000780
000780
000F00
001E00
001E00
003C00
007800
007800
00F000
01E000
01E000
03C000
07BFE0
07FFE0
07FFE0
000000
000000
000000
ENDCHAR

STARTCHAR jisx0208_2361
ENCODING 9057
SWIDTH 960 0
DWIDTH 24 0
BBX 24 24 0 -2
BITMAP
000000
000000
000000
000000
000000
000000
000000
007E00
01FF80
03FF80
03C3C0
0381C0
007FC0
01FFC0
01FFC0
03C1C0
0381C0
03C7C0
03FFC0
01FFC0
00FDC0
000000
000000
000000
ENDCHAR

STARTCHAR jisx0208_2362
ENCODING 9058
SWIDTH 960 0
DWIDTH 24 0
BBX 24 24 0 -2
BITMAP
000000
000000
038000
038000
038000
038000
038000
03BE00
03FF80
03FFC0
03E3C0
03C1E0
0380E0
0380E0
0380E0
0380E0
03C1E0
03E3C0
03FFC0
03FF80
03BE00
000000
000000
000000
ENDCHAR

STARTCHAR jisx0208_2363
ENCODING 9059
SWIDTH 960 0
DWIDTH 24 0
BBX 24 24 0 -2
BITMAP
000000
000000
000000
000000
000000
000000
000000
003E00
00FF80
01FFC0
01E3E0
03C1E0
0380E0
038000
038000
0380E0
03C1E0
01E3E0
01FFC0
00FF80
003E00
000000
000000
000000
ENDCHAR

STARTCHAR jisx0208_2364
ENCODING 9060
SWIDTH 960 0
DWIDTH 24 0
BBX 24 24 0 -2
BITMAP
000000
000000
0000E0
0000E0
0000E0
0000E0
0000E0
003EE0
00FFE0
01FFE0
01E3E0
03C1E0
0380E0
0380E0
0380E0
0380E0
03C1E0
01E3E0
01FFE0
00FFE0
003EE0
000000
000000
000000
ENDCHAR

STARTCHAR jisx0208_2365
ENCODING 9061
SWIDTH 960 0
DWIDTH 24 0
BBX 24 24 0 -2
BITMAP
000000
000000
000000
000000
000000
000000
000000
003E00
00FF80
01FFC0
01E3C0
03C1E0
03BEE0
03FFE0
03FFE0
038000
03C0E0
01E1E0
01FFE0
00FFC0
003F00
000000
000000
000000
ENDCHAR

STARTCHAR jisx0208_2366
ENCODING 9062
SWIDTH 960 0
DWIDTH 24 0
BBX 24 24 0 -2
BITMAP
000000
000000
001F80
003F80
003F80
003800
003800
01FF80
01FF80
01FF80
003800
003800
003800
003800
003800
003800
003800
003800
003800
003800
003800
000000
000000
000000
ENDCHAR

STARTCHAR jisx0208_2367
ENCODING 9063
SWIDTH 960 0
DWIDTH 24 0
BBX 24 24 0 -2
BITMAP
000000
000000
000000
000000
000000
000000
000000
007DC0
01FFC0
01FFC0
03C3C0
0381C0
0381C0
0381C0
03C3C0
01FFC0
01FFC0
007DC0
0381C0
03C3C0
03FF80
01FF80
007E00
000000
ENDCHAR

STARTCHAR jisx0208_2368
ENCODING 9064
SWIDTH 960 0
DWIDTH 24 0
BBX 24 24 0 -2
BITMAP
000000
000000
038000
038000
038000
038000
038000
03BF00
03FF80
037FC0
03E3C0
03C1C0
0381C0
0381C0
0381C0
0381C0
0381C0
0381C0
0381C0
0381C0
0381C0
000000
000000
000000
ENDCHAR

STARTCHAR jisx0208_2369
ENCODING 9065
SWIDTH 960 0
DWIDTH 24 0
BBX 24 24 0 -2
BITMAP
000000
000000
001C00
001C00
001C00
001C00
000000
001C00
001C00
001C00
001C00
001C00
001C00
001C00
001C00
001C00
001C00
001C00
001C00
001C00
001C00
000000
000000
000000
ENDCHAR

STARTCHAR jisx0208_236A
ENCODING 9066
SWIDTH 960 0
DWIDTH 24 0
BBX 24 24 0 -2
BITMAP
000000
000000
000E00
000E00
000E00
000E00
000000
000E00
000E00
000E00
000E00
000E00
000E00
000E00
000E00
000E00
000E00
000E00
000E00
000E00
00FE00
00FE00
00FC00
000000
ENDCHAR

STARTCHAR jisx0208_236B
ENCODING 9067
SWIDTH 960 0
DWIDTH 24 0
BBX 24 24 0 -2
BITMAP
000000
000000
038000
038000
038000
038000
038000
038780
038F80
039F00
03BE00
03FC00
037800
03FC00
03DE00
03CF00
038F00
038780
0383C0
0383C0
0381C0
000000
000000
000000
ENDCHAR

STARTCHAR jisx0208_236C
ENCODING 9068
SWIDTH 960 0
DWIDTH 24 0
BBX 24 24 0 -2
BITMAP
000000
000000
001C00
001C00
001C00
001C00
001C00
001C00
001C00
001C00
001C00
001C00
001C00
001C00
001C00
001C00
001C00
001C00
001F00
001F00
001F00
000000
000000
000000
ENDCHAR

STARTCHAR jisx0208_236D
ENCODING 9069
SWIDTH 960 0
DWIDTH 24 0
BBX 24 24 0 -2
BITMAP
000000
000000
000000
000000
000000
000000
000000
0DF3E0
0FF7F0
0FFFF8
0F3E78
0E1C38
0E1C38
0E1C38
0E1C38
0E1C38
0E1C38
0E1C38
0E1C38
0E1C38
0E1C38
000000
000000
000000
ENDCHAR

STARTCHAR jisx0208_236E
ENCODING 9070
SWIDTH 960 0
DWIDTH 24 0
BBX 24 24 0 -2
BITMAP
000000
000000
000000
000000
000000
000000
000000
03BF00
03FF80
037FC0
03E3C0
03C1C0
0381C0
0381C0
0381C0
0381C0
0381C0
0381C0
0381C0
0381C0
0381C0
000000
000000
000000
ENDCHAR

STARTCHAR jisx0208_236F
ENCODING 9071
SWIDTH 960 0
DWIDTH 24 0
BBX 24 24 0 -2
BITMAP
000000
000000
000000
000000
000000
000000
000000
007E00
01FF80
03FFC0
03C3C0
0781E0
0700E0
0700E0
0700E0
0700E0
0781E0
03C3C0
03FFC0
01FF80
007E00
000000
000000
000000
ENDCHAR

STARTCHAR jisx0208_2370
ENCODING 9072
SWIDTH 960 0
DWIDTH 24 0
BBX 24 24 0 -2
BITMAP
000000
000000
000000
000000
000000
000000
000000
01BF00
01FFC0
01FFC0
01E1E0
01C0E0
01C0E0
01C0E0
01C0E0
01C0E0
01E1E0
01FFC0
01FFC0
01BF00
01C000
01C000
01C000
000000
ENDCHAR

STARTCHAR jisx0208_2371
ENCODING 9073
SWIDTH 960 0
DWIDTH 24 0
BBX 24 24 0 -2
BITMAP
000000
000000
000000
000000
000000
000000
000000
007DC0
01FFC0
01FFC0
03C3C0
0381C0
0381C0
0381C0
0381C0
0381C0
03C3C0
01FFC0
01FFC0
007DC0
0001C0
0001C0
0001C0
000000
ENDCHAR

STARTCHAR jisx0208_2372
ENCODING 9074
SWIDTH 960 0
DWIDTH 24 0
BBX 24 24 0 -2
BITMAP
000000
000000
000000
000000
000000
000000
000000
0073C0
007FC0
006FC0
007E00
007800
007000
007000
007000
007000
007000
007000
007000
007000
007000
000000
000000
000000
ENDCHAR

STARTCHAR jisx0208_2373
ENCODING 9075
SWIDTH 960 0
DWIDTH 24 0
BBX 24 24 0 -2
BITMAP
000000
000000
000000
000000
000000
000000
000000
00FE00
01FF00
03FF80
038380
03C380
03F800
01FE00
007F80
000FC0
0383C0
03C1C0
03FFC0
01FF80
007F00
000000
000000
000000
ENDCHAR

STARTCHAR jisx0208_2374
ENCODING 9076
SWIDTH 960 0
DWIDTH 24 0
BBX 24 24 0 -2
BITMAP
000000
000000
003800
003800
003800
003800
003800
01FF80
01FF80
01FF80
003800
003800
003800
003800
003800
003800
003800
003800
003F80
003F80
001F80
000000
000000
000000
ENDCHAR

STARTCHAR jisx0208_2375
ENCODING 9077
SWIDTH 960 0
DWIDTH 24 0
BBX 24 24 0 -2
BITMAP
000000
000000
000000
000000
000000
000000
000000
0381C0
0381C0
0381C0
0381C0
0381C0
0381C0
0381C0
0381C0
0381C0
0383C0
03C7C0
03FFC0
01FDC0
00FDC0
000000
000000
000000
ENDCHAR

STARTCHAR jisx0208_2376
ENCODING 9078
SWIDTH 960 0
DWIDTH 24 0
BBX 24 24 0 -2
BITMAP
000000
000000
000000
000000
000000
000000
000000
0380E0
0380E0
03C1E0
01C1C0
01E3C0
00E380
00E380
00F780
007700
007F00
003E00
003E00
001C00
001C00
000000
000000
000000
ENDCHAR

STARTCHAR jisx0208_2377
ENCODING 9079
SWIDTH 960 0
DWIDTH 24 0
BBX 24 24 0 -2
BITMAP
000000
000000
000000
000000
000000
000000
000000
0E1C38
0E1C38
0F1C78
073E70
073E70
07BEF0
03FEE0
0376E0
03F7E0
01F7C0
01F7C0
01E3C0
00E380
00E380
000000
000000
000000
ENDCHAR

STARTCHAR jisx0208_2378
ENCODING 9080
SWIDTH 960 0
DWIDTH 24 0
BBX 24 24 0 -2
BITMAP
000000
000000
000000
000000
000000
000000
000000
0381C0
03C3C0
03E7C0
01E780
00EF00
007E00
007E00
003C00
00FF00
00EF00
01E780
03C3C0
03C3C0
0381C0
000000
000000
000000
ENDCHAR

STARTCHAR jisx0208_2379
ENCODING 9081
SWIDTH 960 0
DWIDTH 24 0
BBX 24 24 0 -2
BITMAP
000000
000000
000000
000000
000000
000000
000000
0381C0
0381C0
03C3C0
01C380
01E780
00E700
00E700
00EF00
006E00
007E00
003C00
003C00
007800
03F800
03F000
03E000
000000
ENDCHAR

STARTCHAR jisx0208_237A
ENCODING 9082
SWIDTH 960 0
DWIDTH 24 0
BBX 24 24 0 -2
BITMAP
000000
000000
000000
000000
000000
000000
000000
01FFC0
01FFC0
01FFC0
000780
000F00
001E00
003E00
003C00
007800
00F000
01F000
03EFC0
03FFC0
03FFC0
000000
000000
000000
ENDCHAR

STARTCHAR jisx0208_2421
ENCODING 9249
SWIDTH 960 0
DWIDTH 24 0
BBX 24 24 0 -2
BITMAP
000000
000000
000000
000000
000000
007000
007000
007780
07FF80
07FF80
07FC00
00E700
01FFC0
03FFE0
07EDF0
07FEF0
0EDC70
0EFC70
0E78F0
0FF1F0
0FFFE0
07AFC0
000F00
000000
ENDCHAR

STARTCHAR jisx0208_2422
ENCODING 9250
SWIDTH 960 0
DWIDTH 24 0
BBX 24 24 0 -2
BITMAP
007000
007000
0073E0
0FFFE0
0FFFE0
0FFE00
00E180
00FFC0
01FFF0
07FFF8
0FE77C
1EEF1C
1EEE1E
3CFE0E
38DC0E
38FC0E
38781E
39F03C
3FF87C
3FB1F8
1F0FF0
000FC0
000F00
000000
ENDCHAR

STARTCHAR jisx0208_2423
ENCODING 9251
SWIDTH 960 0
DWIDTH 24 0
BBX 24 24 0 -2
BITMAP
000000
000000
000000
000000
000000
000000
000000
070000
0700C0
0F01E0
0F01E0
0E00F0
0E00F0
0E0078
0E0078
0E0038
0F3838
0F3838
077800
07F000
03F000
01E000
000000
000000
ENDCHAR

STARTCHAR jisx0208_2424
ENCODING 9252
SWIDTH 960 0
DWIDTH 24 0
BBX 24 24 0 -2
BITMAP
000000
000000
1C0000
1C0000
1C0030
3C0078
3C0078
38003C
38003C
38001C
38001E
38001E
38000E
3C000E
3C000E
1C700E
1E700E
1E7000
0EF000
0FE000
07E000
03C000
000000
000000
ENDCHAR

STARTCHAR jisx0208_2425
ENCODING 9253
SWIDTH 960 0
DWIDTH 24 0
BBX 24 24 0 -2
BITMAP
000000
000000
000000
000000
000000
000000
00F000
00FF80
00FF80
001F80
002000
07FFC0
07FFE0
07E1E0
0000E0
0000E0
0000E0
0001E0
0003C0
000FC0
007F80
007F00
007C00
000000
ENDCHAR

STARTCHAR jisx0208_2426
ENCODING 9254
SWIDTH 960 0
DWIDTH 24 0
BBX 24 24 0 -2
BITMAP
01F000
01FFC0
01FFC0
001FC0
000000
003FC0
1FFFF0
1FFFF0
1FE078
000038
000038
000038
000038
000078
000078
0000F0
0001F0
0007E0
001FC0
00FF80
00FE00
00F800
000000
000000
ENDCHAR

STARTCHAR jisx0208_2427
ENCODING 9255
SWIDTH 960 0
DWIDTH 24 0
BBX 24 24 0 -2
BITMAP
000000
000000
000000
000000
000000
00F000
00FF80
00FF80
001F80
000000
03FFC0
03FFC0
03F780
000F00
003E00
007C00
00FF00
01FF00
03E700
07C700
0F87F8
0F07F8
0603F8
000000
ENDCHAR

STARTCHAR jisx0208_2428
ENCODING 9256
SWIDTH 960 0
DWIDTH 24 0
BBX 24 24 0 -2
BITMAP
01F000
01FF80
01FF80
001F80
000000
001FC0
07FFE0
07FFE0
07F3C0
000F80
001F00
003E00
007C00
00FF00
01FF00
03E700
07C700
0F8700
1F0700
3E07FE
3C07FE
1803FE
000000
000000
ENDCHAR

STARTCHAR jisx0208_2429
ENCODING 9257
SWIDTH 960 0
DWIDTH 24 0
BBX 24 24 0 -2
BITMAP
000000
000000
000000
000000
000000
000000
01C000
01C000
01FCC0
0FBDF0
0FFDF8
0FE078
01CFB0
01FFC0
01BFF0
03F8F0
0FE070
1FC070
1DCCF0
0FDFF0
07DFE0
03CFC0
018000
000000
ENDCHAR

STARTCHAR jisx0208_242A
ENCODING 9258
SWIDTH 960 0
DWIDTH 24 0
BBX 24 24 0 -2
BITMAP
038000
038000
038000
0380C0
03FDF0
3F7DFC
3FFC7E
3FC01E
03800C
038FE0
03BFF8
03FFFC
03F83C
07E01E
1F800E
7F800E
7B800E
7B8C1E
1F9E3C
0F9FFC
078FF8
0383E0
030000
000000
ENDCHAR

STARTCHAR jisx0208_242B
ENCODING 9259
SWIDTH 960 0
DWIDTH 24 0
BBX 24 24 0 -2
BITMAP
01C000
01C000
01C000
01C0C0
03C1E0
03BDF0
7FFEF8
7FFF7C
7F8F3E
07071E
07070F
0F070F
0E0707
0E0F0F
1E0F3F
1C0E3E
3C1E1C
3D9E00
7BBC00
7BFC00
71F800
30F000
000000
000000
ENDCHAR

STARTCHAR jisx0208_242C
ENCODING 9260
SWIDTH 960 0
DWIDTH 24 0
BBX 24 24 0 -2
BITMAP
01C00C
01C02E
01C03E
01C0F6
03C1D8
03BDE0
7FFEF8
7FFF7C
7F8F3E
07071E
07070F
0F070F
0E0707
0E0F0F
1E0F3F
1C0E3E
3C1E1C
3D9E00
7BBC00
7BFC00
71F800
30F000
000000
000000
ENDCHAR

STARTCHAR jisx0208_242D
ENCODING 9261
SWIDTH 960 0
DWIDTH 24 0
BBX 24 24 0 -2
BITMAP
001C00
001C00
001DF0
0FEFF0
0FFFF0
0FFE00
0007FC
1FFEFC
1FFFFC
1FFF80
0003C0
01FDC0
07FFE0
07FFF0
0F03F0
0E00E0
0E0000
0F0000
0FC0E0
07FFE0
03FFE0
00FF80
000000
000000
ENDCHAR

STARTCHAR jisx0208_242E
ENCODING 9262
SWIDTH 960 0
DWIDTH 24 0
BBX 24 24 0 -2
BITMAP
001C06
001C17
001DFF
0FEFFB
0FFFEC
0FFE00
0007FC
1FFEFC
1FFFFC
1FFF80
0003C0
01FDC0
07FFE0
07FFF0
0F03F0
0E00E0
0E0000
0F0000
0FC0E0
07FFE0
03FFE0
00FF80
000000
000000
ENDCHAR

STARTCHAR jisx0208_242F
ENCODING 9263
SWIDTH 960 0
DWIDTH 24 0
BBX 24 24 0 -2
BITMAP
000180
0003C0
0007C0
000F80
003F00
007E00
00FC00
03F000
07E000
0FC000
0F0000
0E0000
0FC000
07E000
03F000
00FC00
007E00
003F00
000F80
0007C0
0003E0
0001E0
0000C0
000000
ENDCHAR

STARTCHAR jisx0208_2430
ENCODING 9264
SWIDTH 960 0
DWIDTH 24 0
BBX 24 24 0 -2
BITMAP
000180
0003CC
0007CE
000FBE
003F36
007E38
00FC18
03F000
07E000
0FC000
0F0000
0E0000
0FC000
07E000
03F000
00FC00
007E00
003F00
000F80
0007C0
0003E0
0001E0
0000C0
000000
ENDCHAR

STARTCHAR jisx0208_2431
ENCODING 9265
SWIDTH 960 0
DWIDTH 24 0
BBX 24 24 0 -2
BITMAP
000000
1C0070
1C0070
1C0070
1C0070
3C0070
387FFE
387FFE
387FFE
380070
380070
380070
380070
380070
380070
3800F0
3800F0
3C01E0
1C03E0
1C07C0
1C0F80
000F00
000600
000000
ENDCHAR

STARTCHAR jisx0208_2432
ENCODING 9266
SWIDTH 960 0
DWIDTH 24 0
BBX 24 24 0 -2
BITMAP
000006
1C0077
1C007F
1C006B
1C007E
3C0076
387FF8
387FFE
387FFE
380070
380070
380070
380070
380070
380070
3800F0
3800F0
3C01E0
1C03E0
1C07C0
1C0F80
000F00
000600
000000
ENDCHAR

STARTCHAR jisx0208_2433
ENCODING 9267
SWIDTH 960 0
DWIDTH 24 0
BBX 24 24 0 -2
BITMAP
000000
000000
03FFC0
03FFC0
03FFC0
000000
000000
000000
000000
000000
000000
060000
0F0000
1F0000
1E0000
1C0000
1C0000
1E0078
1FFFF8
0FFFF8
03FFC0
000000
000000
000000
ENDCHAR

STARTCHAR jisx0208_2434
ENCODING 9268
SWIDTH 960 0
DWIDTH 24 0
BBX 24 24 0 -2
BITMAP
000006
000017
03FFDF
03FFDB
03FFCC
000000
000000
000000
000000
000000
000000
060000
0F0000
1F0000
1E0000
1C0000
1C0000
1E0078
1FFFF8
0FFFF8
03FFC0
000000
000000
000000
ENDCHAR

STARTCHAR jisx0208_2435
ENCODING 9269
SWIDTH 960 0
DWIDTH 24 0
BBX 24 24 0 -2
BITMAP
001C00
001C00
001C00
001E78
000FF8
1FFFF8
1FFFC0
1FFF00
000780
000380
00FFC0
03FDE0
07FFF0
0F83F0
0F00E0
0E0000
0E0000
0F0000
0F80E0
07FFE0
03FFE0
00FF80
000000
000000
ENDCHAR

STARTCHAR jisx0208_2436
ENCODING 9270
SWIDTH 960 0
DWIDTH 24 0
BBX 24 24 0 -2
BITMAP
001C06
001C17
001C1F
001EFB
000FEC
1FFFF0
1FFF80
1FFF00
000780
000380
00FFC0
03FDE0
07FFF0
0F83F0
0F00E0
0E0000
0E0000
0F0000
0F80E0
07FFE0
03FFE0
00FF80
000000
000000
ENDCHAR

STARTCHAR jisx0208_2437
ENCODING 9271
SWIDTH 960 0
DWIDTH 24 0
BBX 24 24 0 -2
BITMAP
000000
070000
070000
070000
070000
070000
070000
070000
070000
0F0000
0E0000
0E0000
0E0000
0E0000
0E0018
0E003C
0E007C
0F00F8
0783F0
07FFE0
03FFC0
00FF00
000000
000000
ENDCHAR

STARTCHAR jisx0208_2438
ENCODING 9272
SWIDTH 960 0
DWIDTH 24 0
BBX 24 24 0 -2
BITMAP
000000
070000
0700C0
0702E0
0703E0
070360
070180
070000
070000
0F0000
0E0000
0E0000
0E0000
0E0000
0E0018
0E003C
0E007C
0F00F8
0783F0
07FFE0
03FFC0
00FF00
000000
000000
ENDCHAR

STARTCHAR jisx0208_2439
ENCODING 9273
SWIDTH 960 0
DWIDTH 24 0
BBX 24 24 0 -2
BITMAP
000E00
000E00
000E00
01FFFE
7FFFFE
7FFFFE
7F0E00
00FE00
01FE00
03FE00
03DF00
038F00
038F00
03DF00
03FF00
01F700
00EF00
001E00
003E00
00FC00
01F800
01F000
00C000
000000
ENDCHAR

STARTCHAR jisx0208_243A
ENCODING 9274
SWIDTH 960 0
DWIDTH 24 0
BBX 24 24 0 -2
BITMAP
000E36
000E37
000E3F
01FFDB
7FFFFE
7FFFFE
7F0E00
00FE00
01FE00
03FE00
03DF00
038F00
038F00
03DF00
03FF00
01F700
00EF00
001E00
003E00
00FC00
01F800
01F000
00C000
000000
ENDCHAR

STARTCHAR jisx0208_243B
ENCODING 9275
SWIDTH 960 0
DWIDTH 24 0
BBX 24 24 0 -2
BITMAP
0000E0
0000E0
0700E0
0700E0
0700E0
0700E0
071FFF
7FFFFF
7FFFFF
7FF0E0
0700E0
0700E0
0700E0
070FE0
070FE0
0707C0
070000
070000
078078
07FFF8
03FFF8
01FFC0
000000
000000
ENDCHAR

STARTCHAR jisx0208_243C
ENCODING 9276
SWIDTH 960 0
DWIDTH 24 0
BBX 24 24 0 -2
BITMAP
0000E6
0000E7
0700FF
0700DB
0700FC
0700EC
071FF3
7FFFFF
7FFFFF
7FF0E0
0700E0
0700E0
0700E0
070FE0
070FE0
0707C0
070000
070000
078078
07FFF8
03FFF8
01FFC0
000000
000000
ENDCHAR

STARTCHAR jisx0208_243D
ENCODING 9277
SWIDTH 960 0
DWIDTH 24 0
BBX 24 24 0 -2
BITMAP
000000
003FC0
07FFC0
07FFC0
07EF00
001E00
00F800
03F3FE
0FCFFE
7F7FFE
7FFF00
7E3C00
007800
00F000
00E000
00E000
00E000
00F000
007800
007FC0
003FC0
000FC0
000000
000000
ENDCHAR

STARTCHAR jisx0208_243E
ENCODING 9278
SWIDTH 960 0
DWIDTH 24 0
BBX 24 24 0 -2
BITMAP
000006
003FC7
07FFDF
07FFDB
07EF9C
001E0C
00F800
03F3FE
0FCFFE
7F7FFE
7FFF00
7E3C00
007800
00F000
00E000
00E000
00E000
00F000
007800
007FC0
003FC0
000FC0
000000
000000
ENDCHAR

STARTCHAR jisx0208_243F
ENCODING 9279
SWIDTH 960 0
DWIDTH 24 0
BBX 24 24 0 -2
BITMAP
01C000
01C000
01C000
01FC00
3FFC00
3FFC00
3FC000
0387FC
0387FC
0787FC
070000
070000
070000
0F0C00
0E1E00
0E3E00
1E3C00
1C3800
3C3C00
3C3FFE
381FFE
180FFE
000000
000000
ENDCHAR

STARTCHAR jisx0208_2440
ENCODING 9280
SWIDTH 960 0
DWIDTH 24 0
BBX 24 24 0 -2
BITMAP
01C00C
01C00E
01C03E
01FC36
3FFC38
3FFC18
3FC000
0387FC
0387FC
0787FC
070000
070000
070000
0F0C00
0E1E00
0E3E00
1E3C00
1C3800
3C3C00
3C3FFE
381FFE
180FFE
000000
000000
ENDCHAR

STARTCHAR jisx0208_2441
ENCODING 9281
SWIDTH 960 0
DWIDTH 24 0
BBX 24 24 0 -2
BITMAP
00E000
00E000
00E000
01E7C0
1FDFC0
1FFFC0
1FFC00
01C000
038000
039FC0
07FFF0
077FF8
0FF07C
1FC03C
1F001C
0E001C
00003C
00003C
0380F8
03FFF0
03FFE0
00FF80
000000
000000
ENDCHAR

STARTCHAR jisx0208_2442
ENCODING 9282
SWIDTH 960 0
DWIDTH 24 0
BBX 24 24 0 -2
BITMAP
00E00C
00E02E
00E03E
01E7F6
1FDFD8
1FFFC0
1FFC00
01C000
038000
039FC0
07FFF0
077FF8
0FF07C
1FC03C
1F001C
0E001C
00003C
00003C
0380F8
03FFF0
03FFE0
00FF80
000000
000000
ENDCHAR

STARTCHAR jisx0208_2443
ENCODING 9283
SWIDTH 960 0
DWIDTH 24 0
BBX 24 24 0 -2
BITMAP
000000
000000
000000
000000
000000
000000
000000
003FC0
1FFFF0
1FFFF0
1FE078
000038
000038
000038
000078
000078
0000F0
0003F0
007FE0
007FC0
007F00
000000
000000
000000
ENDCHAR

STARTCHAR jisx0208_2444
ENCODING 9284
SWIDTH 960 0
DWIDTH 24 0
BBX 24 24 0 -2
BITMAP
000000
000000
000000
000000
000FE0
01FFF8
7FFFFC
7FF83C
7F001E
00000E
00000E
00000E
00000E
00000E
00001E
00003C
00007C
0003F8
007FF0
007FC0
007E00
000000
000000
000000
ENDCHAR

STARTCHAR jisx0208_2445
ENCODING 9285
SWIDTH 960 0
DWIDTH 24 0
BBX 24 24 0 -2
BITMAP
000006
000017
00001F
00001B
000FEC
01FFF0
7FFFFC
7FF83C
7F001E
00000E
00000E
00000E
00000E
00000E
00001E
00003C
00007C
0003F8
007FF0
007FC0
007E00
000000
000000
000000
ENDCHAR

STARTCHAR jisx0208_2446
ENCODING 9286
SWIDTH 960 0
DWIDTH 24 0
BBX 24 24 0 -2
BITMAP
000000
000000
0001FE
007FFE
3FFFFE
3FFF80
3FCE00
003C00
007800
007000
00F000
00E000
00E000
00E000
00E000
00F000
00F000
007800
007E00
003FE0
001FE0
0007E0
000000
000000
ENDCHAR

STARTCHAR jisx0208_2447
ENCODING 9287
SWIDTH 960 0
DWIDTH 24 0
BBX 24 24 0 -2
BITMAP
000000
000000
0001FE
007FFE
3FFFFE
3FFF80
3FCE0C
003C0E
00783E
007036
00F038
00E018
00E000
00E000
00E000
00F000
00F000
007800
007E00
003FE0
001FE0
0007E0
000000
000000
ENDCHAR

STARTCHAR jisx0208_2448
ENCODING 9288
SWIDTH 960 0
DWIDTH 24 0
BBX 24 24 0 -2
BITMAP
00E000
00E000
00E000
00E000
00E000
00E000
00E0F0
00E7F0
00FFF0
007F80
01FC00
03F000
07C000
078000
0F0000
0E0000
0E0000
0E0000
0F0078
07FFF8
07FFF8
01FFC0
000000
000000
ENDCHAR

STARTCHAR jisx0208_2449
ENCODING 9289
SWIDTH 960 0
DWIDTH 24 0
BBX 24 24 0 -2
BITMAP
00E018
00E01C
00E07C
00E06C
00E070
00E030
00E0C0
00E7F0
00FFF0
007F80
01FC00
03F000
07C000
078000
0F0000
0E0000
0E0000
0E0000
0F0078
07FFF8
07FFF8
01FFC0
000000
000000
ENDCHAR

STARTCHAR jisx0208_244A
ENCODING 9290
SWIDTH 960 0
DWIDTH 24 0
BBX 24 24 0 -2
BITMAP
038000
038000
038000
03F8C0
3F79F0
3FF9FC
3FC07E
07001E
0F00CC
0E01E0
0E01E0
1E01C0
1C01C0
3C01C0
3C7FC0
78FFC0
79FFF0
71C1FC
31E1FE
01FFDE
00FFCC
003F80
000000
000000
ENDCHAR

STARTCHAR jisx0208_244B
ENCODING 9291
SWIDTH 960 0
DWIDTH 24 0
BBX 24 24 0 -2
BITMAP
000000
0E0000
0E0000
0E3FFC
1E3FFC
1C3FFC
1C0000
1C0000
1C0000
1C0000
1C0000
1C0000
1C1800
1C3C00
1C7C00
1C7800
1C7000
1C7800
1E7FFE
0E3FFE
0E1FFE
0E0000
000000
000000
ENDCHAR

STARTCHAR jisx0208_244C
ENCODING 9292
SWIDTH 960 0
DWIDTH 24 0
BBX 24 24 0 -2
BITMAP
001C00
001C00
001C00
1C1C00
1C3FC0
1CFFF0
1FFFF8
1BF8FC
0FB83C
1F381E
1E781E
3F700E
37700E
37F00E
76E00E
73E7EE
73EFFE
71CFFC
77EE1F
7FEFFF
3F67F6
1E03F0
000000
000000
ENDCHAR

STARTCHAR jisx0208_244D
ENCODING 9293
SWIDTH 960 0
DWIDTH 24 0
BBX 24 24 0 -2
BITMAP
070000
070000
070000
0783F0
3FCFFC
3FFFFC
3FBE1E
07780E
06F00E
07E00E
0FC00E
0F800E
1F000E
1F000E
3F07EE
770FFE
770FFC
370E1F
070FFF
0707F6
0703E0
070000
000000
000000
ENDCHAR

STARTCHAR jisx0208_244E
ENCODING 9294
SWIDTH 960 0
DWIDTH 24 0
BBX 24 24 0 -2
BITMAP
000000
000000
00FF80
03FFE0
07FFF0
0FB1F8
1F387C
3E383C
3C381E
78781E
78700E
70700E
70F00E
70E00E
70E01E
71E01E
7BC03C
7FC07C
3F81F8
1F07F0
0007E0
000780
000000
000000
ENDCHAR

STARTCHAR jisx0208_244F
ENCODING 9295
SWIDTH 960 0
DWIDTH 24 0
BBX 24 24 0 -2
BITMAP
000000
1C01C0
1C01C0
1C01C0
3C01FE
38FFFE
38FFFE
38FFE0
3800E0
3800E0
3800E0
3800E0
3800E0
3800E0
383FE0
387FE0
38FFF8
38E0FE
3CF0FF
1CFFEF
1C7FE6
1C1FC0
000000
000000
ENDCHAR

STARTCHAR jisx0208_2450
ENCODING 9296
SWIDTH 960 0
DWIDTH 24 0
BBX 24 24 0 -2
BITMAP
000006
1C01D7
1C01DF
1C01DB
3C01EC
38FFFE
38FFFE
38FFE0
3800E0
3800E0
3800E0
3800E0
3800E0
3800E0
383FE0
387FE0
38FFF8
38E0FE
3CF0FF
1CFFEF
1C7FE6
1C1FC0
000000
000000
ENDCHAR

STARTCHAR jisx0208_2451
ENCODING 9297
SWIDTH 960 0
DWIDTH 24 0
BBX 24 24 0 -2
BITMAP
00001E
1C01BF
1C01B7
1C01B3
3C01FF
38FFFE
38FFFE
38FFE0
3800E0
3800E0
3800E0
3800E0
3800E0
3800E0
383FE0
387FE0
38FFF8
38E0FE
3CF0FF
1CFFEF
1C7FE6
1C1FC0
000000
000000
ENDCHAR

STARTCHAR jisx0208_2452
ENCODING 9298
SWIDTH 960 0
DWIDTH 24 0
BBX 24 24 0 -2
BITMAP
000000
000000
0060C0
3FF1C0
3FF1E0
3FE0E0
03C0F0
0F80F8
0F00F8
1E00FC
1C00DE
3C00FF
3800EF
3800E6
3801E0
3801C0
3803C0
3C0780
1E1F80
1FFF00
0FFE00
03F800
000000
000000
ENDCHAR

STARTCHAR jisx0208_2453
ENCODING 9299
SWIDTH 960 0
DWIDTH 24 0
BBX 24 24 0 -2
BITMAP
000000
000006
0060D7
3FF1DF
3FF1FB
3FE0EC
03C0F0
0F80F8
0F00F8
1E00FC
1C00DE
3C00FF
3800EF
3800E6
3801E0
3801C0
3803C0
3C0780
1E1F80
1FFF00
0FFE00
03F800
000000
000000
ENDCHAR

STARTCHAR jisx0208_2454
ENCODING 9300
SWIDTH 960 0
DWIDTH 24 0
BBX 24 24 0 -2
BITMAP
00001E
00003F
0060B7
3FF1B3
3FF1FF
3FE0DE
03C0E0
0F80F8
0F00F8
1E00FC
1C00DE
3C00FF
3800EF
3800E6
3801E0
3801C0
3803C0
3C0780
1E1F80
1FFF00
0FFE00
03F800
000000
000000
ENDCHAR

STARTCHAR jisx0208_2455
ENCODING 9301
SWIDTH 960 0
DWIDTH 24 0
BBX 24 24 0 -2
BITMAP
006000
00F800
00FE00
003F80
000F80
000300
003800
003800
003800
003800
003800
003C30
063E78
071F7C
0F0FBE
0F079E
1E038F
3EC38F
7DE787
79FF86
30FF00
007E00
000000
000000
ENDCHAR

STARTCHAR jisx0208_2456
ENCODING 9302
SWIDTH 960 0
DWIDTH 24 0
BBX 24 24 0 -2
BITMAP
00600C
00F80E
00FE3E
003FB6
000FB8
000318
003800
003800
003800
003800
003800
003C30
063E78
071F7C
0F0FBE
0F079E
1E038F
3EC38F
7DE787
79FF86
30FF00
007E00
000000
000000
ENDCHAR

STARTCHAR jisx0208_2457
ENCODING 9303
SWIDTH 960 0
DWIDTH 24 0
BBX 24 24 0 -2
BITMAP
006000
00F800
00FE3C
003F7E
000F6E
000366
00387E
00383C
003800
003800
003800
003C30
063E78
071F7C
0F0FBE
0F079E
1E038F
3EC38F
7DE787
79FF86
30FF00
007E00
000000
000000
ENDCHAR

STARTCHAR jisx0208_2458
ENCODING 9304
SWIDTH 960 0
DWIDTH 24 0
BBX 24 24 0 -2
BITMAP
000000
000000
000000
000000
000000
01E000
03F000
07F800
0F7C00
1F3E00
3E1F80
7C0FC0
7807E0
3001F0
0000FC
00007E
00003F
00000F
000006
000000
000000
000000
000000
000000
ENDCHAR

STARTCHAR jisx0208_2459
ENCODING 9305
SWIDTH 960 0
DWIDTH 24 0
BBX 24 24 0 -2
BITMAP
000000
000000
000018
0000DC
0000FC
01E0EC
03F060
07F800
0F7C00
1F3E00
3E1F80
7C0FC0
7807E0
3001F0
0000FC
00007E
00003F
00000F
000006
000000
000000
000000
000000
000000
ENDCHAR

STARTCHAR jisx0208_245A
ENCODING 9306
SWIDTH 960 0
DWIDTH 24 0
BBX 24 24 0 -2
BITMAP
000000
000000
000000
000078
0000FC
01E0DC
03F0CC
07F8FC
0F7C78
1F3E00
3E1F80
7C0FC0
7807E0
3001F0
0000FC
00007E
00003F
00000F
000006
000000
000000
000000
000000
000000
ENDCHAR

STARTCHAR jisx0208_245B
ENCODING 9307
SWIDTH 960 0
DWIDTH 24 0
BBX 24 24 0 -2
BITMAP
000000
1C0000
1CFFFC
1CFFFC
3CFFFC
3800E0
3800E0
3800E0
38FFFE
38FFFE
38FFFE
3800E0
3800E0
3800E0
383FE0
387FE0
38FFF8
38E0FE
3CF0FF
1CFFEF
1C7FE6
1C1FC0
000000
000000
ENDCHAR

STARTCHAR jisx0208_245C
ENCODING 9308
SWIDTH 960 0
DWIDTH 24 0
BBX 24 24 0 -2
BITMAP
000006
1C0017
1CFFFF
1CFFFB
3CFFEC
3800E0
3800E0
3800E0
38FFFE
38FFFE
38FFFE
3800E0
3800E0
3800E0
383FE0
387FE0
38FFF8
38E0FE
3CF0FF
1CFFEF
1C7FE6
1C1FC0
000000
000000
ENDCHAR

STARTCHAR jisx0208_245D
ENCODING 9309
SWIDTH 960 0
DWIDTH 24 0
BBX 24 24 0 -2
BITMAP
00001E
1C003F
1CFFF7
1CFFF3
3CFFFF
3800DE
3800E0
3800E0
38FFFE
38FFFE
38FFFE
3800E0
3800E0
3800E0
383FE0
387FE0
38FFF8
38E0FE
3CF0FF
1CFFEF
1C7FE6
1C1FC0
000000
000000
ENDCHAR

STARTCHAR jisx0208_245E
ENCODING 9310
SWIDTH 960 0
DWIDTH 24 0
BBX 24 24 0 -2
BITMAP
001C00
001C00
001C00
001C78
1FFFF8
1FFFF8
1FFFC0
001C00
001CF0
0FFFF0
0FFFF0
0FFF80
001C00
001C00
07FC00
0FFF00
1FFFE0
1C1FF8
1E3DFC
1FFC7C
0FF818
03F000
000000
000000
ENDCHAR

STARTCHAR jisx0208_245F
ENCODING 9311
SWIDTH 960 0
DWIDTH 24 0
BBX 24 24 0 -2
BITMAP
000000
003E00
07FF00
07FF00
07EE00
001E00
001C00
001C38
003C38
003838
03FE38
0FFFB8
1FFFF8
3EE3FC
3DE07F
79C03F
73C077
7780F0
7F81E0
7F03E0
3E0FC0
000F80
000E00
000000
ENDCHAR

STARTCHAR jisx0208_2460
ENCODING 9312
SWIDTH 960 0
DWIDTH 24 0
BBX 24 24 0 -2
BITMAP
01C000
01C000
01C000
01FC60
3FBCF8
3FFCFC
3FE07E
03801F
1F800F
3FC006
39C000
39C000
3BC000
3FC030
1F8078
0F007C
07003C
07001C
07803C
07FFFC
03FFF8
01FFF0
000000
000000
ENDCHAR

STARTCHAR jisx0208_2461
ENCODING 9313
SWIDTH 960 0
DWIDTH 24 0
BBX 24 24 0 -2
BITMAP
000E00
000E00
1C0E00
1C0E00
1C7FC0
1DFFF0
1FFFF8
0FDCFC
1F1C3C
1E3C1E
3F381E
37380E
77780E
73700E
73F01E
71E01E
71F03C
73F07C
7F61F8
3F0FF0
1E0FE0
000F80
000000
000000
ENDCHAR

STARTCHAR jisx0208_2462
ENCODING 9314
SWIDTH 960 0
DWIDTH 24 0
BBX 24 24 0 -2
BITMAP
00E000
00E000
00E000
1EE000
1FFE00
1FFE00
03FE00
01C000
01C000
3DC060
3FFEF0
3FFEF0
07FE78
038038
03803C
03801C
03801C
03801C
03C03C
01FFF8
01FFF8
007FE0
000000
000000
ENDCHAR

STARTCHAR jisx0208_2463
ENCODING 9315
SWIDTH 960 0
DWIDTH 24 0
BBX 24 24 0 -2
BITMAP
000000
000000
000000
000000
000000
001C00
039C00
039FE0
03AFF0
03FFF8
01FE78
1FE738
1FC738
1EE078
00E7F8
00F7F0
0077E0
007000
007800
003800
003800
003800
003800
000000
ENDCHAR

STARTCHAR jisx0208_2464
ENCODING 9316
SWIDTH 960 0
DWIDTH 24 0
BBX 24 24 0 -2
BITMAP
001C00
001C00
0E1E00
0E0FF0
0E3FFC
0EFFFE
07FF1E
7FE78F
7F8387
7B8387
03C00F
01C01E
01C3FE
01E3FC
00E3F0
00E000
00F000
007000
007000
007800
003800
003800
003800
000000
ENDCHAR

STARTCHAR jisx0208_2465
ENCODING 9317
SWIDTH 960 0
DWIDTH 24 0
BBX 24 24 0 -2
BITMAP
000000
000000
000000
000000
000000
001C00
001C00
071E00
070F80
0F7FE0
0EFFE0
0FEEF0
0DEE70
0FCE70
0F8E70
0FEE70
0F6EF0
0EFFE0
077FE0
071F80
007C00
007800
003000
000000
ENDCHAR

STARTCHAR jisx0208_2466
ENCODING 9318
SWIDTH 960 0
DWIDTH 24 0
BBX 24 24 0 -2
BITMAP
000C00
001E00
001F00
1C0F00
1C17E0
1C7FF8
1CFFFC
3DF3BE
3BE38E
3BC38F
3F8387
370387
3F0387
3EC387
3FE38F
3DF38E
3CFBBE
3C7FFC
1C3FF8
1C0FE0
1C7E00
007C00
007000
000000
ENDCHAR

STARTCHAR jisx0208_2467
ENCODING 9319
SWIDTH 960 0
DWIDTH 24 0
BBX 24 24 0 -2
BITMAP
000000
000000
000000
000000
000000
001C00
001C00
001C00
001C00
001FE0
001FE0
001FE0
001C00
001C00
001C00
03FC00
07FF00
0FFFC0
0E1FF0
0FFDF0
07FC70
03F800
000000
000000
ENDCHAR

STARTCHAR jisx0208_2468
ENCODING 9320
SWIDTH 960 0
DWIDTH 24 0
BBX 24 24 0 -2
BITMAP
001C00
001C00
001C00
001C00
001C00
001C78
001FF8
001FF8
001FC0
001C00
001C00
001C00
001C00
001C00
07FC00
0FFF00
1FFFE0
1C1FF8
1E3DFC
1FFC7C
0FF818
03F000
000000
000000
ENDCHAR

STARTCHAR jisx0208_2469
ENCODING 9321
SWIDTH 960 0
DWIDTH 24 0
BBX 24 24 0 -2
BITMAP
01F000
01FE00
01FF80
001F80
000380
070000
070000
070000
0F3FC0
0EFFF0
0FFFF8
0DE078
1F803C
1F001C
1E001C
0C001C
00003C
000078
0001F8
00FFF0
00FFC0
00FF00
000000
000000
ENDCHAR

STARTCHAR jisx0208_246A
ENCODING 9322
SWIDTH 960 0
DWIDTH 24 0
BBX 24 24 0 -2
BITMAP
000000
0700E0
0700E0
0700E0
0F00F0
0E0070
0E0070
0EC070
0EE070
0FE070
0DC070
0FC070
0F8070
0F8070
0F0070
0700F0
0700F0
0001E0
0003E0
000FC0
007F80
007F00
007C00
000000
ENDCHAR

STARTCHAR jisx0208_246B
ENCODING 9323
SWIDTH 960 0
DWIDTH 24 0
BBX 24 24 0 -2
BITMAP
000000
001F80
03FFC0
03FFC0
03F780
000F00
003E00
007C00
00F3C0
01DFF0
03FFF8
07F078
0FC03C
1F001C
3E001C
3CF81C
19FE3C
01FF78
01CFF8
01F7F0
00FFE0
007F80
000000
000000
ENDCHAR

STARTCHAR jisx0208_246C
ENCODING 9324
SWIDTH 960 0
DWIDTH 24 0
BBX 24 24 0 -2
BITMAP
070000
070000
070000
0787C0
3FDFE0
3FFFF0
3FBC70
077870
06F070
07E070
0FC070
0F8070
1F0070
1F0070
3F0070
770076
77007F
37006F
07007E
07007C
070038
070000
000000
000000
ENDCHAR

STARTCHAR jisx0208_246D
ENCODING 9325
SWIDTH 960 0
DWIDTH 24 0
BBX 24 24 0 -2
BITMAP
000000
001F80
03FFC0
03FFC0
03F780
000F00
003E00
007C00
00F3C0
01DFF0
03FFF8
07F078
0FC03C
1F001C
3E001C
3C001C
18003C
000078
0001F8
00FFF0
00FFE0
00FF80
000000
000000
ENDCHAR

STARTCHAR jisx0208_246E
ENCODING 9326
SWIDTH 960 0
DWIDTH 24 0
BBX 24 24 0 -2
BITMAP
000000
000000
000000
000000
000000
01C000
01C000
01C000
01E7C0
0FFFF0
0FDFF0
0FBE78
01F838
03F038
03E038
07C038
0FC038
1FC078
1DC0F0
0DC7F0
01C7E0
01C780
01C000
000000
ENDCHAR

STARTCHAR jisx0208_246F
ENCODING 9327
SWIDTH 960 0
DWIDTH 24 0
BBX 24 24 0 -2
BITMAP
070000
070000
070000
078000
3FC7E0
3FDFF8
3FBFFC
077C3C
06F01E
07E00E
0FC00E
0F800E
1F000E
1F000E
3F001E
77001E
77003C
3700FC
0707F8
0707F0
0707C0
070000
000000
000000
ENDCHAR

STARTCHAR jisx0208_2470
ENCODING 9328
SWIDTH 960 0
DWIDTH 24 0
BBX 24 24 0 -2
BITMAP
000000
007E00
07FE00
07FE00
07CE00
001C00
007FC0
01FFF0
03FFF8
07B87C
0FF81C
1F701E
1EF00E
3DE00E
3DE00E
3BDF0E
3FBFDE
37BFDC
3F39FC
1E3EF8
001FF0
000FC0
000000
000000
ENDCHAR

STARTCHAR jisx0208_2471
ENCODING 9329
SWIDTH 960 0
DWIDTH 24 0
BBX 24 24 0 -2
BITMAP
000000
007F00
07FF00
07FF00
07DE00
003D00
01FFC0
07FFE0
0FC1E0
1F38E0
1EFDE0
0DDFE0
01FBC0
01FF80
02FE00
07E1E0
0F87F8
1FEFFC
3FFF3E
7CFE1E
787C0E
30380E
000000
000000
ENDCHAR

STARTCHAR jisx0208_2472
ENCODING 9330
SWIDTH 960 0
DWIDTH 24 0
BBX 24 24 0 -2
BITMAP
007000
007000
0073E0
0FFFE0
0FFFE0
0FFE00
01C000
03FE1C
037F7E
07FFFE
0FC7F0
1F1FC0
3E7F00
3CFF00
19F700
03E700
03C700
038000
03C03C
03FFFC
01FFFC
00FFE0
000000
000000
ENDCHAR

STARTCHAR jisx0208_2473
ENCODING 9331
SWIDTH 960 0
DWIDTH 24 0
BBX 24 24 0 -2
BITMAP
001800
003C00
003C00
007800
007800
00F000
00F000
01E000
01E000
03C000
03FC00
077E00
07FE0E
0FCE0E
0F0E0E
1E0E0E
1E0E1E
3C0E1C
3C0E3C
780FF8
7807F0
3003E0
000000
000000
ENDCHAR

STARTCHAR jisx0208_2521
ENCODING 9505
SWIDTH 960 0
DWIDTH 24 0
BBX 24 24 0 -2
BITMAP
000000
000000
000000
000000
000000
000000
000060
0FFFF0
0FFFF8
0FFFF8
0000F0
003BE0
003FC0
003780
003B00
003800
007800
007800
00F000
01F000
03E000
03C000
018000
000000
ENDCHAR

STARTCHAR jisx0208_2522
ENCODING 9506
SWIDTH 960 0
DWIDTH 24 0
BBX 24 24 0 -2
BITMAP
000000
000000
000018
3FFFFC
3FFFFE
3FFFFE
00003C
000078
0038F8
0039F0
003BE0
003BC0
003980
003800
007800
007000
00F000
01E000
03E000
07C000
0F8000
0F0000
060000
000000
ENDCHAR

STARTCHAR jisx0208_2523
ENCODING 9507
SWIDTH 960 0
DWIDTH 24 0
BBX 24 24 0 -2
BITMAP
000000
000000
000000
000000
000000
0000C0
0001E0
0003E0
0007C0
000F80
001F00
007E00
00FE00
03FE00
0FEE00
0FCE00
070E00
000E00
000E00
000E00
000E00
000E00
000E00
000000
ENDCHAR

STARTCHAR jisx0208_2524
ENCODING 9508
SWIDTH 960 0
DWIDTH 24 0
BBX 24 24 0 -2
BITMAP
000030
000078
0000F8
0001F0
0003E0
0007C0
000F80
001F00
003F00
00FF00
01F700
07F700
1FC700
1F8700
0E0700
000700
000700
000700
000700
000700
000700
000700
000700
000000
ENDCHAR

STARTCHAR jisx0208_2525
ENCODING 9509
SWIDTH 960 0
DWIDTH 24 0
BBX 24 24 0 -2
BITMAP
000000
000000
000000
000000
000000
001C00
001C00
001C00
07FFF0
07FFF0
07FFF0
070070
070070
070070
0700F0
0700F0
0001E0
0003E0
0007C0
001F80
007F00
007E00
007800
000000
ENDCHAR

STARTCHAR jisx0208_2526
ENCODING 9510
SWIDTH 960 0
DWIDTH 24 0
BBX 24 24 0 -2
BITMAP
003800
003800
003800
003800
1FFFF8
1FFFF8
1FFFF8
1C0038
1C0038
1C0038
1C0038
1C0038
1C0078
000070
0000F0
0001E0
0003E0
0007C0
001F80
00FF00
00FE00
00F800
000000
000000
ENDCHAR

STARTCHAR jisx0208_2527
ENCODING 9511
SWIDTH 960 0
DWIDTH 24 0
BBX 24 24 0 -2
BITMAP
000000
000000
000000
000000
000000
000000
000000
000000
03FFE0
03FFE0
03FFE0
001C00
001C00
001C00
001C00
001C00
001C00
001C00
0FFFF8
0FFFF8
0FFFF8
000000
000000
000000
ENDCHAR

STARTCHAR jisx0208_2528
ENCODING 9512
SWIDTH 960 0
DWIDTH 24 0
BBX 24 24 0 -2
BITMAP
000000
000000
000000
000000
0FFFF8
0FFFF8
0FFFF8
001C00
001C00
001C00
001C00
001C00
001C00
001C00
001C00
001C00
001C00
3FFFFE
3FFFFE
3FFFFE
000000
000000
000000
000000
ENDCHAR

STARTCHAR jisx0208_2529
ENCODING 9513
SWIDTH 960 0
DWIDTH 24 0
BBX 24 24 0 -2
BITMAP
000000
000000
000000
000000
000000
000700
000700
000700
000700
0FFFF0
0FFFF0
0FFFF0
001F00
007F00
00F700
01F700
07E700
1FC700
1F8700
1E0700
003F00
003F00
003E00
000000
ENDCHAR

STARTCHAR jisx0208_252A
ENCODING 9514
SWIDTH 960 0
DWIDTH 24 0
BBX 24 24 0 -2
BITMAP
000380
000380
000380
000380
000380
1FFFFE
1FFFFE
1FFFFE
000F80
003F80
007B80
00FB80
01F380
03E380
0FC380
3F8380
3F0380
3C0380
000380
001F80
001F80
001F00
000000
000000
ENDCHAR

STARTCHAR jisx0208_252B
ENCODING 9515
SWIDTH 960 0
DWIDTH 24 0
BBX 24 24 0 -2
BITMAP
007000
007000
007000
007000
007000
1FFFF8
1FFFF8
1FFFF8
007038
00F038
00F038
00E038
01E038
01E038
03C038
03C078
078078
0F8070
1F00F0
3E0FF0
3C0FE0
180FC0
000000
000000
ENDCHAR

STARTCHAR jisx0208_252C
ENCODING 9516
SWIDTH 960 0
DWIDTH 24 0
BBX 24 24 0 -2
BITMAP
00700C
00702E
00703E
007036
007018
1FFFE0
1FFFF8
1FFFF8
007038
00F038
00F038
00E038
01E038
01E038
03C038
03C078
078078
0F8070
1F00F0
3E0FF0
3C0FE0
180FC0
000000
000000
ENDCHAR

STARTCHAR jisx0208_252D
ENCODING 9517
SWIDTH 960 0
DWIDTH 24 0
BBX 24 24 0 -2
BITMAP
003800
003800
003800
003800
003FF0
1FFFF0
1FFFF0
1FF800
003800
003800
003800
003FFC
3FFFFC
3FFFFC
3FFC00
001C00
001C00
001C00
001C00
001C00
001C00
001C00
001C00
000000
ENDCHAR

STARTCHAR jisx0208_252E
ENCODING 9518
SWIDTH 960 0
DWIDTH 24 0
BBX 24 24 0 -2
BITMAP
003806
003817
00381F
00381B
003FEC
1FFFF0
1FFFF0
1FF800
003800
003800
003800
003FFC
3FFFFC
3FFFFC
3FFC00
001C00
001C00
001C00
001C00
001C00
001C00
001C00
001C00
000000
ENDCHAR

STARTCHAR jisx0208_252F
ENCODING 9519
SWIDTH 960 0
DWIDTH 24 0
BBX 24 24 0 -2
BITMAP
003800
003800
007800
007830
00F7F8
01FFFC
03FFFC
07C038
0F8078
1F0078
1E00F0
0C01F0
0001E0
0003C0
0007C0
000F80
001F00
003E00
00FC00
03F800
03F000
03C000
000000
000000
ENDCHAR

STARTCHAR jisx0208_2530
ENCODING 9520
SWIDTH 960 0
DWIDTH 24 0
BBX 24 24 0 -2
BITMAP
003806
003817
00781F
00783B
00F7EC
01FFF8
03FFFC
07C038
0F8078
1F0078
1E00F0
0C01F0
0001E0
0003C0
0007C0
000F80
001F00
003E00
00FC00
03F800
03F000
03C000
000000
000000
ENDCHAR

STARTCHAR jisx0208_2531
ENCODING 9521
SWIDTH 960 0
DWIDTH 24 0
BBX 24 24 0 -2
BITMAP
01C000
01C000
01C000
03C000
038000
07FFFE
07FFFE
0FFFFE
1E0700
3E0700
7C0700
780700
300700
000F00
000F00
001E00
003E00
007C00
01F800
03F000
03E000
018000
000000
000000
ENDCHAR

STARTCHAR jisx0208_2532
ENCODING 9522
SWIDTH 960 0
DWIDTH 24 0
BBX 24 24 0 -2
BITMAP
01C00C
01C02E
01C03E
03C036
038018
07FFE6
07FFFE
0FFFFE
1E0700
3E0700
7C0700
780700
300700
000F00
000F00
001E00
003E00
007C00
01F800
03F000
03E000
018000
000000
000000
ENDCHAR

STARTCHAR jisx0208_2533
ENCODING 9523
SWIDTH 960 0
DWIDTH 24 0
BBX 24 24 0 -2
BITMAP
000000
000000
000000
000000
0FFFF8
0FFFF8
0FFFF8
000038
000038
000038
000038
000038
000038
000038
000038
000038
000038
0FFFF8
0FFFF8
0FFFF8
000038
000000
000000
000000
ENDCHAR

STARTCHAR jisx0208_2534
ENCODING 9524
SWIDTH 960 0
DWIDTH 24 0
BBX 24 24 0 -2
BITMAP
00000C
00002E
00003E
000036
0FFFD8
0FFFF8
0FFFF8
000038
000038
000038
000038
000038
000038
000038
000038
000038
000038
0FFFF8
0FFFF8
0FFFF8
000038
000000
000000
000000
ENDCHAR

STARTCHAR jisx0208_2535
ENCODING 9525
SWIDTH 960 0
DWIDTH 24 0
BBX 24 24 0 -2
BITMAP
000000
0381C0
0381C0
0381C0
0381C0
0381C0
7FFFFF
7FFFFF
7FFFFF
0381C0
0381C0
0381C0
0381C0
0381C0
0003C0
0003C0
000780
000F80
003F00
00FE00
00FC00
00F000
000000
000000
ENDCHAR

STARTCHAR jisx0208_2536
ENCODING 9526
SWIDTH 960 0
DWIDTH 24 0
BBX 24 24 0 -2
BITMAP
00000C
0381AE
0381BE
0381F6
0381D8
0381C0
7FFFFF
7FFFFF
7FFFFF
0381C0
0381C0
0381C0
0381C0
0381C0
0003C0
0003C0
000780
000F80
003F00
00FE00
00FC00
00F000
000000
000000
ENDCHAR

STARTCHAR jisx0208_2537
ENCODING 9527
SWIDTH 960 0
DWIDTH 24 0
BBX 24 24 0 -2
BITMAP
000000
000000
030000
07C000
07E000
03F000
00F000
18601C
3E001C
3F003C
1F803C
078078
0300F8
0001F0
0003E0
0007C0
001F80
003F00
01FE00
0FF800
0FF000
0F8000
000000
000000
ENDCHAR

STARTCHAR jisx0208_2538
ENCODING 9528
SWIDTH 960 0
DWIDTH 24 0
BBX 24 24 0 -2
BITMAP
00000C
00002E
03003E
07C036
07E018
03F000
00F000
18601C
3E001C
3F003C
1F803C
078078
0300F8
0001F0
0003E0
0007C0
001F80
003F00
01FE00
0FF800
0FF000
0F8000
000000
000000
ENDCHAR

STARTCHAR jisx0208_2539
ENCODING 9529
SWIDTH 960 0
DWIDTH 24 0
BBX 24 24 0 -2
BITMAP
000000
000000
0000C0
0FFFE0
0FFFF0
0FFFF0
0000E0
0001E0
0003C0
0003C0
000780
000F80
001F00
003FC0
007BE0
01F9F0
03F0F8
0FE078
3F803C
3F003C
3C0018
000000
000000
000000
ENDCHAR

STARTCHAR jisx0208_253A
ENCODING 9530
SWIDTH 960 0
DWIDTH 24 0
BBX 24 24 0 -2
BITMAP
000006
000017
0000DF
0FFFFB
0FFFEC
0FFFF0
0000E0
0001E0
0003C0
0003C0
000780
000F80
001F00
003FC0
007BE0
01F9F0
03F0F8
0FE078
3F803C
3F003C
3C0018
000000
000000
000000
ENDCHAR

STARTCHAR jisx0208_253B
ENCODING 9531
SWIDTH 960 0
DWIDTH 24 0
BBX 24 24 0 -2
BITMAP
000000
01C000
01C000
01C000
01C018
01C3FC
01FFFE
3FFFFE
3FFE1C
3FC07C
01C0F8
01C1F0
01C3E0
01C3C0
01C180
01C000
01C000
01E000
01FFF8
00FFF8
007FF8
000000
000000
000000
ENDCHAR

STARTCHAR jisx0208_253C
ENCODING 9532
SWIDTH 960 0
DWIDTH 24 0
BBX 24 24 0 -2
BITMAP
000006
01C017
01C01F
01C01B
01C00C
01C3F8
01FFFE
3FFFFE
3FFE1C
3FC07C
01C0F8
01C1F0
01C3E0
01C3C0
01C180
01C000
01C000
01E000
01FFF8
00FFF8
007FF8
000000
000000
000000
ENDCHAR

STARTCHAR jisx0208_253D
ENCODING 9533
SWIDTH 960 0
DWIDTH 24 0
BBX 24 24 0 -2
BITMAP
000000
000000
000000
0C0000
1E001C
1F001C
0F801C
07803C
03C03C
03C038
018078
0000F8
0000F0
0001E0
0003E0
0007C0
000F80
003F00
00FE00
03FC00
03F000
03C000
000000
000000
ENDCHAR

STARTCHAR jisx0208_253E
ENCODING 9534
SWIDTH 960 0
DWIDTH 24 0
BBX 24 24 0 -2
BITMAP
00002C
00003E
00003E
0C0016
1E0008
1F001C
0F801C
07803C
03C03C
03C038
018078
0000F8
0000F0
0001E0
0003E0
0007C0
000F80
003F00
00FE00
03FC00
03F000
03C000
000000
000000
ENDCHAR

STARTCHAR jisx0208_253F
ENCODING 9535
SWIDTH 960 0
DWIDTH 24 0
BBX 24 24 0 -2
BITMAP
003800
003800
007800
007830
00F7F8
01FFFC
03FFFC
07C038
0F8078
1F6078
1EF8F0
0CFCF0
007DE0
001FE0
000FC0
000780
001FE0
003DE0
00FCC0
07F800
07F000
07C000
000000
000000
ENDCHAR

STARTCHAR jisx0208_2540
ENCODING 9536
SWIDTH 960 0
DWIDTH 24 0
BBX 24 24 0 -2
BITMAP
003836
003837
00783F
00781B
00F7F0
01FFFC
03FFFC
07C038
0F8078
1F6078
1EF8F0
0CFCF0
007DE0
001FE0
000FC0
000780
001FE0
003DE0
00FCC0
07F800
07F000
07C000
000000
000000
ENDCHAR

STARTCHAR jisx0208_2541
ENCODING 9537
SWIDTH 960 0
DWIDTH 24 0
BBX 24 24 0 -2
BITMAP
000000
0000F0
000FF0
0FFFF0
0FFF80
0FFE00
000E00
000E00
000E00
3FFFFE
3FFFFE
3FFFFE
000E00
000E00
001E00
001E00
003C00
007C00
01F800
03F000
03E000
018000
000000
000000
ENDCHAR

STARTCHAR jisx0208_2542
ENCODING 9538
SWIDTH 960 0
DWIDTH 24 0
BBX 24 24 0 -2
BITMAP
000000
0000F0
000FFC
0FFFEE
0FFF9E
0FFE16
000E1C
000E0C
000E00
3FFFFE
3FFFFE
3FFFFE
000E00
000E00
001E00
001E00
003C00
007C00
01F800
03F000
03E000
018000
000000
000000
ENDCHAR

STARTCHAR jisx0208_2543
ENCODING 9539
SWIDTH 960 0
DWIDTH 24 0
BBX 24 24 0 -2
BITMAP
000000
000000
000000
000000
000000
000000
003000
067800
0F7870
0F3C70
07BC70
079CF0
0398F0
0301E0
0003E0
0007C0
000F80
001F00
007E00
03FC00
03F800
03E000
000000
000000
ENDCHAR

STARTCHAR jisx0208_2544
ENCODING 9540
SWIDTH 960 0
DWIDTH 24 0
BBX 24 24 0 -2
BITMAP
000000
000000
003000
0C7000
1C781C
1E781C
1E3C1C
0F3C3C
0F1C3C
071838
060078
0000F8
0000F0
0001E0
0003E0
0007C0
000F80
003F00
00FE00
03FC00
03F000
03C000
000000
000000
ENDCHAR

STARTCHAR jisx0208_2545
ENCODING 9541
SWIDTH 960 0
DWIDTH 24 0
BBX 24 24 0 -2
BITMAP
000036
000037
00303F
0C701B
1C7804
1E781C
1E3C1C
0F3C3C
0F1C3C
071838
060078
0000F8
0000F0
0001E0
0003E0
0007C0
000F80
003F00
00FE00
03FC00
03F000
03C000
000000
000000
ENDCHAR

STARTCHAR jisx0208_2546
ENCODING 9542
SWIDTH 960 0
DWIDTH 24 0
BBX 24 24 0 -2
BITMAP
000000
000000
03FFF0
03FFF0
03FFF0
000000
000000
000000
1FFFFE
1FFFFE
1FFFFE
000E00
000E00
000E00
001E00
001E00
003C00
007C00
01F800
03F000
03E000
018000
000000
000000
ENDCHAR

STARTCHAR jisx0208_2547
ENCODING 9543
SWIDTH 960 0
DWIDTH 24 0
BBX 24 24 0 -2
BITMAP
000006
000017
03FFDF
03FFFB
03FFEC
000000
000000
000000
1FFFFE
1FFFFE
1FFFFE
000E00
000E00
000E00
001E00
001E00
003C00
007C00
01F800
03F000
03E000
018000
000000
000000
ENDCHAR

STARTCHAR jisx0208_2548
ENCODING 9544
SWIDTH 960 0
DWIDTH 24 0
BBX 24 24 0 -2
BITMAP
00E000
00E000
00E000
00E000
00E000
00E000
00E000
00F800
00DE00
00FF80
00DFC0
00E7E0
00E1E0
00E0C0
00E000
00E000
00E000
00E000
00E000
00E000
00E000
00E000
00E000
000000
ENDCHAR

STARTCHAR jisx0208_2549
ENCODING 9545
SWIDTH 960 0
DWIDTH 24 0
BBX 24 24 0 -2
BITMAP
00E030
00E038
00E0F8
00E0D8
00E0E0
00E060
00E000
00F800
00DE00
00FF80
00DFC0
00E7E0
00E1E0
00E0C0
00E000
00E000
00E000
00E000
00E000
00E000
00E000
00E000
00E000
000000
ENDCHAR

STARTCHAR jisx0208_254A
ENCODING 9546
SWIDTH 960 0
DWIDTH 24 0
BBX 24 24 0 -2
BITMAP
000E00
000E00
000E00
000E00
000E00
000E00
1FFFFE
1FFFFE
1FFFFE
000E00
000E00
000E00
000E00
001E00
001E00
003C00
007C00
00F800
03F000
07E000
07C000
030000
000000
000000
ENDCHAR

STARTCHAR jisx0208_254B
ENCODING 9547
SWIDTH 960 0
DWIDTH 24 0
BBX 24 24 0 -2
BITMAP
000000
000000
000000
000000
07FFF0
07FFF0
07FFF0
000000
000000
000000
000000
000000
000000
000000
000000
000000
000000
3FFFFE
3FFFFE
3FFFFE
000000
000000
000000
000000
ENDCHAR

STARTCHAR jisx0208_254C
ENCODING 9548
SWIDTH 960 0
DWIDTH 24 0
BBX 24 24 0 -2
BITMAP
000000
000000
000060
07FFF0
07FFF8
07FFF8
000070
0000F0
0000F0
01C1E0
03F1E0
03FBC0
00FFC0
003F80
000F40
003FE0
00FDF0
01F8F0
07F060
1FC000
1F8000
1E0000
000000
000000
ENDCHAR

STARTCHAR jisx0208_254D
ENCODING 9549
SWIDTH 960 0
DWIDTH 24 0
BBX 24 24 0 -2
BITMAP
00F800
00FF00
00FF00
000F00
000080
07FFC0
07FFE0
07FFE0
0003C0
000F80
001F00
007EC0
00FDF0
03FDF8
0FDCFC
3FDC3E
3F1C1E
1C1C0C
001C00
001C00
001C00
001C00
001C00
000000
ENDCHAR

STARTCHAR jisx0208_254E
ENCODING 9550
SWIDTH 960 0
DWIDTH 24 0
BBX 24 24 0 -2
BITMAP
000000
000000
000038
000038
000038
000078
000078
0000F0
0001F0
0001E0
0003C0
0007C0
000F80
001F00
003E00
00FC00
01F800
07F000
1FC000
1F8000
1E0000
000000
000000
000000
ENDCHAR

STARTCHAR jisx0208_254F
ENCODING 9551
SWIDTH 960 0
DWIDTH 24 0
BBX 24 24 0 -2
BITMAP
000000
000000
000000
000000
00E000
00E180
00E3C0
01E3E0
01E1F0
01C0F0
03C078
03C07C
07803C
0F801E
0F001E
1E000F
3E000F
7C0007
780007
300006
000000
000000
000000
000000
ENDCHAR

STARTCHAR jisx0208_2550
ENCODING 9552
SWIDTH 960 0
DWIDTH 24 0
BBX 24 24 0 -2
BITMAP
000000
000018
00001C
00003C
00E02C
00E1B8
00E3D8
01E3E0
01E1F0
01C0F0
03C078
03C07C
07803C
0F801E
0F001E
1E000F
3E000F
7C0007
780007
300006
000000
000000
000000
000000
ENDCHAR

STARTCHAR jisx0208_2551
ENCODING 9553
SWIDTH 960 0
DWIDTH 24 0
BBX 24 24 0 -2
BITMAP
000000
00001E
00003F
000037
00E033
00E1BF
00E3DE
01E3E0
01E1F0
01C0F0
03C078
03C07C
07803C
0F801E
0F001E
1E000F
3E000F
7C0007
780007
300006
000000
000000
000000
000000
ENDCHAR

STARTCHAR jisx0208_2552
ENCODING 9554
SWIDTH 960 0
DWIDTH 24 0
BBX 24 24 0 -2
BITMAP
000000
070000
070000
070000
070000
070070
0703F8
071FF8
07FFE0
07FF00
07F000
070000
070000
070000
070000
070000
070000
078000
07FFF8
03FFF8
01FFF8
000000
000000
000000
ENDCHAR

STARTCHAR jisx0208_2553
ENCODING 9555
SWIDTH 960 0
DWIDTH 24 0
BBX 24 24 0 -2
BITMAP
00000C
07002E
07003E
070036
070018
070060
0703F8
071FF8
07FFE0
07FF00
07F000
070000
070000
070000
070000
070000
070000
078000
07FFF8
03FFF8
01FFF8
000000
000000
000000
ENDCHAR

STARTCHAR jisx0208_2554
ENCODING 9556
SWIDTH 960 0
DWIDTH 24 0
BBX 24 24 0 -2
BITMAP
00001E
07003F
070037
070033
07003F
07005E
0703F0
071FF8
07FFE0
07FF00
07F000
070000
070000
070000
070000
070000
070000
078000
07FFF8
03FFF8
01FFF8
000000
000000
000000
ENDCHAR

STARTCHAR jisx0208_2555
ENCODING 9557
SWIDTH 960 0
DWIDTH 24 0
BBX 24 24 0 -2
BITMAP
000000
000000
000000
000030
1FFFF8
1FFFFC
1FFFFC
000038
000078
000078
000070
0000F0
0000F0
0001E0
0003E0
0007C0
000F80
003F00
00FE00
03FC00
03F000
03C000
000000
000000
ENDCHAR

STARTCHAR jisx0208_2556
ENCODING 9558
SWIDTH 960 0
DWIDTH 24 0
BBX 24 24 0 -2
BITMAP
000016
00001F
00001F
00002B
1FFFF0
1FFFFC
1FFFFC
000038
000078
000078
000070
0000F0
0000F0
0001E0
0003E0
0007C0
000F80
003F00
00FE00
03FC00
03F000
03C000
000000
000000
ENDCHAR

STARTCHAR jisx0208_2557
ENCODING 9559
SWIDTH 960 0
DWIDTH 24 0
BBX 24 24 0 -2
BITMAP
00001E
00003F
000037
000033
1FFFFF
1FFFFE
1FFFF8
000038
000078
000078
000070
0000F0
0000F0
0001E0
0003E0
0007C0
000F80
003F00
00FE00
03FC00
03F000
03C000
000000
000000
ENDCHAR

STARTCHAR jisx0208_2558
ENCODING 9560
SWIDTH 960 0
DWIDTH 24 0
BBX 24 24 0 -2
BITMAP
000000
000000
000000
000000
000000
00E000
01F000
03F800
07FC00
0FBE00
1F1F80
3E0FC0
7C07E0
7801F0
3000FC
00007E
00003F
00000F
000006
000000
000000
000000
000000
000000
ENDCHAR

STARTCHAR jisx0208_2559
ENCODING 9561
SWIDTH 960 0
DWIDTH 24 0
BBX 24 24 0 -2
BITMAP
000000
000000
000000
000060
000070
00E1F0
01F1B0
03F9C0
07FCC0
0FBE00
1F1F80
3E0FC0
7C07E0
7801F0
3000FC
00007E
00003F
00000F
000006
000000
000000
000000
000000
000000
ENDCHAR

STARTCHAR jisx0208_255A
ENCODING 9562
SWIDTH 960 0
DWIDTH 24 0
BBX 24 24 0 -2
BITMAP
000000
000000
000000
0000F0
0001F8
00E1B8
01F198
03F9F8
07FCF0
0FBE00
1F1F80
3E0FC0
7C07E0
7801F0
3000FC
00007E
00003F
00000F
000006
000000
000000
000000
000000
000000
ENDCHAR

STARTCHAR jisx0208_255B
ENCODING 9563
SWIDTH 960 0
DWIDTH 24 0
BBX 24 24 0 -2
BITMAP
001C00
001C00
001C00
001C00
001C00
3FFFFE
3FFFFE
3FFFFE
001C00
071C60
071CF0
0F1CF8
0F1C78
1E1C3C
1E1C3C
3C1C1E
7C1C1E
781C0E
301C0C
00FC00
00FC00
00F800
000000
000000
ENDCHAR

STARTCHAR jisx0208_255C
ENCODING 9564
SWIDTH 960 0
DWIDTH 24 0
BBX 24 24 0 -2
BITMAP
001C0C
001C2E
001C3E
001C36
001C18
3FFFE6
3FFFFE
3FFFFE
001C00
071C60
071CF0
0F1CF8
0F1C78
1E1C3C
1E1C3C
3C1C1E
7C1C1E
781C0E
301C0C
00FC00
00FC00
00F800
000000
000000
ENDCHAR

STARTCHAR jisx0208_255D
ENCODING 9565
SWIDTH 960 0
DWIDTH 24 0
BBX 24 24 0 -2
BITMAP
001C3C
001C7E
001C6E
001C66
001C7E
3FFFBC
3FFFFE
3FFFFE
001C00
071C60
071CF0
0F1CF8
0F1C78
1E1C3C
1E1C3C
3C1C1E
7C1C1E
781C0E
301C0C
00FC00
00FC00
00F800
000000
000000
ENDCHAR

STARTCHAR jisx0208_255E
ENCODING 9566
SWIDTH 960 0
DWIDTH 24 0
BBX 24 24 0 -2
BITMAP
000000
000000
000000
000018
3FFFFC
3FFFFE
3FFFFE
00003C
000078
0000F8
0001F0
0183E0
03C7C0
03EF80
01FF00
00FE00
007C00
003E00
001E00
000F00
000F00
000600
000000
000000
ENDCHAR

STARTCHAR jisx0208_255F
ENCODING 9567
SWIDTH 960 0
DWIDTH 24 0
BBX 24 24 0 -2
BITMAP
000000
000000
01F800
01FF00
01FFC0
001FE0
0003E0
0000C0
01F000
01FE00
01FF80
003FC0
0007C0
000180
000000
0F8000
0FF000
0FFE00
01FF80
003FE0
0007F0
0001F0
000060
000000
ENDCHAR

STARTCHAR jisx0208_2560
ENCODING 9568
SWIDTH 960 0
DWIDTH 24 0
BBX 24 24 0 -2
BITMAP
000000
000000
001C00
001C00
003C00
003C00
003800
007800
007800
00F000
00F000
01E0C0
01E1E0
03C1F0
03C0F8
078078
078FBC
3F7FFC
3FFFFE
1FF81E
18000E
00000C
000000
000000
ENDCHAR

STARTCHAR jisx0208_2561
ENCODING 9569
SWIDTH 960 0
DWIDTH 24 0
BBX 24 24 0 -2
BITMAP
000000
000000
000070
000070
0000F0
0000F0
0001E0
00E1E0
01FBC0
01FFC0
007F80
001F00
000FC0
003FE0
007DF0
01F8F0
03F060
0FE000
3F8000
3F0000
3C0000
000000
000000
000000
ENDCHAR

STARTCHAR jisx0208_2562
ENCODING 9570
SWIDTH 960 0
DWIDTH 24 0
BBX 24 24 0 -2
BITMAP
000000
000000
000000
0FFFF0
0FFFF0
0FFFF0
007000
007000
007000
3FFFFE
3FFFFE
3FFFFE
007000
007000
007000
007000
007000
007000
007FF8
007FF8
003FF8
000000
000000
000000
ENDCHAR

STARTCHAR jisx0208_2563
ENCODING 9571
SWIDTH 960 0
DWIDTH 24 0
BBX 24 24 0 -2
BITMAP
000000
000000
000000
000000
000000
00E000
00E000
00E000
00E060
00EFF0
01FFF8
1FFFF8
1FF8F0
1F73E0
0077C0
007780
007B00
003800
003800
003800
003800
003800
003800
000000
ENDCHAR

STARTCHAR jisx0208_2564
ENCODING 9572
SWIDTH 960 0
DWIDTH 24 0
BBX 24 24 0 -2
BITMAP
00E000
00E000
00E000
00E000
00E00C
00F3FE
017FFF
7FFFFF
7FFE1E
7F703C
00707C
0078F8
0039F0
0039E0
0038C0
003800
003C00
001C00
001C00
001C00
001C00
001C00
001C00
000000
ENDCHAR

STARTCHAR jisx0208_2565
ENCODING 9573
SWIDTH 960 0
DWIDTH 24 0
BBX 24 24 0 -2
BITMAP
000000
000000
000000
000000
000000
000000
000000
000000
07FF80
07FF80
07FF80
000380
000380
000380
000780
000700
000700
000700
1FFFF8
1FFFF8
1FFFF8
000000
000000
000000
ENDCHAR

STARTCHAR jisx0208_2566
ENCODING 9574
SWIDTH 960 0
DWIDTH 24 0
BBX 24 24 0 -2
BITMAP
000000
000000
000000
000000
0FFFC0
0FFFC0
0FFFC0
0001C0
0001C0
0001C0
0001C0
0001C0
0003C0
000380
000380
000380
000380
7FFFFE
7FFFFE
7FFFFE
000000
000000
000000
000000
ENDCHAR

STARTCHAR jisx0208_2567
ENCODING 9575
SWIDTH 960 0
DWIDTH 24 0
BBX 24 24 0 -2
BITMAP
000000
000000
000000
000000
000000
000000
000000
03FFE0
03FFE0
03FFE0
0000E0
0000E0
01FFE0
01FFE0
01FFE0
0000E0
0000E0
0000E0
03FFE0
03FFE0
03FFE0
0000E0
000000
000000
ENDCHAR

STARTCHAR jisx0208_2568
ENCODING 9576
SWIDTH 960 0
DWIDTH 24 0
BBX 24 24 0 -2
BITMAP
000000
000000
000000
0FFFF0
0FFFF0
0FFFF0
000070
000070
000070
000070
07FFF0
07FFF0
07FFF0
000070
000070
000070
000070
000070
0FFFF0
0FFFF0
0FFFF0
000070
000000
000000
ENDCHAR

STARTCHAR jisx0208_2569
ENCODING 9577
SWIDTH 960 0
DWIDTH 24 0
BBX 24 24 0 -2
BITMAP
000000
000000
07FFE0
07FFE0
07FFE0
000000
000030
1FFFF8
1FFFFC
1FFFFC
000038
000078
000070
0000F0
0001E0
0003E0
0007C0
000F80
003F00
01FE00
01FC00
01F000
000000
000000
ENDCHAR

STARTCHAR jisx0208_256A
ENCODING 9578
SWIDTH 960 0
DWIDTH 24 0
BBX 24 24 0 -2
BITMAP
000000
0700E0
0700E0
0700E0
0700E0
0700E0
0700E0
0700E0
0700E0
0700E0
0700E0
0700E0
0700E0
0700E0
0001E0
0001E0
0003C0
0007C0
001F80
00FF00
00FE00
00F800
000000
000000
ENDCHAR

STARTCHAR jisx0208_256B
ENCODING 9579
SWIDTH 960 0
DWIDTH 24 0
BBX 24 24 0 -2
BITMAP
000000
000000
000E00
038E00
038E00
038E00
038E00
038E00
038E00
038E00
038E00
038E06
078E0F
078E1F
070E3E
0F0E7C
0F0FF8
1E1DF0
3E1FE0
7C0F80
780600
300000
000000
000000
ENDCHAR

STARTCHAR jisx0208_256C
ENCODING 9580
SWIDTH 960 0
DWIDTH 24 0
BBX 24 24 0 -2
BITMAP
000000
000000
070000
070000
070000
070000
070000
070000
070000
070000
070000
070018
07003C
07007C
0701F8
0703F0
070FE0
077F80
0FFF00
0FFC00
07E000
030000
000000
000000
ENDCHAR

STARTCHAR jisx0208_256D
ENCODING 9581
SWIDTH 960 0
DWIDTH 24 0
BBX 24 24 0 -2
BITMAP
000000
000000
000000
000000
0FFFF8
0FFFF8
0FFFF8
0E0038
0E0038
0E0038
0E0038
0E0038
0E0038
0E0038
0E0038
0E0038
0E0038
0FFFF8
0FFFF8
0FFFF8
0E0038
000000
000000
000000
ENDCHAR

STARTCHAR jisx0208_256E
ENCODING 9582
SWIDTH 960 0
DWIDTH 24 0
BBX 24 24 0 -2
BITMAP
000000
000000
000000
000000
000000
000000
000000
07FFE0
07FFE0
07FFE0
0700E0
0700E0
0700E0
0700E0
0701E0
0701E0
0003C0
0007C0
001F80
007F00
007E00
007800
000000
000000
ENDCHAR

STARTCHAR jisx0208_256F
ENCODING 9583
SWIDTH 960 0
DWIDTH 24 0
BBX 24 24 0 -2
BITMAP
000000
000000
000000
1FFFF8
1FFFF8
1FFFF8
1C0038
1C0038
1C0038
1C0038
1C0038
1C0038
1C0078
000070
0000F0
0001E0
0003E0
0007C0
001F80
00FF00
00FE00
00F800
000000
000000
ENDCHAR

STARTCHAR jisx0208_2570
ENCODING 9584
SWIDTH 960 0
DWIDTH 24 0
BBX 24 24 0 -2
BITMAP
000E00
000E00
000E00
000E00
0FFFF8
0FFFF8
0FFFF8
0E0E00
0E0E00
0E0E00
0E0E00
0E0E00
0E0E00
7FFFFE
7FFFFE
7FFFFE
000E00
000E00
000E00
000E00
000E00
000E00
000E00
000000
ENDCHAR

STARTCHAR jisx0208_2571
ENCODING 9585
SWIDTH 960 0
DWIDTH 24 0
BBX 24 24 0 -2
BITMAP
000000
000000
000000
000060
07FFF0
07FFF8
07FFF8
0000F0
0003E0
0007C0
001F80
001F00
001E00
001C00
001C00
001C00
001C00
3FFFFE
3FFFFE
3FFFFE
000000
000000
000000
000000
ENDCHAR

STARTCHAR jisx0208_2572
ENCODING 9586
SWIDTH 960 0
DWIDTH 24 0
BBX 24 24 0 -2
BITMAP
000000
000000
000060
1FFFF0
1FFFF8
1FFFF8
000070
000070
000070
0FFFF0
0FFFF0
0FFFE0
0000E0
0001E0
0003C0
0007C0
000F80
001F00
007E00
03FC00
03F800
03E000
000000
000000
ENDCHAR

STARTCHAR jisx0208_2573
ENCODING 9587
SWIDTH 960 0
DWIDTH 24 0
BBX 24 24 0 -2
BITMAP
000000
000000
0C0000
1F0000
1F8000
0FC000
03C01C
01801C
00003C
00003C
000078
0000F8
0001F0
0003E0
0007C0
001F80
003F00
01FE00
0FF800
0FF000
0F8000
000000
000000
000000
ENDCHAR

STARTCHAR jisx0208_2574
ENCODING 9588
SWIDTH 960 0
DWIDTH 24 0
BBX 24 24 0 -2
BITMAP
003806
003817
00381F
00381B
1FFFEC
1FFFF8
1FFFF8
1C0038
1C0038
1C0038
1C0038
1C0038
1C0078
000070
0000F0
0001E0
0003E0
0007C0
001F80
00FF00
00FE00
00F800
000000
000000
ENDCHAR

STARTCHAR jisx0208_2575
ENCODING 9589
SWIDTH 960 0
DWIDTH 24 0
BBX 24 24 0 -2
BITMAP
000000
000000
000000
000000
000000
007000
007000
007000
007000
0FFFE0
0FFFE0
0FFFE0
0070E0
00F0E0
00F0E0
00E0E0
01E0E0
01E0E0
03C0E0
07C1E0
0F8FC0
0F0FC0
060F80
000000
ENDCHAR

STARTCHAR jisx0208_2576
ENCODING 9590
SWIDTH 960 0
DWIDTH 24 0
BBX 24 24 0 -2
BITMAP
000000
000000
000000
000000
000000
00E000
00E000
00E000
01E000
01DFF8
03FFF8
07FFF8
0F8700
1F0700
1E0700
0C0F00
000F00
001E00
003E00
00FC00
01F800
01F000
00C000
000000
ENDCHAR

STARTCHAR jisx0208_2621
ENCODING 9761
SWIDTH 960 0
DWIDTH 24 0
BBX 24 24 0 -2
BITMAP
000000
000000
001C00
001C00
003E00
003E00
007F00
007700
007700
00F780
00E380
01E3C0
01C1C0
03C1E0
03BEE0
03FFE0
07FFF0
070070
0F0078
0E0038
0E0038
000000
000000
000000
ENDCHAR

STARTCHAR jisx0208_2622
ENCODING 9762
SWIDTH 960 0
DWIDTH 24 0
BBX 24 24 0 -2
BITMAP
000000
000000
07FF00
07FFC0
07FFC0
0701E0
0700E0
0700E0
0701E0
07FFC0
07FF80
07FFE0
0701E0
0700F0
070070
070070
070070
0700F0
07FFE0
07FFE0
07FF80
000000
000000
000000
ENDCHAR

STARTCHAR jisx0208_2623
ENCODING 9763
SWIDTH 960 0
DWIDTH 24 0
BBX 24 24 0 -2
BITMAP
000000
000000
03FFF0
03FFF0
03FFF0
038000
038000
038000
038000
038000
038000
038000
038000
038000
038000
038000
038000
038000
038000
038000
038000
000000
000000
000000
ENDCHAR

STARTCHAR jisx0208_2624
ENCODING 9764
SWIDTH 960 0
DWIDTH 24 0
BBX 24 24 0 -2
BITMAP
000000
000000
001C00
001C00
003E00
003E00
007F00
007700
00F780
00E380
00E380
01E3C0
01C1C0
03C1E0
0380E0
0780F0
070070
0F0078
0EFFB8
0FFFF8
0FFFF8
000000
000000
000000
ENDCHAR

STARTCHAR jisx0208_2625
ENCODING 9765
SWIDTH 960 0
DWIDTH 24 0
BBX 24 24 0 -2
BITMAP
000000
000000
03FFF0
03FFF0
03FFF0
038000
038000
038000
038000
03FFC0
03FFC0
03FFC0
038000
038000
038000
038000
038000
038000
03FFF0
03FFF0
03FFF0
000000
000000
000000
ENDCHAR

STARTCHAR jisx0208_2626
ENCODING 9766
SWIDTH 960 0
DWIDTH 24 0
BBX 24 24 0 -2
BITMAP
000000
000000
03FFE0
03FFE0
03FFE0
0001C0
000780
000780
000F00
001E00
001E00
003C00
007800
007800
00F000
01E000
01E000
03C000
07BFE0
07FFE0
07FFE0
000000
000000
000000
ENDCHAR

STARTCHAR jisx0208_2627
ENCODING 9767
SWIDTH 960 0
DWIDTH 24 0
BBX 24 24 0 -2
BITMAP
000000
000000
070070
070070
070070
070070
070070
070070
070070
07FFF0
07FFF0
07FFF0
070070
070070
070070
070070
070070
070070
070070
070070
070070
000000
000000
000000
ENDCHAR

STARTCHAR jisx0208_2628
ENCODING 9768
SWIDTH 960 0
DWIDTH 24 0
BBX 24 24 0 -2
BITMAP
000000
000000
007E00
01FF80
03FFC0
07C3E0
0700E0
0F00F0
0E0070
0E0070
0FFF70
0DFF70
0FFF70
0E0070
0E0070
0F00F0
0700E0
07C3E0
03FFC0
01FF80
007E00
000000
000000
000000
ENDCHAR

STARTCHAR jisx0208_2629
ENCODING 9769
SWIDTH 960 0
DWIDTH 24 0
BBX 24 24 0 -2
BITMAP
000000
000000
001C00
001C00
001C00
001C00
001C00
001C00
001C00
001C00
001C00
001C00
001C00
001C00
001C00
001C00
001C00
001C00
001C00
001C00
001C00
000000
000000
000000
ENDCHAR

STARTCHAR jisx0208_262A
ENCODING 9770
SWIDTH 960 0
DWIDTH 24 0
BBX 24 24 0 -2
BITMAP
000000
000000
0381E0
0383E0
0387C0
038F80
039F00
03BE00
03FC00
037800
03F000
03FC00
03BC00
039E00
038F00
038F80
038780
0383C0
0381E0
0381F0
0380F0
000000
000000
000000
ENDCHAR

STARTCHAR jisx0208_262B
ENCODING 9771
SWIDTH 960 0
DWIDTH 24 0
BBX 24 24 0 -2
BITMAP
000000
000000
001C00
001C00
003E00
003E00
007F00
007700
007700
00F780
00E380
01E3C0
01C1C0
03C1E0
0380E0
0380E0
0780F0
070070
0F0078
0E0038
0E0038
000000
000000
000000
ENDCHAR

STARTCHAR jisx0208_262C
ENCODING 9772
SWIDTH 960 0
DWIDTH 24 0
BBX 24 24 0 -2
BITMAP
000000
000000
0E0038
0E0038
0F0078
0F0078
0F80F8
0F80F8
0F80F8
0FC1F8
0DC1B8
0FE3B8
0EE3B8
0EF7B8
0E7738
0E7738
0E7F38
0E3E38
0E3E38
0E1C38
0E1C38
000000
000000
000000
ENDCHAR

STARTCHAR jisx0208_262D
ENCODING 9773
SWIDTH 960 0
DWIDTH 24 0
BBX 24 24 0 -2
BITMAP
000000
000000
070070
078070
07C070
07C070
07E070
06F070
07F070
077870
073C70
073E70
071E70
070F70
070770
070770
0703F0
0701F0
0701F0
0700F0
070070
000000
000000
000000
ENDCHAR

STARTCHAR jisx0208_262E
ENCODING 9774
SWIDTH 960 0
DWIDTH 24 0
BBX 24 24 0 -2
BITMAP
000000
000000
07FFF0
07FFF0
07FFF0
000000
000000
000000
000000
03FFE0
03FFE0
03FFE0
000000
000000
000000
000000
000000
000000
07FFF0
07FFF0
07FFF0
000000
000000
000000
ENDCHAR

STARTCHAR jisx0208_262F
ENCODING 9775
SWIDTH 960 0
DWIDTH 24 0
BBX 24 24 0 -2
BITMAP
000000
000000
007E00
01FF80
03FFC0
07C3E0
0700E0
0F00F0
0E0070
0E0070
0E0070
0E0070
0E0070
0E0070
0E0070
0F00F0
0700E0
07C3E0
03FFC0
01FF80
007E00
000000
000000
000000
ENDCHAR

STARTCHAR jisx0208_2630
ENCODING 9776
SWIDTH 960 0
DWIDTH 24 0
BBX 24 24 0 -2
BITMAP
000000
000000
07FFF0
07FFF0
07FFF0
070070
070070
070070
070070
070070
070070
070070
070070
070070
070070
070070
070070
070070
070070
070070
070070
000000
000000
000000
ENDCHAR

STARTCHAR jisx0208_2631
ENCODING 9777
SWIDTH 960 0
DWIDTH 24 0
BBX 24 24 0 -2
BITMAP
000000
000000
03FF80
03FFE0
03FFE0
0380F0
038070
038070
038070
038070
0380F0
03FFE0
03FFE0
03FF80
038000
038000
038000
038000
038000
038000
038000
000000
000000
000000
ENDCHAR

STARTCHAR jisx0208_2632
ENCODING 9778
SWIDTH 960 0
DWIDTH 24 0
BBX 24 24 0 -2
BITMAP
000000
000000
07FFE0
07FFE0
07FFE0
03C000
01F000
00F800
007C00
003E00
001E00
003E00
007C00
007800
00F000
01E000
03E000
07C000
07BFE0
07FFE0
07FFE0
000000
000000
000000
ENDCHAR

STARTCHAR jisx0208_2633
ENCODING 9779
SWIDTH 960 0
DWIDTH 24 0
BBX 24 24 0 -2
BITMAP
000000
000000
0FFFF8
0FFFF8
0FFFF8
001C00
001C00
001C00
001C00
001C00
001C00
001C00
001C00
001C00
001C00
001C00
001C00
001C00
001C00
001C00
001C00
000000
000000
000000
ENDCHAR

STARTCHAR jisx0208_2634
ENCODING 9780
SWIDTH 960 0
DWIDTH 24 0
BBX 24 24 0 -2
BITMAP
000000
000000
03E3E0
07F7F0
0FFFF8
0F7F78
0E3E38
0E1C38
001C00
001C00
001C00
001C00
001C00
001C00
001C00
001C00
001C00
001C00
001C00
001C00
001C00
000000
000000
000000
ENDCHAR

STARTCHAR jisx0208_2635
ENCODING 9781
SWIDTH 960 0
DWIDTH 24 0
BBX 24 24 0 -2
BITMAP
000000
000000
001C00
001C00
007F00
01FFC0
03FFE0
07DDF0
071C70
0F1C78
0E1C38
0E1C38
0E1C38
0F1C78
071C70
07DDF0
03FFE0
01FFC0
007F00
001C00
001C00
000000
000000
000000
ENDCHAR

STARTCHAR jisx0208_2636
ENCODING 9782
SWIDTH 960 0
DWIDTH 24 0
BBX 24 24 0 -2
BITMAP
000000
000000
0780F0
07C1F0
03C1E0
01E3C0
00F780
00F780
007F00
003E00
003E00
001C00
007F00
007F00
00F780
01E3C0
01E3C0
03C1E0
0780F0
0F80F8
0F0078
000000
000000
000000
ENDCHAR

STARTCHAR jisx0208_2637
ENCODING 9783
SWIDTH 960 0
DWIDTH 24 0
BBX 24 24 0 -2
BITMAP
000000
000000
071C70
071C70
071C70
071C70
071C70
071C70
071C70
071C70
071C70
071C70
071C70
071C70
079CF0
03FFE0
03FFE0
00FF80
001C00
001C00
001C00
000000
000000
000000
ENDCHAR

STARTCHAR jisx0208_2638
ENCODING 9784
SWIDTH 960 0
DWIDTH 24 0
BBX 24 24 0 -2
BITMAP
000000
000000
007E00
01FF80
03FFC0
07C3E0
0700E0
0F00F0
0E0070
0E0070
0E0070
0E0070
0E0070
0F00F0
0700E0
0781E0
03C3C0
01E780
06E760
07E7E0
07E7E0
000000
000000
000000
ENDCHAR

STARTCHAR jisx0208_2641
ENCODING 9793
SWIDTH 960 0
DWIDTH 24 0
BBX 24 24 0 -2
BITMAP
000000
000000
000000
000000
000000
000000
000000
007E70
00FF70
01FF70
03C770
0383F0
0783E0
0703E0
0703C0
0703C0
0707B0
078FF8
07FF78
03FBF0
01F9E0
000000
000000
000000
ENDCHAR

STARTCHAR jisx0208_2642
ENCODING 9794
SWIDTH 960 0
DWIDTH 24 0
BBX 24 24 0 -2
BITMAP
000000
000000
001F80
007FE0
007FE0
00F0F0
00E070
01E070
01C0F0
01DFE0
03DFC0
039F80
0381E0
0380E0
0780E0
0700E0
0780E0
07C1E0
0FFFC0
0EFFC0
0E7F00
0E0000
0E0000
000000
ENDCHAR

STARTCHAR jisx0208_2643
ENCODING 9795
SWIDTH 960 0
DWIDTH 24 0
BBX 24 24 0 -2
BITMAP
000000
000000
000000
000000
000000
000000
000000
01F0F0
03F9F0
03FBF0
019F80
000F00
000E00
001E00
001C00
001C00
003C00
003800
003800
007800
007000
007000
007000
000000
ENDCHAR

STARTCHAR jisx0208_2644
ENCODING 9796
SWIDTH 960 0
DWIDTH 24 0
BBX 24 24 0 -2
BITMAP
000000
000000
003F00
007FC0
007FF0
0079F0
003E60
001F00
00FFC0
01FFC0
03E1E0
03C0E0
0780E0
0700E0
0700E0
0701E0
0703C0
0787C0
03FF80
03FF00
00FC00
000000
000000
000000
ENDCHAR

STARTCHAR jisx0208_2645
ENCODING 9797
SWIDTH 960 0
DWIDTH 24 0
BBX 24 24 0 -2
BITMAP
000000
000000
000000
000000
000000
000000
000000
003F00
007FC0
00FFE0
00E1E0
00E0C0
00FE00
007E00
01FE00
03C0C0
0381E0
0383E0
03FFC0
01FF80
00FE00
000000
000000
000000
ENDCHAR

STARTCHAR jisx0208_2646
ENCODING 9798
SWIDTH 960 0
DWIDTH 24 0
BBX 24 24 0 -2
BITMAP
000000
000000
007FE0
007FE0
007FE0
000780
001E00
003C00
007800
00F000
01E000
01C000
03C000
038000
038000
03C000
03FF00
01FF80
007FC0
0001C0
00FFC0
00FFC0
007F80
000000
ENDCHAR

STARTCHAR jisx0208_2647
ENCODING 9799
SWIDTH 960 0
DWIDTH 24 0
BBX 24 24 0 -2
BITMAP
000000
000000
000000
000000
000000
000000
000000
03EFC0
07FFE0
07FFF0
037870
00F070
00E070
00E0F0
01E0E0
01C0E0
01C1E0
03C1C0
0381C0
0383C0
038380
000380
000380
000000
ENDCHAR

STARTCHAR jisx0208_2648
ENCODING 9800
SWIDTH 960 0
DWIDTH 24 0
BBX 24 24 0 -2
BITMAP
000000
000000
001F80
007FE0
00FFE0
00F0F0
01E070
01C070
03C070
038070
03FFF0
07FFF0
07FFE0
0700E0
0701E0
0701C0
0703C0
078780
03FF80
03FF00
00FC00
000000
000000
000000
ENDCHAR

STARTCHAR jisx0208_2649
ENCODING 9801
SWIDTH 960 0
DWIDTH 24 0
BBX 24 24 0 -2
BITMAP
000000
000000
000000
000000
000000
000000
000000
001C00
001C00
001C00
003C00
003800
003800
007800
007000
007000
00F600
00EF00
00FF00
00FE00
007C00
000000
000000
000000
ENDCHAR

STARTCHAR jisx0208_264A
ENCODING 9802
SWIDTH 960 0
DWIDTH 24 0
BBX 24 24 0 -2
BITMAP
000000
000000
000000
000000
000000
000000
000000
00E1E0
00E3F0
00E7F0
01EF60
01DE00
01FC00
01F800
03FC00
039E00
038EE0
078EE0
070FE0
070FC0
070780
000000
000000
000000
ENDCHAR

STARTCHAR jisx0208_264B
ENCODING 9803
SWIDTH 960 0
DWIDTH 24 0
BBX 24 24 0 -2
BITMAP
000000
000000
007C00
007E00
007E00
000E00
000E00
000E00
000E00
001E00
003F00
007F00
007700
00F700
01E700
01E700
03C700
038700
0787E0
0707E0
0703E0
000000
000000
000000
ENDCHAR

STARTCHAR jisx0208_264C
ENCODING 9804
SWIDTH 960 0
DWIDTH 24 0
BBX 24 24 0 -2
BITMAP
000000
000000
000000
000000
000000
000000
000000
00E0E0
00E0E0
00E0E0
01E1E0
01C1C0
01C1C0
03C3C0
038380
038380
078780
070F60
07FFF0
0FFFF0
0EFBE0
0E0000
0E0000
000000
ENDCHAR

STARTCHAR jisx0208_264D
ENCODING 9805
SWIDTH 960 0
DWIDTH 24 0
BBX 24 24 0 -2
BITMAP
000000
000000
000000
000000
000000
000000
000000
0180E0
03C0E0
03C0E0
01E0E0
00E1E0
00E1C0
00F3C0
007780
007F80
006F00
007E00
007C00
007800
007000
000000
000000
000000
ENDCHAR

STARTCHAR jisx0208_264E
ENCODING 9806
SWIDTH 960 0
DWIDTH 24 0
BBX 24 24 0 -2
BITMAP
000000
000000
00FFE0
00FFE0
00FFE0
003800
007000
007000
007F80
003F80
00FF80
01E000
03C000
038000
038000
038000
03FF00
01FF80
00FFC0
0001C0
007FC0
007FC0
003F80
000000
ENDCHAR

STARTCHAR jisx0208_264F
ENCODING 9807
SWIDTH 960 0
DWIDTH 24 0
BBX 24 24 0 -2
BITMAP
000000
000000
000000
000000
000000
000000
000000
003F00
00FFC0
01FFC0
03E1E0
03C0E0
0780E0
0700E0
0700E0
0701E0
0703C0
0787C0
03FF80
03FF00
00FC00
000000
000000
000000
ENDCHAR

STARTCHAR jisx0208_2650
ENCODING 9808
SWIDTH 960 0
DWIDTH 24 0
BBX 24 24 0 -2
BITMAP
000000
000000
000000
000000
000000
000000
000030
03FFF8
07FFF8
07FFF0
037380
00F380
00E780
00E700
01E700
01CF00
03CE60
078EF0
0F8FF0
0F0FE0
0607C0
000000
000000
000000
ENDCHAR

STARTCHAR jisx0208_2651
ENCODING 9809
SWIDTH 960 0
DWIDTH 24 0
BBX 24 24 0 -2
BITMAP
000000
000000
000000
000000
000000
000000
000000
001F80
007FE0
00FFE0
01F0F0
01E070
03C070
038070
038070
0780F0
0781E0
07C3E0
0FFFC0
0DFF80
0E7E00
0E0000
0E0000
000000
ENDCHAR

STARTCHAR jisx0208_2652
ENCODING 9810
SWIDTH 960 0
DWIDTH 24 0
BBX 24 24 0 -2
BITMAP
000000
000000
000000
000000
000000
000000
000030
003FF8
00FFF8
01FFF0
03E1C0
03C0E0
0780E0
0700E0
0700E0
0701E0
0703C0
0787C0
03FF80
03FF00
00FC00
000000
000000
000000
ENDCHAR

STARTCHAR jisx0208_2653
ENCODING 9811
SWIDTH 960 0
DWIDTH 24 0
BBX 24 24 0 -2
BITMAP
000000
000000
000000
000000
000000
000000
0000C0
01FFE0
03FFE0
03FFC0
019C00
003800
003800
007800
007000
007000
00F600
00EF00
00FF00
00FE00
007C00
000000
000000
000000
ENDCHAR

STARTCHAR jisx0208_2654
ENCODING 9812
SWIDTH 960 0
DWIDTH 24 0
BBX 24 24 0 -2
BITMAP
000000
000000
000000
000000
000000
000000
000000
01C180
01C3C0
01C3E0
01C1E0
01C0E0
01C0E0
03C0E0
0380E0
0381E0
0381C0
0387C0
03FF80
01FF00
00FC00
000000
000000
000000
ENDCHAR

STARTCHAR jisx0208_2655
ENCODING 9813
SWIDTH 960 0
DWIDTH 24 0
BBX 24 24 0 -2
BITMAP
000000
000000
000000
000000
000700
000700
000700
003E00
00FFC0
01FFC0
03EDE0
039CE0
079CE0
073CE0
0739E0
0739C0
077FC0
03F780
03FF00
00FC00
006000
00E000
00E000
000000
ENDCHAR

STARTCHAR jisx0208_2656
ENCODING 9814
SWIDTH 960 0
DWIDTH 24 0
BBX 24 24 0 -2
BITMAP
000000
000000
000000
000000
000000
000000
000000
01E078
03F0F8
07F1F0
077BE0
033FC0
003780
003F00
001E00
003C00
007E00
00FE00
01EE60
03EEF0
07C7F0
0F87E0
0F03C0
000000
ENDCHAR

STARTCHAR jisx0208_2657
ENCODING 9815
SWIDTH 960 0
DWIDTH 24 0
BBX 24 24 0 -2
BITMAP
000000
000000
000000
000000
000700
000700
000700
078F60
0FCEF0
0FCEF0
05DE70
03DC70
039C70
07BCF0
0738E0
0739E0
077FC0
07F780
03FF00
01FC00
006000
00E000
00E000
000000
ENDCHAR

STARTCHAR jisx0208_2658
ENCODING 9816
SWIDTH 960 0
DWIDTH 24 0
BBX 24 24 0 -2
BITMAP
000000
000000
000000
000000
000000
000000
000000
0060C0
00F1E0
01F1F0
03EEF0
07CE78
078E38
0F1E38
0E1C38
0E1C38
0E3C78
0F78F0
0FFFF0
07FFE0
03EF80
000000
000000
000000
ENDCHAR

STARTCHAR jisx0208_2721
ENCODING 10017
SWIDTH 960 0
DWIDTH 24 0
BBX 24 24 0 -2
BITMAP
000000
000000
001C00
001C00
003E00
003E00
007F00
007700
007700
00F780
00E380
01E3C0
01C1C0
03C1E0
03BEE0
03FFE0
07FFF0
070070
0F0078
0E0038
0E0038
000000
000000
000000
ENDCHAR

STARTCHAR jisx0208_2722
ENCODING 10018
SWIDTH 960 0
DWIDTH 24 0
BBX 24 24 0 -2
BITMAP
000000
000000
03FFE0
03FFE0
03FFE0
038000
038000
038000
038000
03FF00
03FFC0
03FFE0
0381E0
0380F0
038070
038070
0380F0
0381E0
03FFE0
03FFC0
03FF00
000000
000000
000000
ENDCHAR

STARTCHAR jisx0208_2723
ENCODING 10019
SWIDTH 960 0
DWIDTH 24 0
BBX 24 24 0 -2
BITMAP
000000
000000
03FF00
03FFC0
03FFC0
0381E0
0380E0
0380E0
0381E0
03FFC0
03FF80
03FFE0
0381E0
0380F0
038070
038070
0380F0
0381E0
03FFE0
03FFC0
03FF00
000000
000000
000000
ENDCHAR

STARTCHAR jisx0208_2724
ENCODING 10020
SWIDTH 960 0
DWIDTH 24 0
BBX 24 24 0 -2
BITMAP
000000
000000
03FFE0
03FFE0
03FFE0
038000
038000
038000
038000
038000
038000
038000
038000
038000
038000
038000
038000
038000
038000
038000
038000
000000
000000
000000
ENDCHAR

STARTCHAR jisx0208_2725
ENCODING 10021
SWIDTH 960 0
DWIDTH 24 0
BBX 24 24 0 -2
BITMAP
000000
000000
01FFC0
01FFC0
01FFC0
01C1C0
01C1C0
01C1C0
01C1C0
01C1C0
01C1C0
01C1C0
01C1C0
01C1C0
03C1C0
0381C0
0381C0
0781C0
1F7FF0
1FFFF0
1FFFF0
1C0070
1C0070
000000
ENDCHAR

STARTCHAR jisx0208_2726
ENCODING 10022
SWIDTH 960 0
DWIDTH 24 0
BBX 24 24 0 -2
BITMAP
000000
000000
03FFE0
03FFE0
03FFE0
038000
038000
038000
038000
03FFC0
03FFC0
03FFC0
038000
038000
038000
038000
038000
038000
03FFE0
03FFE0
03FFE0
000000
000000
000000
ENDCHAR

STARTCHAR jisx0208_2727
ENCODING 10023
SWIDTH 960 0
DWIDTH 24 0
BBX 24 24 0 -2
BITMAP
00E700
00E700
00E700
0318E0
03FFE0
03FFE0
038000
038000
038000
038000
03FFC0
03FFC0
03FFC0
038000
038000
038000
038000
038000
03FFE0
03FFE0
03FFE0
000000
000000
000000
ENDCHAR

STARTCHAR jisx0208_2728
ENCODING 10024
SWIDTH 960 0
DWIDTH 24 0
BBX 24 24 0 -2
BITMAP
000000
000000
0E1C38
0F1C78
0F9CF8
039CE0
03DDE0
01DDC0
01DFC0
00FB80
01FFC0
03FFE0
03DDE0
079CF0
071C70
0F1C78
0E1C38
1E1C3C
1C1C1C
1C1C1C
1C1C1C
000000
000000
000000
ENDCHAR

STARTCHAR jisx0208_2729
ENCODING 10025
SWIDTH 960 0
DWIDTH 24 0
BBX 24 24 0 -2
BITMAP
000000
000000
00FF00
03FFC0
03FFC0
0781E0
0700E0
0700E0
0001E0
00FFC0
00FFC0
00FFE0
0001E0
0000F0
0E0070
0E0070
0F00F0
0781E0
07FFE0
03FFC0
00FF00
000000
000000
000000
ENDCHAR

STARTCHAR jisx0208_272A
ENCODING 10026
SWIDTH 960 0
DWIDTH 24 0
BBX 24 24 0 -2
BITMAP
000000
000000
070070
0700F0
0701F0
0701F0
0703F0
070770
070770
070F70
071E70
073E70
073C70
077870
07F070
06F070
07E070
07C070
07C070
078070
070070
000000
000000
000000
ENDCHAR

STARTCHAR jisx0208_272B
ENCODING 10027
SWIDTH 960 0
DWIDTH 24 0
BBX 24 24 0 -2
BITMAP
00E700
00FF00
07FF70
077EF0
0701F0
0701F0
0703F0
070770
070770
070F70
071E70
073E70
073C70
077870
07F070
06F070
07E070
07C070
07C070
078070
070070
000000
000000
000000
ENDCHAR

STARTCHAR jisx0208_272C
ENCODING 10028
SWIDTH 960 0
DWIDTH 24 0
BBX 24 24 0 -2
BITMAP
000000
000000
0380F0
0381F0
0383E0
0383C0
038780
038F00
039F00
03FE00
03FC00
03FE00
039E00
038F00
038780
0387C0
0383C0
0381E0
0380F0
0380F8
038078
000000
000000
000000
ENDCHAR

STARTCHAR jisx0208_272D
ENCODING 10029
SWIDTH 960 0
DWIDTH 24 0
BBX 24 24 0 -2
BITMAP
000000
000000
01FFE0
01FFE0
01FFE0
01C0E0
01C0E0
01C0E0
01C0E0
01C0E0
01C0E0
01C0E0
01C0E0
01C0E0
01C0E0
01C0E0
01C0E0
01C0E0
0FC0E0
0FC0E0
0F80E0
000000
000000
000000
ENDCHAR

STARTCHAR jisx0208_272E
ENCODING 10030
SWIDTH 960 0
DWIDTH 24 0
BBX 24 24 0 -2
BITMAP
000000
000000
0E0038
0E0038
0F0078
0F0078
0F80F8
0F80F8
0F80F8
0FC1F8
0DC1B8
0FE3B8
0EE3B8
0EF7B8
0E7738
0E7738
0E7F38
0E3E38
0E3E38
0E1C38
0E1C38
000000
000000
000000
ENDCHAR

STARTCHAR jisx0208_272F
ENCODING 10031
SWIDTH 960 0
DWIDTH 24 0
BBX 24 24 0 -2
BITMAP
000000
000000
070070
070070
070070
070070
070070
070070
070070
07FFF0
07FFF0
07FFF0
070070
070070
070070
070070
070070
070070
070070
070070
070070
000000
000000
000000
ENDCHAR

STARTCHAR jisx0208_2730
ENCODING 10032
SWIDTH 960 0
DWIDTH 24 0
BBX 24 24 0 -2
BITMAP
000000
000000
007E00
01FF80
03FFC0
07C3E0
0700E0
0F00F0
0E0070
0E0070
0E0070
0E0070
0E0070
0E0070
0E0070
0F00F0
0700E0
07C3E0
03FFC0
01FF80
007E00
000000
000000
000000
ENDCHAR

STARTCHAR jisx0208_2731
ENCODING 10033
SWIDTH 960 0
DWIDTH 24 0
BBX 24 24 0 -2
BITMAP
000000
000000
07FFF0
07FFF0
07FFF0
070070
070070
070070
070070
070070
070070
070070
070070
070070
070070
070070
070070
070070
070070
070070
070070
000000
000000
000000
ENDCHAR

STARTCHAR jisx0208_2732
ENCODING 10034
SWIDTH 960 0
DWIDTH 24 0
BBX 24 24 0 -2
BITMAP
000000
000000
03FF00
03FFC0
03FFE0
0381E0
0380F0
038070
038070
038070
0380F0
0381E0
03FFE0
03FFC0
03FF00
038000
038000
038000
038000
038000
038000
000000
000000
000000
ENDCHAR

STARTCHAR jisx0208_2733
ENCODING 10035
SWIDTH 960 0
DWIDTH 24 0
BBX 24 24 0 -2
BITMAP
000000
000000
007E00
01FF80
03FFC0
07C3E0
0701E0
0F00E0
0E0000
0E0000
0E0000
0E0000
0E0000
0E0070
0E0070
0F00F0
0700E0
07C3E0
03FFC0
01FF80
007E00
000000
000000
000000
ENDCHAR

STARTCHAR jisx0208_2734
ENCODING 10036
SWIDTH 960 0
DWIDTH 24 0
BBX 24 24 0 -2
BITMAP
000000
000000
07FFF0
07FFF0
07FFF0
001C00
001C00
001C00
001C00
001C00
001C00
001C00
001C00
001C00
001C00
001C00
001C00
001C00
001C00
001C00
001C00
000000
000000
000000
ENDCHAR

STARTCHAR jisx0208_2735
ENCODING 10037
SWIDTH 960 0
DWIDTH 24 0
BBX 24 24 0 -2
BITMAP
000000
000000
070070
070070
0780F0
0380E0
03C1E0
01C1C0
01E3C0
00E380
00F780
007700
007F00
003E00
003E00
001C00
003C00
007800
03F800
03F000
03E000
000000
000000
000000
ENDCHAR

STARTCHAR jisx0208_2736
ENCODING 10038
SWIDTH 960 0
DWIDTH 24 0
BBX 24 24 0 -2
BITMAP
000000
000000
001C00
001C00
007F00
01FFC0
03FFE0
07DDF0
071C70
0F1C78
0E1C38
0E1C38
0E1C38
0F1C78
071C70
07DDF0
03FFE0
01FFC0
007F00
001C00
001C00
000000
000000
000000
ENDCHAR

STARTCHAR jisx0208_2737
ENCODING 10039
SWIDTH 960 0
DWIDTH 24 0
BBX 24 24 0 -2
BITMAP
000000
000000
0780F0
07C1F0
03C1E0
01E3C0
00F780
00F780
007F00
003E00
003E00
001C00
007F00
007F00
00F780
01E3C0
01E3C0
03C1E0
0780F0
0F80F8
0F0078
000000
000000
000000
ENDCHAR

STARTCHAR jisx0208_2738
ENCODING 10040
SWIDTH 960 0
DWIDTH 24 0
BBX 24 24 0 -2
BITMAP
000000
000000
0700E0
0700E0
0700E0
0700E0
0700E0
0700E0
0700E0
0700E0
0700E0
0700E0
0700E0
0700E0
0700E0
0700E0
0700E0
0700E0
07FFF0
07FFF8
07FFF8
000038
000038
000000
ENDCHAR

STARTCHAR jisx0208_2739
ENCODING 10041
SWIDTH 960 0
DWIDTH 24 0
BBX 24 24 0 -2
BITMAP
000000
000000
0381C0
0381C0
0381C0
0381C0
0381C0
0381C0
0381C0
0381C0
03FFC0
03FFC0
01FFC0
0001C0
0001C0
0001C0
0001C0
0001C0
0001C0
0001C0
0001C0
000000
000000
000000
ENDCHAR

STARTCHAR jisx0208_273A
ENCODING 10042
SWIDTH 960 0
DWIDTH 24 0
BBX 24 24 0 -2
BITMAP
000000
000000
0E1C38
0E1C38
0E1C38
0E1C38
0E1C38
0E1C38
0E1C38
0E1C38
0E1C38
0E1C38
0E1C38
0E1C38
0E1C38
0E1C38
0E1C38
0E1C38
0FFFF8
0FFFF8
0FFFF8
000000
000000
000000
ENDCHAR

STARTCHAR jisx0208_273B
ENCODING 10043
SWIDTH 960 0
DWIDTH 24 0
BBX 24 24 0 -2
BITMAP
000000
000000
0E1C38
0E1C38
0E1C38
0E1C38
0E1C38
0E1C38
0E1C38
0E1C38
0E1C38
0E1C38
0E1C38
0E1C38
0E1C38
0E1C38
0E1C38
0E1C38
0FFFFC
0FFFFE
0FFFFE
00000E
00000E
000000
ENDCHAR

STARTCHAR jisx0208_273C
ENCODING 10044
SWIDTH 960 0
DWIDTH 24 0
BBX 24 24 0 -2
BITMAP
000000
000000
0FC000
0FC000
0FC000
01C000
01C000
01C000
01FF00
01FFC0
01FFE0
01C1E0
01C0F0
01C070
01C070
01C070
01C0F0
01C1E0
01FFE0
01FFC0
01FF00
000000
000000
000000
ENDCHAR

STARTCHAR jisx0208_273D
ENCODING 10045
SWIDTH 960 0
DWIDTH 24 0
BBX 24 24 0 -2
BITMAP
000000
000000
0E0070
0E0070
0E0070
0E0070
0E0070
0E0070
0FF870
0FFE70
0FFF70
0E0F70
0E0770
0E0370
0E0370
0E0370
0E0770
0E0F70
0FFF70
0FFE70
0FF870
000000
000000
000000
ENDCHAR

STARTCHAR jisx0208_273E
ENCODING 10046
SWIDTH 960 0
DWIDTH 24 0
BBX 24 24 0 -2
BITMAP
000000
000000
038000
038000
038000
038000
038000
038000
03FF00
03FFC0
03FFE0
0381E0
0380F0
038070
038070
038070
0380F0
0381E0
03FFE0
03FFC0
03FF00
000000
000000
000000
ENDCHAR

STARTCHAR jisx0208_273F
ENCODING 10047
SWIDTH 960 0
DWIDTH 24 0
BBX 24 24 0 -2
BITMAP
000000
000000
007E00
01FF80
03FFC0
07C3E0
0780E0
0700F0
000070
00FFF0
00FFF0
00FFF0
000070
0E0070
0E0070
0F00F0
0700E0
07C3E0
03FFC0
01FF80
007E00
000000
000000
000000
ENDCHAR

STARTCHAR jisx0208_2740
ENCODING 10048
SWIDTH 960 0
DWIDTH 24 0
BBX 24 24 0 -2
BITMAP
000000
000000
1C0FC0
1C3FF0
1C7FF8
1C7878
1CF03C
1CE01C
1CE01C
1FE01C
1FE01C
1FE01C
1CE01C
1CE01C
1CE01C
1CE01C
1CF03C
1C7878
1C7FF8
1C3FF0
1C0FC0
000000
000000
000000
ENDCHAR

STARTCHAR jisx0208_2741
ENCODING 10049
SWIDTH 960 0
DWIDTH 24 0
BBX 24 24 0 -2
BITMAP
000000
000000
00FFE0
01FFE0
03FFE0
03C0E0
0380E0
0380E0
03C0E0
03FFE0
01FFE0
00FFE0
01E0E0
01C0E0
03C0E0
0380E0
0380E0
0780E0
0700E0
0700E0
0700E0
000000
000000
000000
ENDCHAR

STARTCHAR jisx0208_2751
ENCODING 10065
SWIDTH 960 0
DWIDTH 24 0
BBX 24 24 0 -2
BITMAP
000000
000000
000000
000000
000000
000000
000000
007E00
01FF80
03FF80
03C3C0
0381C0
007FC0
01FFC0
01FFC0
03C1C0
0381C0
03C7C0
03FFC0
01FFC0
00FDC0
000000
000000
000000
ENDCHAR

STARTCHAR jisx0208_2752
ENCODING 10066
SWIDTH 960 0
DWIDTH 24 0
BBX 24 24 0 -2
BITMAP
000000
000000
0001C0
003FC0
00FFC0
01FF00
01E000
03DE00
037F80
03FF80
03C3C0
0381C0
0381C0
0381C0
0381C0
0381C0
0381C0
03C3C0
01FF80
01FF80
007E00
000000
000000
000000
ENDCHAR

STARTCHAR jisx0208_2753
ENCODING 10067
SWIDTH 960 0
DWIDTH 24 0
BBX 24 24 0 -2
BITMAP
000000
000000
000000
000000
000000
000000
000000
01FF00
01FF80
01FFC0
01C1C0
01C1C0
01FFC0
01FF80
01FFE0
01C1E0
01C0E0
01C1E0
01FFE0
01FFC0
01FF80
000000
000000
000000
ENDCHAR

STARTCHAR jisx0208_2754
ENCODING 10068
SWIDTH 960 0
DWIDTH 24 0
BBX 24 24 0 -2
BITMAP
000000
000000
000000
000000
000000
000000
000000
00FFC0
00FFC0
00FFC0
00E000
00E000
00E000
00E000
00E000
00E000
00E000
00E000
00E000
00E000
00E000
000000
000000
000000
ENDCHAR

STARTCHAR jisx0208_2755
ENCODING 10069
SWIDTH 960 0
DWIDTH 24 0
BBX 24 24 0 -2
BITMAP
000000
000000
000000
000000
000000
000000
000000
00FF80
00FF80
00FF80
00E380
00E380
00E380
00E380
00E380
00E380
01E380
01C380
03FFC0
07FFE0
07FFE0
0700E0
0700E0
000000
ENDCHAR

STARTCHAR jisx0208_2756
ENCODING 10070
SWIDTH 960 0
DWIDTH 24 0
BBX 24 24 0 -2
BITMAP
000000
000000
000000
000000
000000
000000
000000
003E00
00FF80
01FFC0
01E3C0
03C1E0
03BEE0
03FFE0
03FFE0
038000
03C0E0
01E1E0
01FFE0
00FFC0
003F00
000000
000000
000000
ENDCHAR

STARTCHAR jisx0208_2757
ENCODING 10071
SWIDTH 960 0
DWIDTH 24 0
BBX 24 24 0 -2
BITMAP
000000
000000
000000
007700
007700
007700
000000
003E00
00FF80
01FFC0
01E3C0
03C1E0
03BEE0
03FFE0
03FFE0
038000
03C0E0
01E1E0
01FFE0
00FFC0
003F00
000000
000000
000000
ENDCHAR

STARTCHAR jisx0208_2758
ENCODING 10072
SWIDTH 960 0
DWIDTH 24 0
BBX 24 24 0 -2
BITMAP
000000
000000
000000
000000
000000
000000
000000
079CF0
07DDF0
07DDF0
01DFC0
00DB80
00FF80
007F00
01FFC0
01DDC0
03DDE0
039CE0
079CF0
071C70
071C70
000000
000000
000000
ENDCHAR

STARTCHAR jisx0208_2759
ENCODING 10073
SWIDTH 960 0
DWIDTH 24 0
BBX 24 24 0 -2
BITMAP
000000
000000
000000
000000
000000
000000
000000
007F00
00FF80
01FFC0
01C1C0
01C1C0
003FC0
003F80
003FE0
0381E0
0380E0
03C1E0
01FFE0
01FFC0
007F80
000000
000000
000000
ENDCHAR

STARTCHAR jisx0208_275A
ENCODING 10074
SWIDTH 960 0
DWIDTH 24 0
BBX 24 24 0 -2
BITMAP
000000
000000
000000
000000
000000
000000
000000
0381C0
0383C0
0387C0
0387C0
038FC0
039DC0
03BDC0
03BDC0
03F9C0
0371C0
03F1C0
03E1C0
03C1C0
0381C0
000000
000000
000000
ENDCHAR

STARTCHAR jisx0208_275B
ENCODING 10075
SWIDTH 960 0
DWIDTH 24 0
BBX 24 24 0 -2
BITMAP
000000
000000
000000
000000
00E700
00FF00
00FF00
037EC0
0381C0
0387C0
0387C0
038FC0
039DC0
03BDC0
03BDC0
03F9C0
0371C0
03F1C0
03E1C0
03C1C0
0381C0
000000
000000
000000
ENDCHAR

STARTCHAR jisx0208_275C
ENCODING 10076
SWIDTH 960 0
DWIDTH 24 0
BBX 24 24 0 -2
BITMAP
000000
000000
000000
000000
000000
000000
000000
01C1C0
01C3C0
01C7C0
01C700
01CF00
01FE00
01FF00
01FF80
01C780
01C3C0
01C1C0
01C1E0
01C0E0
01C0E0
000000
000000
000000
ENDCHAR

STARTCHAR jisx0208_275D
ENCODING 10077
SWIDTH 960 0
DWIDTH 24 0
BBX 24 24 0 -2
BITMAP
000000
000000
000000
000000
000000
000000
000000
00FFC0
00FFC0
00FFC0
00E1C0
00E1C0
00E1C0
00E1C0
00E1C0
00E1C0
00E1C0
00E1C0
03E1C0
03E1C0
03C1C0
000000
000000
000000
ENDCHAR

STARTCHAR jisx0208_275E
ENCODING 10078
SWIDTH 960 0
DWIDTH 24 0
BBX 24 24 0 -2
BITMAP
000000
000000
000000
000000
000000
000000
000000
0380E0
0380E0
03C1E0
03C1E0
03C1E0
03E3E0
03E3E0
03F7E0
0376E0
03FEE0
03BEE0
03BEE0
039CE0
039CE0
000000
000000
000000
ENDCHAR

STARTCHAR jisx0208_275F
ENCODING 10079
SWIDTH 960 0
DWIDTH 24 0
BBX 24 24 0 -2
BITMAP
000000
000000
000000
000000
000000
000000
000000
0381C0
0381C0
0381C0
0381C0
0381C0
03FFC0
03FFC0
03FFC0
0381C0
0381C0
0381C0
0381C0
0381C0
0381C0
000000
000000
000000
ENDCHAR

STARTCHAR jisx0208_2760
ENCODING 10080
SWIDTH 960 0
DWIDTH 24 0
BBX 24 24 0 -2
BITMAP
000000
000000
000000
000000
000000
000000
000000
007E00
01FF80
03FFC0
03C3C0
0781E0
0700E0
0700E0
0700E0
0700E0
0781E0
03C3C0
03FFC0
01FF80
007E00
000000
000000
000000
ENDCHAR

STARTCHAR jisx0208_2761
ENCODING 10081
SWIDTH 960 0
DWIDTH 24 0
BBX 24 24 0 -2
BITMAP
000000
000000
000000
000000
000000
000000
000000
03FFC0
03FFC0
03FFC0
0381C0
0381C0
0381C0
0381C0
0381C0
0381C0
0381C0
0381C0
0381C0
0381C0
0381C0
000000
000000
000000
ENDCHAR

STARTCHAR jisx0208_2762
ENCODING 10082
SWIDTH 960 0
DWIDTH 24 0
BBX 24 24 0 -2
BITMAP
000000
000000
000000
000000
000000
000000
000000
01BF00
01FFC0
01FFC0
01E1E0
01C0E0
01C0E0
01C0E0
01C0E0
01C0E0
01E1E0
01FFC0
01FFC0
01BF00
01C000
01C000
01C000
000000
ENDCHAR

STARTCHAR jisx0208_2763
ENCODING 10083
SWIDTH 960 0
DWIDTH 24 0
BBX 24 24 0 -2
BITMAP
000000
000000
000000
000000
000000
000000
000000
003E00
00FF80
01FFC0
01E3E0
03C1E0
0380E0
038000
038000
0380E0
03C1E0
01E3E0
01FFC0
00FF80
003E00
000000
000000
000000
ENDCHAR

STARTCHAR jisx0208_2764
ENCODING 10084
SWIDTH 960 0
DWIDTH 24 0
BBX 24 24 0 -2
BITMAP
000000
000000
000000
000000
000000
000000
000000
03FFE0
03FFE0
03FFE0
001C00
001C00
001C00
001C00
001C00
001C00
001C00
001C00
001C00
001C00
001C00
000000
000000
000000
ENDCHAR

STARTCHAR jisx0208_2765
ENCODING 10085
SWIDTH 960 0
DWIDTH 24 0
BBX 24 24 0 -2
BITMAP
000000
000000
000000
000000
000000
000000
000000
01C0E0
01C0E0
01E1E0
00E1C0
00F3C0
007380
007780
003700
003F00
001E00
001E00
001C00
003C00
00F800
00F800
00F000
000000
ENDCHAR

STARTCHAR jisx0208_2766
ENCODING 10086
SWIDTH 960 0
DWIDTH 24 0
BBX 24 24 0 -2
BITMAP
000000
000000
001C00
001C00
001C00
001C00
001C00
01DFC0
07FBF0
07FFF0
0F3E78
0E1C38
0E1C38
0E1C38
0E1C38
0E1C38
0F3E78
07FFF0
07FFF0
01DBC0
001C00
001C00
001C00
000000
ENDCHAR

STARTCHAR jisx0208_2767
ENCODING 10087
SWIDTH 960 0
DWIDTH 24 0
BBX 24 24 0 -2
BITMAP
000000
000000
000000
000000
000000
000000
000000
0381C0
03C3C0
03E7C0
01E780
00EF00
007E00
007E00
003C00
00FF00
00EF00
01E780
03C3C0
03C3C0
0381C0
000000
000000
000000
ENDCHAR

STARTCHAR jisx0208_2768
ENCODING 10088
SWIDTH 960 0
DWIDTH 24 0
BBX 24 24 0 -2
BITMAP
000000
000000
000000
000000
000000
000000
000000
01C1C0
01C1C0
01C1C0
01C1C0
01C1C0
01C1C0
01C1C0
01C1C0
01C1C0
01C1C0
01C1C0
01FFE0
01FFF0
01FFF0
000070
000070
000000
ENDCHAR

STARTCHAR jisx0208_2769
ENCODING 10089
SWIDTH 960 0
DWIDTH 24 0
BBX 24 24 0 -2
BITMAP
000000
000000
000000
000000
000000
000000
000000
01C1C0
01C1C0
01C1C0
01C1C0
01C1C0
01C1C0
01FFC0
01FFC0
00FFC0
0001C0
0001C0
0001C0
0001C0
0001C0
000000
000000
000000
ENDCHAR

STARTCHAR jisx0208_276A
ENCODING 10090
SWIDTH 960 0
DWIDTH 24 0
BBX 24 24 0 -2
BITMAP
000000
000000
000000
000000
000000
000000
000000
071C70
071C70
071C70
071C70
071C70
071C70
071C70
071C70
071C70
071C70
071C70
07FFF0
07FFF0
07FFF0
000000
000000
000000
ENDCHAR

STARTCHAR jisx0208_276B
ENCODING 10091
SWIDTH 960 0
DWIDTH 24 0
BBX 24 24 0 -2
BITMAP
000000
000000
000000
000000
000000
000000
000000
071C70
071C70
071C70
071C70
071C70
071C70
071C70
071C70
071C70
071C70
071C70
07FFF0
07FFF8
07FFF8
000038
000038
000000
ENDCHAR

STARTCHAR jisx0208_276C
ENCODING 10092
SWIDTH 960 0
DWIDTH 24 0
BBX 24 24 0 -2
BITMAP
000000
000000
000000
000000
000000
000000
000000
03E000
03E000
03E000
00E000
00FF00
00FFC0
00FFC0
00E1E0
00E0E0
00E0E0
00E1E0
00FFC0
00FFC0
00FF00
000000
000000
000000
ENDCHAR

STARTCHAR jisx0208_276D
ENCODING 10093
SWIDTH 960 0
DWIDTH 24 0
BBX 24 24 0 -2
BITMAP
000000
000000
000000
000000
000000
000000
000000
070070
070070
070070
070070
07F870
07FE70
07FE70
070F70
070770
070770
070F70
07FE70
07FE70
07F870
000000
000000
000000
ENDCHAR

STARTCHAR jisx0208_276E
ENCODING 10094
SWIDTH 960 0
DWIDTH 24 0
BBX 24 24 0 -2
BITMAP
000000
000000
000000
000000
000000
000000
000000
01C000
01C000
01C000
01C000
01FE00
01FF80
01FF80
01C3C0
01C1C0
01C1C0
01C3C0
01FF80
01FF80
01FE00
000000
000000
000000
ENDCHAR

STARTCHAR jisx0208_276F
ENCODING 10095
SWIDTH 960 0
DWIDTH 24 0
BBX 24 24 0 -2
BITMAP
000000
000000
000000
000000
000000
000000
000000
003E00
00FF80
01FFC0
03E3C0
03C1E0
03BEE0
003FE0
003FE0
0380E0
03C1E0
03E3C0
01FFC0
00FF80
003E00
000000
000000
000000
ENDCHAR

STARTCHAR jisx0208_2770
ENCODING 10096
SWIDTH 960 0
DWIDTH 24 0
BBX 24 24 0 -2
BITMAP
000000
000000
000000
000000
000000
000000
000000
0707C0
071FF0
071FF0
073C78
073838
07F838
07F838
07F838
073838
073838
073C78
071FF0
071FF0
0707C0
000000
000000
000000
ENDCHAR

STARTCHAR jisx0208_2771
ENCODING 10097
SWIDTH 960 0
DWIDTH 24 0
BBX 24 24 0 -2
BITMAP
000000
000000
000000
000000
000000
000000
000000
007FC0
00FFC0
01FFC0
01C1C0
01C1C0
01C1C0
01FFC0
00FFC0
00FFC0
01E1C0
01C1C0
03C1C0
0381C0
0381C0
000000
000000
000000
ENDCHAR

STARTCHAR jisx0208_2821
ENCODING 10273
SWIDTH 960 0
DWIDTH 24 0
BBX 24 24 0 -2
BITMAP
000000
000000
000000
000000
000000
000000
000000
000000
000000
000000
FFFFFF
FFFFFF
000000
000000
000000
000000
000000
000000
000000
000000
000000
000000
000000
000000
ENDCHAR

STARTCHAR jisx0208_2822
ENCODING 10274
SWIDTH 960 0
DWIDTH 24 0
BBX 24 24 0 -2
BITMAP
001800
001800
001800
001800
001800
001800
001800
001800
001800
001800
001800
001800
001800
001800
001800
001800
001800
001800
001800
001800
001800
001800
001800
001800
ENDCHAR

STARTCHAR jisx0208_2823
ENCODING 10275
SWIDTH 960 0
DWIDTH 24 0
BBX 24 24 0 -2
BITMAP
000000
000000
000000
000000
000000
000000
000000
000000
000000
000000
001FFF
001FFF
001800
001800
001800
001800
001800
001800
001800
001800
001800
001800
001800
001800
ENDCHAR

STARTCHAR jisx0208_2824
ENCODING 10276
SWIDTH 960 0
DWIDTH 24 0
BBX 24 24 0 -2
BITMAP
000000
000000
000000
000000
000000
000000
000000
000000
000000
000000
FFF800
FFF800
001800
001800
001800
001800
001800
001800
001800
001800
001800
001800
001800
001800
ENDCHAR

STARTCHAR jisx0208_2825
ENCODING 10277
SWIDTH 960 0
DWIDTH 24 0
BBX 24 24 0 -2
BITMAP
001800
001800
001800
001800
001800
001800
001800
001800
001800
001800
FFF800
FFF800
000000
000000
000000
000000
000000
000000
000000
000000
000000
000000
000000
000000
ENDCHAR

STARTCHAR jisx0208_2826
ENCODING 10278
SWIDTH 960 0
DWIDTH 24 0
BBX 24 24 0 -2
BITMAP
001800
001800
001800
001800
001800
001800
001800
001800
001800
001800
001FFF
001FFF
000000
000000
000000
000000
000000
000000
000000
000000
000000
000000
000000
000000
ENDCHAR

STARTCHAR jisx0208_2827
ENCODING 10279
SWIDTH 960 0
DWIDTH 24 0
BBX 24 24 0 -2
BITMAP
001800
001800
001800
001800
001800
001800
001800
001800
001800
001800
001FFF
001FFF
001800
001800
001800
001800
001800
001800
001800
001800
001800
001800
001800
001800
ENDCHAR

STARTCHAR jisx0208_2828
ENCODING 10280
SWIDTH 960 0
DWIDTH 24 0
BBX 24 24 0 -2
BITMAP
000000
000000
000000
000000
000000
000000
000000
000000
000000
000000
FFFFFF
FFFFFF
001800
001800
001800
001800
001800
001800
001800
001800
001800
001800
001800
001800
ENDCHAR

STARTCHAR jisx0208_2829
ENCODING 10281
SWIDTH 960 0
DWIDTH 24 0
BBX 24 24 0 -2
BITMAP
001800
001800
001800
001800
001800
001800
001800
001800
001800
001800
FFF800
FFF800
001800
001800
001800
001800
001800
001800
001800
001800
001800
001800
001800
001800
ENDCHAR

STARTCHAR jisx0208_282A
ENCODING 10282
SWIDTH 960 0
DWIDTH 24 0
BBX 24 24 0 -2
BITMAP
001800
001800
001800
001800
001800
001800
001800
001800
001800
001800
FFFFFF
FFFFFF
000000
000000
000000
000000
000000
000000
000000
000000
000000
000000
000000
000000
ENDCHAR

STARTCHAR jisx0208_282B
ENCODING 10283
SWIDTH 960 0
DWIDTH 24 0
BBX 24 24 0 -2
BITMAP
001800
001800
001800
001800
001800
001800
001800
001800
001800
001800
FFFFFF
FFFFFF
001800
001800
001800
001800
001800
001800
001800
001800
001800
001800
001800
001800
ENDCHAR

STARTCHAR jisx0208_282C
ENCODING 10284
SWIDTH 960 0
DWIDTH 24 0
BBX 24 24 0 -2
BITMAP
000000
000000
000000
000000
000000
000000
000000
000000
000000
000000
FFFFFF
FFFFFF
FFFFFF
000000
000000
000000
000000
000000
000000
000000
000000
000000
000000
000000
ENDCHAR

STARTCHAR jisx0208_282D
ENCODING 10285
SWIDTH 960 0
DWIDTH 24 0
BBX 24 24 0 -2
BITMAP
001C00
001C00
001C00
001C00
001C00
001C00
001C00
001C00
001C00
001C00
001C00
001C00
001C00
001C00
001C00
001C00
001C00
001C00
001C00
001C00
001C00
001C00
001C00
001C00
ENDCHAR

STARTCHAR jisx0208_282E
ENCODING 10286
SWIDTH 960 0
DWIDTH 24 0
BBX 24 24 0 -2
BITMAP
000000
000000
000000
000000
000000
000000
000000
000000
000000
000000
001FFF
001FFF
001FFF
001C00
001C00
001C00
001C00
001C00
001C00
001C00
001C00
001C00
001C00
001C00
ENDCHAR

STARTCHAR jisx0208_282F
ENCODING 10287
SWIDTH 960 0
DWIDTH 24 0
BBX 24 24 0 -2
BITMAP
000000
000000
000000
000000
000000
000000
000000
000000
000000
000000
FFFC00
FFFC00
FFFC00
001C00
001C00
001C00
001C00
001C00
001C00
001C00
001C00
001C00
001C00
001C00
ENDCHAR

STARTCHAR jisx0208_2830
ENCODING 10288
SWIDTH 960 0
DWIDTH 24 0
BBX 24 24 0 -2
BITMAP
001C00
001C00
001C00
001C00
001C00
001C00
001C00
001C00
001C00
001C00
FFFC00
FFFC00
FFFC00
000000
000000
000000
000000
000000
000000
000000
000000
000000
000000
000000
ENDCHAR

STARTCHAR jisx0208_2831
ENCODING 10289
SWIDTH 960 0
DWIDTH 24 0
BBX 24 24 0 -2
BITMAP
001C00
001C00
001C00
001C00
001C00
001C00
001C00
001C00
001C00
001C00
001FFF
001FFF
001FFF
000000
000000
000000
000000
000000
000000
000000
000000
000000
000000
000000
ENDCHAR

STARTCHAR jisx0208_2832
ENCODING 10290
SWIDTH 960 0
DWIDTH 24 0
BBX 24 24 0 -2
BITMAP
001C00
001C00
001C00
001C00
001C00
001C00
001C00
001C00
001C00
001C00
001FFF
001FFF
001FFF
001C00
001C00
001C00
001C00
001C00
001C00
001C00
001C00
001C00
001C00
001C00
ENDCHAR

STARTCHAR jisx0208_2833
ENCODING 10291
SWIDTH 960 0
DWIDTH 24 0
BBX 24 24 0 -2
BITMAP
000000
000000
000000
000000
000000
000000
000000
000000
000000
000000
FFFFFF
FFFFFF
FFFFFF
001C00
001C00
001C00
001C00
001C00
001C00
001C00
001C00
001C00
001C00
001C00
ENDCHAR

STARTCHAR jisx0208_2834
ENCODING 10292
SWIDTH 960 0
DWIDTH 24 0
BBX 24 24 0 -2
BITMAP
001C00
001C00
001C00
001C00
001C00
001C00
001C00
001C00
001C00
001C00
FFFC00
FFFC00
FFFC00
001C00
001C00
001C00
001C00
001C00
001C00
001C00
001C00
001C00
001C00
001C00
ENDCHAR

STARTCHAR jisx0208_2835
ENCODING 10293
SWIDTH 960 0
DWIDTH 24 0
BBX 24 24 0 -2
BITMAP
001C00
001C00
001C00
001C00
001C00
001C00
001C00
001C00
001C00
001C00
FFFFFF
FFFFFF
FFFFFF
000000
000000
000000
000000
000000
000000
000000
000000
000000
000000
000000
ENDCHAR

STARTCHAR jisx0208_2836
ENCODING 10294
SWIDTH 960 0
DWIDTH 24 0
BBX 24 24 0 -2
BITMAP
001C00
001C00
001C00
001C00
001C00
001C00
001C00
001C00
001C00
001C00
FFFFFF
FFFFFF
FFFFFF
001C00
001C00
001C00
001C00
001C00
001C00
001C00
001C00
001C00
001C00
001C00
ENDCHAR

STARTCHAR jisx0208_2837
ENCODING 10295
SWIDTH 960 0
DWIDTH 24 0
BBX 24 24 0 -2
BITMAP
001C00
001C00
001C00
001C00
001C00
001C00
001C00
001C00
001C00
001C00
001FFF
001FFF
001C00
001C00
001C00
001C00
001C00
001C00
001C00
001C00
001C00
001C00
001C00
001C00
ENDCHAR

STARTCHAR jisx0208_2838
ENCODING 10296
SWIDTH 960 0
DWIDTH 24 0
BBX 24 24 0 -2
BITMAP
000000
000000
000000
000000
000000
000000
000000
000000
000000
000000
FFFFFF
FFFFFF
FFFFFF
001800
001800
001800
001800
001800
001800
001800
001800
001800
001800
001800
ENDCHAR

STARTCHAR jisx0208_2839
ENCODING 10297
SWIDTH 960 0
DWIDTH 24 0
BBX 24 24 0 -2
BITMAP
001C00
001C00
001C00
001C00
001C00
001C00
001C00
001C00
001C00
001C00
FFFC00
FFFC00
001C00
001C00
001C00
001C00
001C00
001C00
001C00
001C00
001C00
001C00
001C00
001C00
ENDCHAR

STARTCHAR jisx0208_283A
ENCODING 10298
SWIDTH 960 0
DWIDTH 24 0
BBX 24 24 0 -2
BITMAP
001800
001800
001800
001800
001800
001800
001800
001800
001800
001800
FFFFFF
FFFFFF
FFFFFF
000000
000000
000000
000000
000000
000000
000000
000000
000000
000000
000000
ENDCHAR

STARTCHAR jisx0208_283B
ENCODING 10299
SWIDTH 960 0
DWIDTH 24 0
BBX 24 24 0 -2
BITMAP
001800
001800
001800
001800
001800
001800
001800
001800
001800
001800
FFFFFF
FFFFFF
FFFFFF
001800
001800
001800
001800
001800
001800
001800
001800
001800
001800
001800
ENDCHAR

STARTCHAR jisx0208_283C
ENCODING 10300
SWIDTH 960 0
DWIDTH 24 0
BBX 24 24 0 -2
BITMAP
001800
001800
001800
001800
001800
001800
001800
001800
001800
001800
001FFF
001FFF
001FFF
001800
001800
001800
001800
001800
001800
001800
001800
001800
001800
001800
ENDCHAR

STARTCHAR jisx0208_283D
ENCODING 10301
SWIDTH 960 0
DWIDTH 24 0
BBX 24 24 0 -2
BITMAP
000000
000000
000000
000000
000000
000000
000000
000000
000000
000000
FFFFFF
FFFFFF
001C00
001C00
001C00
001C00
001C00
001C00
001C00
001C00
001C00
001C00
001C00
001C00
ENDCHAR

STARTCHAR jisx0208_283E
ENCODING 10302
SWIDTH 960 0
DWIDTH 24 0
BBX 24 24 0 -2
BITMAP
001800
001800
001800
001800
001800
001800
001800
001800
001800
001800
FFF800
FFF800
FFF800
001800
001800
001800
001800
001800
001800
001800
001800
001800
001800
001800
ENDCHAR

STARTCHAR jisx0208_283F
ENCODING 10303
SWIDTH 960 0
DWIDTH 24 0
BBX 24 24 0 -2
BITMAP
001C00
001C00
001C00
001C00
001C00
001C00
001C00
001C00
001C00
001C00
FFFFFF
FFFFFF
000000
000000
000000
000000
000000
000000
000000
000000
000000
000000
000000
000000
ENDCHAR

STARTCHAR jisx0208_2840
ENCODING 10304
SWIDTH 960 0
DWIDTH 24 0
BBX 24 24 0 -2
BITMAP
001C00
001C00
001C00
001C00
001C00
001C00
001C00
001C00
001C00
001C00
FFFFFF
FFFFFF
001C00
001C00
001C00
001C00
001C00
001C00
001C00
001C00
001C00
001C00
001C00
001C00
ENDCHAR

STARTCHAR jisx0208_2D21
ENCODING 11553
SWIDTH 960 0
DWIDTH 24 0
BBX 24 24 0 -2
BITMAP
000000
01FF00
0783C0
0E00E0
1C0070
383838
70781C
61F80C
E1B80E
C03806
C03806
C03806
C03806
C03806
C03806
E0380E
60380C
70381C
383838
1C0070
0E00E0
0783C0
01FF00
000000
ENDCHAR

STARTCHAR jisx0208_2D22
ENCODING 11554
SWIDTH 960 0
DWIDTH 24 0
BBX 24 24 0 -2
BITMAP
000000
01FF00
0783C0
0E00E0
1C0070
38FE38
71FF1C
63C78C
E3838E
C38386
C00786
C01F06
C07E06
C0F806
C1E006
E3C00E
63800C
73FF9C
3BFFB8
1C0070
0E00E0
0783C0
01FF00
000000
ENDCHAR

STARTCHAR jisx0208_2D23
ENCODING 11555
SWIDTH 960 0
DWIDTH 24 0
BBX 24 24 0 -2
BITMAP
000000
01FF00
0783C0
0E00E0
1C0070
38FE38
71FF1C
63C78C
E3838E
C00786
C07F06
C07E06
C00706
C00386
C38386
E3838E
63C78C
71FF1C
38FE38
1C0070
0E00E0
0783C0
01FF00
000000
ENDCHAR

STARTCHAR jisx0208_2D24
ENCODING 11556
SWIDTH 960 0
DWIDTH 24 0
BBX 24 24 0 -2
BITMAP
000000
01FF00
0783C0
0E00E0
1C0070
380E38
701E1C
603E0C
E07E0E
C0EE06
C0EE06
C1CE06
C3CE06
C78E06
CFFFC6
EFFFCE
600E0C
700E1C
380E38
1C0070
0E00E0
0783C0
01FF00
000000
ENDCHAR

STARTCHAR jisx0208_2D25
ENCODING 11557
SWIDTH 960 0
DWIDTH 24 0
BBX 24 24 0 -2
BITMAP
000000
01FF00
0783C0
0E00E0
1C0070
39FF38
71FF1C
61C00C
E1C00E
C37E06
C3FF06
C3C786
C38386
C00386
C00386
E3838E
63C78C
71FF1C
38FE38
1C0070
0E00E0
0783C0
01FF00
000000
ENDCHAR

STARTCHAR jisx0208_2D26
ENCODING 11558
SWIDTH 960 0
DWIDTH 24 0
BBX 24 24 0 -2
BITMAP
000000
01FF00
0783C0
0E00E0
1C0070
38FE38
71FF1C
63C78C
E3838E
C37E06
C3FF06
C3C786
C38386
C38386
C38386
E3838E
63C78C
71FF1C
38FE38
1C0070
0E00E0
0783C0
01FF00
000000
ENDCHAR

STARTCHAR jisx0208_2D27
ENCODING 11559
SWIDTH 960 0
DWIDTH 24 0
BBX 24 24 0 -2
BITMAP
000000
01FF00
0783C0
0E00E0
1C0070
3BFFB8
73FF9C
60070C
E00F0E
C00E06
C01E06
C01C06
C03C06
C03806
C03806
E0780E
60700C
70701C
387038
1C0070
0E00E0
0783C0
01FF00
000000
ENDCHAR

STARTCHAR jisx0208_2D28
ENCODING 11560
SWIDTH 960 0
DWIDTH 24 0
BBX 24 24 0 -2
BITMAP
000000
01FF00
0783C0
0E00E0
1C0070
38FE38
71FF1C
63C78C
E3838E
C3C786
C1FF06
C1FF06
C3C786
C38386
C38386
E3838E
63C78C
71FF1C
38FE38
1C0070
0E00E0
0783C0
01FF00
000000
ENDCHAR

STARTCHAR jisx0208_2D29
ENCODING 11561
SWIDTH 960 0
DWIDTH 24 0
BBX 24 24 0 -2
BITMAP
000000
01FF00
0783C0
0E00E0
1C0070
38FE38
71FF1C
63C78C
E3838E
C38386
C38386
C38386
C3C786
C1FF86
C0FB86
E3838E
63C78C
71FF1C
38FE38
1C0070
0E00E0
0783C0
01FF00
000000
ENDCHAR

STARTCHAR jisx0208_2D2A
ENCODING 11562
SWIDTH 960 0
DWIDTH 24 0
BBX 24 24 0 -2
BITMAP
000000
01FF00
0783C0
0E00E0
1C0070
371FB8
6F3FDC
6F79EC
E770EE
C770E6
C770E6
C770E6
C770E6
C770E6
C770E6
E770EE
6779EC
773FDC
371FB8
1C0070
0E00E0
0783C0
01FF00
000000
ENDCHAR

STARTCHAR jisx0208_2D2B
ENCODING 11563
SWIDTH 960 0
DWIDTH 24 0
BBX 24 24 0 -2
BITMAP
000000
01FF00
0783C0
0E00E0
1C0070
3701B8
6F03DC
6F03CC
E701CE
C701C6
C701C6
C701C6
C701C6
C701C6
C701C6
E701CE
6701CC
7701DC
3701B8
1C0070
0E00E0
0783C0
01FF00
000000
ENDCHAR

STARTCHAR jisx0208_2D2C
ENCODING 11564
SWIDTH 960 0
DWIDTH 24 0
BBX 24 24 0 -2
BITMAP
000000
01FF00
0783C0
0E00E0
1C0070
371FB8
6F3FDC
6F79EC
E770EE
C770E6
C701E6
C707C6
C70F86
C71E06
C73C06
E7380E
67780C
777FDC
377FF8
1C0070
0E00E0
0783C0
01FF00
000000
ENDCHAR

STARTCHAR jisx0208_2D2D
ENCODING 11565
SWIDTH 960 0
DWIDTH 24 0
BBX 24 24 0 -2
BITMAP
000000
01FF00
0783C0
0E00E0
1C0070
371FB8
6F3FDC
6F79EC
E770EE
C701E6
C71FC6
C71FC6
C701E6
C700E6
C770E6
E770EE
6779EC
773FDC
371FB8
1C0070
0E00E0
0783C0
01FF00
000000
ENDCHAR

STARTCHAR jisx0208_2D2E
ENCODING 11566
SWIDTH 960 0
DWIDTH 24 0
BBX 24 24 0 -2
BITMAP
000000
01FF00
0783C0
0E00E0
1C0070
3701B8
6F03DC
6F07CC
E707CE
C70DC6
C71DC6
C73DC6
C739C6
C771C6
C6FFF6
E6FFEE
6701CC
7701DC
3701B8
1C0070
0E00E0
0783C0
01FF00
000000
ENDCHAR

STARTCHAR jisx0208_2D2F
ENCODING 11567
SWIDTH 960 0
DWIDTH 24 0
BBX 24 24 0 -2
BITMAP
000000
01FF00
0783C0
0E00E0
1C0070
377FB8
6F7FDC
6F700C
E7700E
C76F86
C77FC6
C779E6
C770E6
C700E6
C700E6
E770EE
6779EC
773FDC
371FB8
1C0070
0E00E0
0783C0
01FF00
000000
ENDCHAR

STARTCHAR jisx0208_2D30
ENCODING 11568
SWIDTH 960 0
DWIDTH 24 0
BBX 24 24 0 -2
BITMAP
000000
01FF00
0783C0
0E00E0
1C0070
371FB8
6F3FDC
6F79EC
E770EE
C77006
C76F86
C77FC6
C779E6
C770E6
C770E6
E770EE
6779EC
773FDC
371FB8
1C0070
0E00E0
0783C0
01FF00
000000
ENDCHAR

STARTCHAR jisx0208_2D31
ENCODING 11569
SWIDTH 960 0
DWIDTH 24 0
BBX 24 24 0 -2
BITMAP
000000
01FF00
0783C0
0E00E0
1C0070
377FF8
6F7FDC
6F01CC
E7038E
C70386
C70706
C70706
C70706
C70E06
C70E06
E70E0E
670E0C
770E1C
370E38
1C0070
0E00E0
0783C0
01FF00
000000
ENDCHAR

STARTCHAR jisx0208_2D32
ENCODING 11570
SWIDTH 960 0
DWIDTH 24 0
BBX 24 24 0 -2
BITMAP
000000
01FF00
0783C0
0E00E0
1C0070
371FB8
6F3FDC
6F79EC
E770EE
C779E6
C73FC6
C73FC6
C779E6
C770E6
C770E6
E770EE
6779EC
773FDC
371FB8
1C0070
0E00E0
0783C0
01FF00
000000
ENDCHAR

STARTCHAR jisx0208_2D33
ENCODING 11571
SWIDTH 960 0
DWIDTH 24 0
BBX 24 24 0 -2
BITMAP
000000
01FF00
0783C0
0E00E0
1C0070
371FB8
6F3FDC
6F79EC
E770EE
C770E6
C770E6
C779E6
C73FE6
C71EE6
C700E6
E770EE
6779EC
773FDC
371FB8
1C0070
0E00E0
0783C0
01FF00
000000
ENDCHAR

STARTCHAR jisx0208_2D34
ENCODING 11572
SWIDTH 960 0
DWIDTH 24 0
BBX 24 24 0 -2
BITMAP
000000
01FF00
0783C0
0E00E0
1C0070
3BC3B8
77E7DC
6E6E6C
EE6E6E
CE6E76
C06E76
C0EE76
C1EE76
C3CE76
C78E76
E70E6E
6E0E6C
6FF7DC
3FF3B8
1C0070
0E00E0
0783C0
01FF00
000000
ENDCHAR

STARTCHAR jisx0208_2D35
ENCODING 11573
SWIDTH 960 0
DWIDTH 24 0
BBX 24 24 0 -2
BITMAP
000000
000000
000000
003800
003800
003800
003800
003800
003800
003800
003800
003800
003800
003800
003800
003800
003800
003800
003800
003800
003800
000000
000000
000000
ENDCHAR

STARTCHAR jisx0208_2D36
ENCODING 11574
SWIDTH 960 0
DWIDTH 24 0
BBX 24 24 0 -2
BITMAP
000000
000000
000000
038380
038380
038380
038380
038380
038380
038380
038380
038380
038380
038380
038380
038380
038380
038380
038380
038380
038380
000000
000000
000000
ENDCHAR

STARTCHAR jisx0208_2D37
ENCODING 11575
SWIDTH 960 0
DWIDTH 24 0
BBX 24 24 0 -2
BITMAP
000000
000000
000000
1C3870
1C3870
1C3870
1C3870
1C3870
1C3870
1C3870
1C3870
1C3870
1C3870
1C3870
1C3870
1C3870
1C3870
1C3870
1C3870
1C3870
1C3870
000000
000000
000000
ENDCHAR

STARTCHAR jisx0208_2D38
ENCODING 11576
SWIDTH 960 0
DWIDTH 24 0
BBX 24 24 0 -2
BITMAP
000000
000000
000000
39C01C
39C01C
39C01C
38E038
38E038
38E038
387070
387070
3838E0
3838E0
3838E0
381DC0
381DC0
381DC0
380F80
380F80
380700
380700
000000
000000
000000
ENDCHAR

STARTCHAR jisx0208_2D39
ENCODING 11577
SWIDTH 960 0
DWIDTH 24 0
BBX 24 24 0 -2
BITMAP
000000
000000
000000
1C0070
1C0070
0E00E0
0E00E0
0701C0
0701C0
0701C0
038380
038380
01C700
01C700
00EE00
00EE00
00EE00
007C00
007C00
003800
003800
000000
000000
000000
ENDCHAR

STARTCHAR jisx0208_2D3A
ENCODING 11578
SWIDTH 960 0
DWIDTH 24 0
BBX 24 24 0 -2
BITMAP
000000
000000
000000
700738
700738
700738
380E38
380E38
380E38
1C1C38
1C1C38
0E3838
0E3838
0E3838
077038
077038
077038
03E038
03E038
01C038
01C038
000000
000000
000000
ENDCHAR

STARTCHAR jisx0208_2D3B
ENCODING 11579
SWIDTH 960 0
DWIDTH 24 0
BBX 24 24 0 -2
BITMAP
000000
000000
000000
E03B9C
E03B9C
E03B9C
70739C
70739C
70739C
38E39C
38E39C
38E39C
1DC39C
1DC39C
1DC39C
0F839C
0F839C
0F839C
07039C
07039C
07039C
000000
000000
000000
ENDCHAR

STARTCHAR jisx0208_2D3C
ENCODING 11580
SWIDTH 960 0
DWIDTH 24 0
BBX 24 24 0 -2
BITMAP
000000
000000
000000
E0DDDC
E0DDDC
E0DDDC
E0DDDC
71DDDC
71DDDC
71DDDC
71DDDC
3B9DDC
3B9DDC
3B9DDC
3B9DDC
1F1DDC
1F1DDC
1F1DDC
0E1DDC
0E1DDC
0E1DDC
000000
000000
000000
ENDCHAR

STARTCHAR jisx0208_2D3D
ENCODING 11581
SWIDTH 960 0
DWIDTH 24 0
BBX 24 24 0 -2
BITMAP
000000
000000
000000
39E078
38E070
3870E0
3879E0
3839C0
381B80
381F80
380F00
380F00
380F00
381B80
383BC0
3839C0
3870E0
38F0F0
38E070
39C038
3BC03C
000000
000000
000000
ENDCHAR

STARTCHAR jisx0208_2D3E
ENCODING 11582
SWIDTH 960 0
DWIDTH 24 0
BBX 24 24 0 -2
BITMAP
000000
000000
000000
0F01E0
0783C0
038380
01C700
01EF00
00EE00
007C00
007C00
003800
007C00
00FE00
00EE00
01C700
03C780
038380
0701C0
0F01E0
1E00F0
000000
000000
000000
ENDCHAR

STARTCHAR jisx0208_2D40
ENCODING 11584
SWIDTH 960 0
DWIDTH 24 0
BBX 24 24 0 -2
BITMAP
000000
3E0000
3FC000
03C000
3C0000
3F8000
078000
000000
7C0000
7F8000
07E000
00E000
00071C
00071C
00071C
00071C
00071C
00071C
00071C
00003C
000078
0001F0
0001E0
000000
ENDCHAR

STARTCHAR jisx0208_2D41
ENCODING 11585
SWIDTH 960 0
DWIDTH 24 0
BBX 24 24 0 -2
BITMAP
000000
0E0000
0E0000
7FE000
7FE000
070000
070000
7FF000
7FF000
070000
070000
070000
000000
000FFC
000FFC
000E1C
000E1C
000E1C
000E1C
000FFC
000FFC
000E1C
000000
000000
ENDCHAR

STARTCHAR jisx0208_2D42
ENCODING 11586
SWIDTH 960 0
DWIDTH 24 0
BBX 24 24 0 -2
BITMAP
000000
380600
380F00
3FE780
FFF30C
F8E01E
39C03C
3B8078
3800F0
3FEFE0
1FEF80
000000
03C000
7FE000
3F0000
070000
FFF000
FFF000
070000
070000
0F0000
3E0000
3C0000
000000
ENDCHAR

STARTCHAR jisx0208_2D43
ENCODING 11587
SWIDTH 960 0
DWIDTH 24 0
BBX 24 24 0 -2
BITMAP
000000
00E000
00E000
0CE000
1DC000
0FCFFC
078FFC
0FC000
3DE000
FCC000
700000
000000
1C00E0
1C06E0
1C06E0
1C06E0
1F06E0
1FC6EC
1DC6DE
1C06FC
1C0EF8
1C1EF0
1C0C60
000000
ENDCHAR

STARTCHAR jisx0208_2D44
ENCODING 11588
SWIDTH 960 0
DWIDTH 24 0
BBX 24 24 0 -2
BITMAP
000000
0EB000
0EB7F8
1FE7F8
3FE000
78EFFC
F1CFFC
63C01C
078038
0F0078
7E03F0
7803C0
000000
0E0000
0E0000
0E0000
1C0000
1DC000
39E000
38E000
77F000
FF7000
FC7000
000000
ENDCHAR

STARTCHAR jisx0208_2D45
ENCODING 11589
SWIDTH 960 0
DWIDTH 24 0
BBX 24 24 0 -2
BITMAP
000000
1C0000
1C0000
1C0000
1C0000
1F0000
1FC000
1DC000
1C0000
1C0000
1C0000
1C0000
000600
000F00
000780
00030C
00001E
00003C
000078
0000F0
000FE0
000F80
000000
000000
ENDCHAR

STARTCHAR jisx0208_2D46
ENCODING 11590
SWIDTH 960 0
DWIDTH 24 0
BBX 24 24 0 -2
BITMAP
000000
000000
FFE000
FFF000
00E000
0DCFFC
0D8FFC
0E0000
1E0000
3C0000
780000
300000
070000
370000
370000
370000
370000
376000
36F000
37E000
77C000
F78000
630000
000000
ENDCHAR

STARTCHAR jisx0208_2D47
ENCODING 11591
SWIDTH 960 0
DWIDTH 24 0
BBX 24 24 0 -2
BITMAP
000000
0000E0
0C00E0
1E01FE
3F03FE
77878E
F3CF1C
61E63C
00F078
0060F0
0007E0
000780
1C0000
1C0070
3FC370
7FC370
F1C370
5B7B70
0F7B76
07036E
1F877C
7D8F78
700630
000000
ENDCHAR

STARTCHAR jisx0208_2D48
ENCODING 11592
SWIDTH 960 0
DWIDTH 24 0
BBX 24 24 0 -2
BITMAP
000000
71C000
71C000
71C000
71C0E0
71C6DC
71C6DC
03C73C
078078
1F03F0
1E03E0
000000
1C00E0
1C06E0
1C06E0
1C06E0
1F06E0
1FC6EC
1DC6DE
1C06FC
1C0EF8
1C1EF0
1C0C60
000000
ENDCHAR

STARTCHAR jisx0208_2D49
ENCODING 11593
SWIDTH 960 0
DWIDTH 24 0
BBX 24 24 0 -2
BITMAP
000000
000000
7FE000
7FE000
70E0E0
70E6DC
70E6DC
01C73C
03C078
1F83F0
1E03E0
000000
1C0000
1C0000
1C0000
1C0000
1F0000
1FC000
1DC000
1C0000
1C0000
1C0000
1C0000
000000
ENDCHAR

STARTCHAR jisx0208_2D4A
ENCODING 11594
SWIDTH 960 0
DWIDTH 24 0
BBX 24 24 0 -2
BITMAP
000000
1C0000
1C0000
FFEFFC
FFEFFC
1CEE1C
1CEE1C
3CEE1C
38EE1C
78EFFC
F7EFFC
63CE1C
000000
71C000
71C000
71C000
71C000
71CFFC
71CFFC
03C000
078000
1F0000
1E0000
000000
ENDCHAR

STARTCHAR jisx0208_2D4B
ENCODING 11595
SWIDTH 960 0
DWIDTH 24 0
BBX 24 24 0 -2
BITMAP
000000
1CB000
1CB000
1CB000
1C0000
1F0000
1FC000
1DC000
1C0000
1C0000
1C0000
1C0000
0000E0
0006E0
0006E0
0006E0
0006E0
0006EC
0006DE
0006FC
000EF8
001EF0
000C60
000000
ENDCHAR

STARTCHAR jisx0208_2D4C
ENCODING 11596
SWIDTH 960 0
DWIDTH 24 0
BBX 24 24 0 -2
BITMAP
000000
380600
380F00
3FE780
FFF30C
F8E01E
39C03C
3B8078
3800F0
3FEFE0
1FEF80
000000
1C0000
1C0000
1C0000
1C0000
1F0000
1FC000
1DC000
1C0000
1C0000
1C0000
1C0000
000000
ENDCHAR

STARTCHAR jisx0208_2D4D
ENCODING 11597
SWIDTH 960 0
DWIDTH 24 0
BBX 24 24 0 -2
BITMAP
000000
00E000
3BB000
3BB000
39E000
39CFFC
70EFFC
70E000
E0E000
E0E000
000000
000000
000000
706070
70F070
7F7B70
FFB378
F7037E
6E076E
6C0F70
701E70
7F7C70
3F7870
000000
ENDCHAR

STARTCHAR jisx0208_2D4E
ENCODING 11598
SWIDTH 960 0
DWIDTH 24 0
BBX 24 24 0 -2
BITMAP
000000
3E071C
3F871C
03871C
3E071C
3F871C
03871C
7C003C
7F0078
07C1F0
01C1E0
000000
000000
016070
376370
370370
3B8370
3B7B70
71FB76
71C36E
E1C77C
E1CF78
000630
000000
ENDCHAR

STARTCHAR jisx0208_2D4F
ENCODING 11599
SWIDTH 960 0
DWIDTH 24 0
BBX 24 24 0 -2
BITMAP
000000
00E000
0DB000
1DB000
3EE000
778FFC
F3CFFC
61E000
00F000
006000
000000
000000
00B000
30B000
7CB000
180000
606000
F8F000
31E000
03C000
078000
7F0000
7C0000
000000
ENDCHAR

STARTCHAR jisx0208_2D50
ENCODING 11600
SWIDTH 960 0
DWIDTH 24 0
BBX 24 24 0 -2
BITMAP
000000
000000
000000
000000
000000
000000
000000
000000
DDCDDC
FFEFFE
EEEEEE
EEEEEE
EEEEEE
EEEEEE
EEEEEE
EEEEEE
EEEEEE
EEEEEE
EEEEEE
EEEEEE
EEEEEE
000000
000000
000000
ENDCHAR

STARTCHAR jisx0208_2D51
ENCODING 11601
SWIDTH 960 0
DWIDTH 24 0
BBX 24 24 0 -2
BITMAP
000000
000000
000000
000000
000000
000000
000000
000000
0F1BB8
3FDFFC
39DDDC
70DDDC
70DDDC
701DDC
701DDC
701DDC
70DDDC
70DDDC
39DDDC
3FDDDC
0F1DDC
000000
000000
000000
ENDCHAR

STARTCHAR jisx0208_2D52
ENCODING 11602
SWIDTH 960 0
DWIDTH 24 0
BBX 24 24 0 -2
BITMAP
000000
000000
000000
700000
700000
700000
700000
700000
71DBB8
73DFFC
779DDC
6F1DDC
7E1DDC
7E1DDC
771DDC
771DDC
739DDC
739DDC
71DDDC
71DDDC
71DDDC
000000
000000
000000
ENDCHAR

STARTCHAR jisx0208_2D53
ENCODING 11603
SWIDTH 960 0
DWIDTH 24 0
BBX 24 24 0 -2
BITMAP
000000
000000
000000
000000
000000
000000
000000
000000
6EE1DC
7FF3FC
77773C
77771C
77771C
77771C
77771C
77773C
7773FC
7771DC
77701C
77771C
77771C
0003F8
0001F0
000000
ENDCHAR

STARTCHAR jisx0208_2D54
ENCODING 11604
SWIDTH 960 0
DWIDTH 24 0
BBX 24 24 0 -2
BITMAP
000000
000000
000000
380000
380000
380000
380000
380000
38E3B8
39E7F8
3BCE78
378E38
3F0E38
3F0E38
3B8E38
3B8E78
39C7F8
39C3B8
38E038
38EE38
38EE38
0007F0
0003E0
000000
ENDCHAR

STARTCHAR jisx0208_2D55
ENCODING 11605
SWIDTH 960 0
DWIDTH 24 0
BBX 24 24 0 -2
BITMAP
000000
000000
000000
000000
000000
000000
000000
000000
0F01E0
3FC7F8
39C738
70EE1C
70EE1C
700E00
700E00
700E00
70EE1C
70EE1C
39C738
3FC7F8
0F01E0
000000
000000
000000
ENDCHAR

STARTCHAR jisx0208_2D56
ENCODING 11606
SWIDTH 960 0
DWIDTH 24 0
BBX 24 24 0 -2
BITMAP
000000
000078
0000DC
0000DC
000038
000070
0000FC
000000
1BE7C0
1FEFE0
1E7CF0
1C3870
1C3870
1C3870
1C3870
1C3870
1C3870
1C3870
1C3870
1C3870
1C3870
000000
000000
000000
ENDCHAR

STARTCHAR jisx0208_2D5F
ENCODING 11615
SWIDTH 960 0
DWIDTH 24 0
BBX 24 24 0 -2
BITMAP
000000
0000D8
FFF0BC
FFF0DE
0600CC
36DFFE
76DFFE
76D8C0
36D8C0
35D8D8
35DEDC
36DEDC
061AD8
FFFAB8
FFFAB8
061AF0
061B70
061B76
061EF6
0635B6
063BBE
06779E
06330C
000000
ENDCHAR

STARTCHAR jisx0208_2D60
ENCODING 11616
SWIDTH 960 0
DWIDTH 24 0
BBX 24 24 0 -2
BITMAP
000000
00006E
00006E
0000DC
0000DC
0001B8
0001B8
000000
000000
000000
000000
000000
000000
000000
000000
000000
000000
000000
000000
000000
000000
000000
000000
000000
ENDCHAR

STARTCHAR jisx0208_2D61
ENCODING 11617
SWIDTH 960 0
DWIDTH 24 0
BBX 24 24 0 -2
BITMAP
000000
000000
000000
000000
000000
000000
000000
000000
000000
000000
000000
000000
000000
000000
000000
000000
000000
370000
370000
6E0000
6E0000
DC0000
DC0000
000000
ENDCHAR

STARTCHAR jisx0208_2D62
ENCODING 11618
SWIDTH 960 0
DWIDTH 24 0
BBX 24 24 0 -2
BITMAP
000000
000000
000000
70E000
70E000
78E000
78E000
7CE000
7CE3C0
7CEFF0
6EEE70
6EDC38
76DC38
76DC38
73DC38
73DC38
73DC38
71DC38
71EE70
70EFEE
70E3CE
000000
000000
000000
ENDCHAR

STARTCHAR jisx0208_2D63
ENCODING 11619
SWIDTH 960 0
DWIDTH 24 0
BBX 24 24 0 -2
BITMAP
000000
000000
000000
738E70
738E70
770EE0
770EE0
6E0DC0
6E0DC0
7C0F80
7C0F80
7E0FC0
6E0DC0
6E0DC0
770EE0
770EE0
738E70
738E70
738E70
71AE36
71AE36
000000
000000
000000
ENDCHAR

STARTCHAR jisx0208_2D64
ENCODING 11620
SWIDTH 960 0
DWIDTH 24 0
BBX 24 24 0 -2
BITMAP
000000
000000
000000
FF7EE0
FF7EE0
1C70E0
1C70E0
1C70E0
1C70E0
1C70E0
1C7EE0
1C7EE0
1C70E0
1C70E0
1C70E0
1C70E0
1C70E0
1C70E0
1C70E0
1C7EFE
1C7EFE
000000
000000
000000
ENDCHAR

STARTCHAR jisx0208_2D65
ENCODING 11621
SWIDTH 960 0
DWIDTH 24 0
BBX 24 24 0 -2
BITMAP
000000
01FF00
0783C0
0E00E0
1C7070
387038
70701C
60700C
E07FCE
C07FC6
C07006
C07006
C07006
C07006
C07006
E0700E
6FFFEC
6FFFDC
380038
1C0070
0E00E0
0783C0
01FF00
000000
ENDCHAR

STARTCHAR jisx0208_2D66
ENCODING 11622
SWIDTH 960 0
DWIDTH 24 0
BBX 24 24 0 -2
BITMAP
000000
01FF00
0783C0
0E00E0
1C3870
383838
70381C
6FFFEC
EFFFEE
CE38E6
CE38E6
CE38E6
CFFFE6
CFFFE6
CE38E6
E0380E
60380C
70381C
383838
1C3870
0E00E0
0783C0
01FF00
000000
ENDCHAR

STARTCHAR jisx0208_2D67
ENCODING 11623
SWIDTH 960 0
DWIDTH 24 0
BBX 24 24 0 -2
BITMAP
000000
01FF00
0783C0
0E00E0
1C0070
380038
6FFFDC
6FFFEC
E0700E
C07006
C06C06
C07F06
C06F86
C073C6
C07186
E0700E
60700C
70701C
387038
1C7070
0E00E0
0783C0
01FF00
000000
ENDCHAR

STARTCHAR jisx0208_2D68
ENCODING 11624
SWIDTH 960 0
DWIDTH 24 0
BBX 24 24 0 -2
BITMAP
000000
01FF00
0783C0
0E00E0
1CE070
38E038
6FFFDC
6FFFEC
E1C00E
C1C006
C38006
C3FFC6
C7FFC6
CF1C06
DE1C06
EC1C0E
601C0C
73FFDC
3BFFF8
1C0070
0E00E0
0783C0
01FF00
000000
ENDCHAR

STARTCHAR jisx0208_2D69
ENCODING 11625
SWIDTH 960 0
DWIDTH 24 0
BBX 24 24 0 -2
BITMAP
000000
01FF00
0783C0
0E00E0
1C7070
387038
6FFFDC
6FFFEC
E0E00E
C0E006
C1C006
C3FFC6
C7FFC6
CFC1C6
DDC1C6
EDC1CE
61FFCC
71FFDC
39C1B8
1C0070
0E00E0
0783C0
01FF00
000000
ENDCHAR

STARTCHAR jisx0208_2D6A
ENCODING 11626
SWIDTH 960 0
DWIDTH 24 0
BBX 24 24 0 -2
BITMAP
000000
180030
3C0078
370738
77371C
77371C
773FDC
DF7FEE
DF770E
E7070E
EF7FEE
EFFFEE
DECF8E
DF1FCE
F71FCE
D736EE
E776EE
76F77C
77673C
77071C
370738
3C0078
180030
000000
ENDCHAR

STARTCHAR jisx0208_2D6B
ENCODING 11627
SWIDTH 960 0
DWIDTH 24 0
BBX 24 24 0 -2
BITMAP
000000
180030
3C0078
387038
70701C
6FFFDC
6FFFDC
E0E00E
E1C00E
E1FF8E
E3FF8E
E7C38E
EFFF8E
DDFF8E
EDC38E
E1FF8E
E1FF8E
71C39C
71C39C
71DF9C
39CF38
3C0078
180030
000000
ENDCHAR

STARTCHAR jisx0208_2D6C
ENCODING 11628
SWIDTH 960 0
DWIDTH 24 0
BBX 24 24 0 -2
BITMAP
000000
180030
3C0078
398E38
71CF9C
73CDDC
738EDC
E78E0E
E70FEE
EEFFEE
EEFE0E
DF0E0E
F70E0E
D70E0E
E7070E
E7070E
E7076E
77035C
7703DC
7701DC
3700B8
3C0078
180030
000000
ENDCHAR

STARTCHAR jisx0208_2D6D
ENCODING 11629
SWIDTH 960 0
DWIDTH 24 0
BBX 24 24 0 -2
BITMAP
000000
0000C0
07ECF0
F7DCE0
F66EE0
D66CD8
D661BC
D661DC
D7D98E
F7F7FE
F65BEE
D65B0C
D66000
D7E5FC
D7E7FC
F6658C
F66D8C
C66D8C
0E6D8C
0E5D8C
1C5DFC
3BF9FC
19D98C
000000
ENDCHAR

STARTCHAR jisx0208_2D6E
ENCODING 11630
SWIDTH 960 0
DWIDTH 24 0
BBX 24 24 0 -2
BITMAP
000000
060000
060000
060FFC
060FFC
0600C0
7FE0C0
7FE0C0
0600C0
0600C0
0606C0
0F06FC
0F06FC
0F06C0
0B06C0
1B86C0
1B86C0
1986C0
39C6C0
39C6C0
70DFFE
F0FFFE
606000
000000
ENDCHAR

STARTCHAR jisx0208_2D6F
ENCODING 11631
SWIDTH 960 0
DWIDTH 24 0
BBX 24 24 0 -2
BITMAP
000000
000180
0FE7C0
FFDF7E
FB6B7E
DB6366
DB6366
D76366
D65FE6
DEDFE6
FBE366
FDC766
D80766
D7EFE6
D7EAE6
D65B66
D67B66
D65B66
F66366
F66366
C7E37E
07E37E
066366
000000
ENDCHAR

STARTCHAR jisx0208_2D70
ENCODING 11632
SWIDTH 960 0
DWIDTH 24 0
BBX 24 24 0 -2
BITMAP
000000
000000
000000
000000
03C000
03C000
03C000
000000
000000
1FFFF0
1FFFF0
000000
000000
1FFFF0
1FFFF0
000000
000000
000780
000780
000780
000000
000000
000000
000000
ENDCHAR

STARTCHAR jisx0208_2D71
ENCODING 11633
SWIDTH 960 0
DWIDTH 24 0
BBX 24 24 0 -2
BITMAP
000000
000000
000000
000000
000000
000000
000000
1FFFF0
1FFFF0
000000
000000
1FFFF0
1FFFF0
000000
000000
1FFFF0
1FFFF0
000000
000000
000000
000000
000000
000000
000000
ENDCHAR

STARTCHAR jisx0208_2D72
ENCODING 11634
SWIDTH 960 0
DWIDTH 24 0
BBX 24 24 0 -2
BITMAP
000000
003E00
007F00
00F780
00E300
00E000
00E000
007000
007000
007000
007000
007000
003800
003800
003800
003800
003800
001C00
001C00
031C00
07BC00
03F800
01F000
000000
ENDCHAR

STARTCHAR jisx0208_2D73
ENCODING 11635
SWIDTH 960 0
DWIDTH 24 0
BBX 24 24 0 -2
BITMAP
000000
003E00
007F00
00F780
00E300
00E000
00E000
00FC00
01EE00
037700
037300
037300
033B00
03B700
01BE00
00FC00
003800
001C00
001C00
031C00
07BC00
03F800
01F000
000000
ENDCHAR

STARTCHAR jisx0208_2D74
ENCODING 11636
SWIDTH 960 0
DWIDTH 24 0
BBX 24 24 0 -2
BITMAP
000000
000000
000000
0FFFC0
0FFFC0
078000
03C000
01E000
00F000
007800
003C00
003C00
007800
00F000
00E000
01C000
03C000
078000
0F0000
0FFFC0
0FFFC0
000000
000000
000000
ENDCHAR

STARTCHAR jisx0208_2D75
ENCODING 11637
SWIDTH 960 0
DWIDTH 24 0
BBX 24 24 0 -2
BITMAP
000000
001FFE
001FFE
001C00
003800
003800
003800
003800
007000
007000
007000
00E000
00E000
1CE000
3CE000
7DC000
EDC000
67C000
078000
038000
038000
000000
000000
000000
ENDCHAR

STARTCHAR jisx0208_2D76
ENCODING 11638
SWIDTH 960 0
DWIDTH 24 0
BBX 24 24 0 -2
BITMAP
000000
000000
000000
000000
003800
003800
003800
003800
003800
003800
003800
003800
003800
003800
003800
003800
003800
003800
1FFFF0
1FFFF0
000000
000000
000000
000000
ENDCHAR

STARTCHAR jisx0208_2D77
ENCODING 11639
SWIDTH 960 0
DWIDTH 24 0
BBX 24 24 0 -2
BITMAP
000000
000000
000000
000060
0000E0
0001E0
0003C0
000780
000F00
001E00
003C00
003800
007800
00F000
01E000
03C000
078000
0F0000
1FFFF0
1FFFF0
000000
000000
000000
000000
ENDCHAR

STARTCHAR jisx0208_2D78
ENCODING 11640
SWIDTH 960 0
DWIDTH 24 0
BBX 24 24 0 -2
BITMAP
000000
000000
000000
000000
1C0000
1C0000
1C0000
1C0000
1C0000
1C0000
1C0000
1C0000
1C0000
1C0000
1C0000
1C0000
1C0000
1C0000
1FFFF0
1FFFF0
000000
000000
000000
000000
ENDCHAR

STARTCHAR jisx0208_2D79
ENCODING 11641
SWIDTH 960 0
DWIDTH 24 0
BBX 24 24 0 -2
BITMAP
000000
000000
000000
000030
000070
0000F0
0001F0
0003F0
000770
000F70
001E70
003C70
007870
00F070
01E070
03C070
078070
0F0070
1FFFF0
3FFFF0
000000
000000
000000
000000
ENDCHAR

STARTCHAR jisx0208_2D7A
ENCODING 11642
SWIDTH 960 0
DWIDTH 24 0
BBX 24 24 0 -2
BITMAP
000000
000000
000000
000000
1C0070
3E00F8
3E00F8
1C0070
000000
000000
000000
000000
000000
000000
000000
000000
003800
007C00
007C00
003800
000000
000000
000000
000000
ENDCHAR

STARTCHAR jisx0208_2D7B
ENCODING 11643
SWIDTH 960 0
DWIDTH 24 0
BBX 24 24 0 -2
BITMAP
000000
000000
000000
000000
00FE00
03FF80
0783C0
0701C0
0E00E0
0E00E0
0E00E0
0E00E0
0E00E0
0E00E0
0E00E0
0E00E0
0E00E0
0E00E0
0E00E0
0E00E0
000000
000000
000000
000000
ENDCHAR

STARTCHAR jisx0208_2D7C
ENCODING 11644
SWIDTH 960 0
DWIDTH 24 0
BBX 24 24 0 -2
BITMAP
000000
000000
000000
000000
0E00E0
0E00E0
0E00E0
0E00E0
0E00E0
0E00E0
0E00E0
0E00E0
0E00E0
0E00E0
0E00E0
0E00E0
0701C0
0783C0
03FF80
00FE00
000000
000000
000000
000000
ENDCHAR

STARTCHAR jisx0208_3021
ENCODING 12321
SWIDTH 960 0
DWIDTH 24 0
BBX 24 24 0 -2
BITMAP
000000
3FFFFE
3FFFFE
3FFFFE
00E380
00E380
00E380
1FFFFC
1FFFFC
1FFFFC
1CE39C
1CE39C
1CE39C
1FFFFC
1FFFFC
1FFFFC
1CE39C
1CE39C
00E380
00E380
7FFFFF
7FFFFF
7FFFFF
000000
ENDCHAR

STARTCHAR jisx0208_3022
ENCODING 12322
SWIDTH 960 0
DWIDTH 24 0
BBX 24 24 0 -2
BITMAP
000000
00FFFE
7EFFFE
7FFFFE
7F0EE0
770EE0
770EE0
77FFFE
76FFFE
76FFFE
76EEEE
76EEEE
76EEEE
7EFFFE
7EFFFE
7EFFFE
70EEEE
700EE0
000EE0
000EE0
01FFFF
01FFFF
01FFFF
000000
ENDCHAR

STARTCHAR jisx0208_3023
ENCODING 12323
SWIDTH 960 0
DWIDTH 24 0
BBX 24 24 0 -2
BITMAP
0E01C0
0E01C0
0E01C0
0E1FFE
7FDFFE
7FDFFE
7FC1C0
1DC1C0
1DFFFF
1DBFFF
3DFFFF
39C000
3BC1C0
7B81C0
7FBFFE
6F3FFE
07FFFE
0FC1C0
1DE1C0
3EC1C0
7C3FFF
787FFF
307FFF
000000
ENDCHAR

STARTCHAR jisx0208_3024
ENCODING 12324
SWIDTH 960 0
DWIDTH 24 0
BBX 24 24 0 -2
BITMAP
000000
7FBFFF
7FBFFF
7FBFFF
73801C
77801C
771FDC
7F1FDC
6E1FDC
7F1DDC
779DDC
739DDC
73DDDC
71DDDC
71DFDC
71DFDC
7FDFDC
6FDDDC
779C1C
70001C
7000FC
7000FC
700078
000000
ENDCHAR

STARTCHAR jisx0208_3025
ENCODING 12325
SWIDTH 960 0
DWIDTH 24 0
BBX 24 24 0 -2
BITMAP
001C00
001C00
7FFFFF
7FFFFF
7FFFFF
000000
0FFFF8
0FFFF8
0FFFF8
0E0038
0FFFF8
0FFFF8
0FFFF8
006E04
03E71E
0FC77E
7FC3FC
7DC3F0
39DDE0
01FEFC
1FFE7F
1FF03F
0F000E
000000
ENDCHAR

STARTCHAR jisx0208_3026
ENCODING 12326
SWIDTH 960 0
DWIDTH 24 0
BBX 24 24 0 -2
BITMAP
0001F8
3FFFFC
3FFFFC
1FFF30
0738F8
7BDFE7
7FFFFF
7FFFFF
701807
6DFD9F
1DDDB8
3DEFFE
3CFFDE
18700C
01EFE0
07FFF0
1FFFF0
7EE0E0
7C7FC0
31BF20
4FF7FF
7FE1FF
3F003E
000000
ENDCHAR

STARTCHAR jisx0208_3027
ENCODING 12327
SWIDTH 960 0
DWIDTH 24 0
BBX 24 24 0 -2
BITMAP
0E0300
0E0380
0E0798
0E073C
7F8F3E
7FFEDE
7F7FFF
0E7FEF
0E0C06
0F9FF8
0DBFFE
1FFFFE
7F79C0
7E31C0
6E4FFF
0E7FFF
0E7FFF
0E03E0
0E0F78
0E1F7C
7EFE3F
7EFC1F
3C700E
000000
ENDCHAR

STARTCHAR jisx0208_3028
ENCODING 12328
SWIDTH 960 0
DWIDTH 24 0
BBX 24 24 0 -2
BITMAP
0E03C0
0E03C0
0E03E0
0E07E0
7FC6F0
7FCF78
7FCE78
1DDE3C
1DFDDE
1DBFFF
3DF7EF
39B006
39C000
3BDFFC
7F9FFC
7F9FFC
37DC1C
0FDC1C
1DDC1C
3EDFFC
7C1FFC
781FFC
301C1C
000000
ENDCHAR

STARTCHAR jisx0208_3029
ENCODING 12329
SWIDTH 960 0
DWIDTH 24 0
BBX 24 24 0 -2
BITMAP
301C00
781C00
7C3FF0
3E7FF0
1FFC70
0DEFE0
00C7C0
003FFC
03FEFF
03F3BF
7DCFC6
7E7FFC
7E0380
0E3FF8
0E3FF8
0E0380
0EFFFE
0EFFFE
1E0380
3F8380
7FFC7F
7BFFFF
30FFFE
000000
ENDCHAR

STARTCHAR jisx0208_302A
ENCODING 12330
SWIDTH 960 0
DWIDTH 24 0
BBX 24 24 0 -2
BITMAP
01C1C0
01C1C0
7FFFFF
7FFFFF
7FFFFF
01C1C0
1E2E70
1FFFFC
0077EE
1FE3DE
0FDDFC
77FFFB
7DFFBF
381C0E
07FFF0
1FFFFC
1FFFFC
003E00
00F7C0
03F3F0
3FE1FE
3F807E
1E001C
000000
ENDCHAR

STARTCHAR jisx0208_302B
ENCODING 12331
SWIDTH 960 0
DWIDTH 24 0
BBX 24 24 0 -2
BITMAP
01C380
01C380
7FFFFF
7FFFFF
7FFFFF
01C380
7E3C7F
7FFFFF
7FFFFF
00E700
1FFFFC
1FFFFC
1FFFFC
1CE71C
1DE77C
1FC7FC
1BC7FC
1F83DC
1B001C
1CFFFC
1FFFFC
1FFFFC
1C001C
000000
ENDCHAR

STARTCHAR jisx0208_302C
ENCODING 12332
SWIDTH 960 0
DWIDTH 24 0
BBX 24 24 0 -2
BITMAP
038E00
7FDE00
7FFDE0
3E3FE0
0EF8E0
0E77DC
7FBFFC
7FBB9C
7FBFFC
0E3B9C
1FBFFC
1FFFFC
3FC380
3D7FFC
7E739C
6E7FFC
2E739C
0E7FFC
0E7FFE
0E7387
0E73FF
0E03FF
0E01FE
000000
ENDCHAR

STARTCHAR jisx0208_302D
ENCODING 12333
SWIDTH 960 0
DWIDTH 24 0
BBX 24 24 0 -2
BITMAP
000000
3FFFFC
3FFFFC
3FFFFC
00E700
1FFFF8
1FFFF8
1FFFF8
1CE738
1FFFF8
1FFFF8
1FFFF8
00E700
7FFFFE
7FFFFE
7FFFFE
000C00
1DDF3C
1DCFFE
3DC6DF
79F9EF
79FFE6
30FFC0
000000
ENDCHAR

STARTCHAR jisx0208_302E
ENCODING 12334
SWIDTH 960 0
DWIDTH 24 0
BBX 24 24 0 -2
BITMAP
0E0000
0E7FFE
0E7FFE
0E7FFE
7F700E
7F7FFE
7F7FFE
0E7000
0E7FFE
0F7FFE
0D71D8
1F73BE
7F7FDF
7E6FFF
6E7FF6
0E70E0
0E7FFE
0E6FFE
0EEFFE
0EE0E0
7FFFFF
7DDFFF
3CDFFF
000000
ENDCHAR

STARTCHAR jisx0208_302F
ENCODING 12335
SWIDTH 960 0
DWIDTH 24 0
BBX 24 24 0 -2
BITMAP
180000
3EFFFE
3EFFFE
0EFFFE
06E00E
00FFFE
30FFFE
7CE000
7EFFFF
1EFFFF
0CE398
00E7BE
0CFF5E
0EDFFF
0EFFEF
1FE1C6
1DDFF8
1DDFFC
3DDFFC
3BC1C0
7FBFFF
777FFF
337FFF
000000
ENDCHAR

STARTCHAR jisx0208_3030
ENCODING 12336
SWIDTH 960 0
DWIDTH 24 0
BBX 24 24 0 -2
BITMAP
1C0000
1C0000
1C07FC
1C07FC
1C07FC
7FE71C
7FE71C
7FE71C
1CE7FC
1CE7FC
1CE7FC
1CE71C
1CE71C
1CE71C
1CE71C
1CE7FC
3CE7FC
3CE7FE
38E707
38E707
78F8FF
70FFFF
307FFE
000000
ENDCHAR

STARTCHAR jisx0208_3031
ENCODING 12337
SWIDTH 960 0
DWIDTH 24 0
BBX 24 24 0 -2
BITMAP
01C1C0
01C1C0
7FFFFF
7FFFFF
01C1C0
063E30
07FFF0
007070
7FEFFF
7FFFFF
000000
07FFF0
070070
07FFF0
07FFF0
000E00
0FFFFC
0FFFFC
0E0E00
7FFFFF
7FFFFF
000E00
000E00
000000
ENDCHAR

STARTCHAR jisx0208_3032
ENCODING 12338
SWIDTH 960 0
DWIDTH 24 0
BBX 24 24 0 -2
BITMAP
00E380
00E380
7FFFFF
7FFFFF
7FFFFF
00E380
3F1C7E
3FFFFE
3FFFFE
000000
0FFFF8
0FFFF8
0FFFF8
0E0038
0FFFF8
0FFFF8
0FFFF8
1E0038
1E0038
3C0000
7C0000
780000
300000
000000
ENDCHAR

STARTCHAR jisx0208_3033
ENCODING 12339
SWIDTH 960 0
DWIDTH 24 0
BBX 24 24 0 -2
BITMAP
0E0300
0E03B0
1F87F8
1F877C
3DBF9E
7BBFFE
777FEC
3FC1C0
36FFBF
36BFFF
3FC738
3FFEDF
36BDEF
36DBD6
3FC7B8
3FDF78
000CF4
2AD3CE
2AFF3E
2BECF8
6F63F0
6C0FC0
600700
000000
ENDCHAR

STARTCHAR jisx0208_3034
ENCODING 12340
SWIDTH 960 0
DWIDTH 24 0
BBX 24 24 0 -2
BITMAP
0E01C0
0E01C0
0E01C0
0E3FFE
7FBFFE
7FFFFE
7FCC30
0E1E38
1F0E78
1F8E70
1FFDFF
3FFFFF
3D7FFF
7E01C0
6E01C0
2E3FFE
0E3FFE
0E3FFE
0E01C0
0E01C0
0E01C0
0E01C0
0E01C0
000000
ENDCHAR

STARTCHAR jisx0208_3035
ENCODING 12341
SWIDTH 960 0
DWIDTH 24 0
BBX 24 24 0 -2
BITMAP
000000
1FFFFF
1FFFFF
1FFFFF
1C0000
1C0700
1C0700
1C0700
1C0700
1DFFFE
1DFFFE
1DFFFE
1C0700
1C0700
1C0700
1C0700
3C0700
380700
380700
7FFFFF
77FFFF
77FFFF
300000
000000
ENDCHAR

STARTCHAR jisx0208_3036
ENCODING 12342
SWIDTH 960 0
DWIDTH 24 0
BBX 24 24 0 -2
BITMAP
0701E0
0701E0
7FF3F0
7FF378
7FF7BC
070F3E
3FDF1F
3FFE0F
3FED36
38E3B8
3FE7B8
3FEBB8
38FDB8
3FDE38
3FEF3F
3FE637
0701FF
7FEFFC
7FEFF8
7FEF38
070038
070038
070038
000000
ENDCHAR

STARTCHAR jisx0208_3037
ENCODING 12343
SWIDTH 960 0
DWIDTH 24 0
BBX 24 24 0 -2
BITMAP
0E0000
0E7FF8
0E7FFC
0E7FFC
7F9C38
7FDC38
7FDC78
0E1C70
0E1E7E
0FDEFF
0DDEFF
1FDFEE
7F1F1E
7E1B9C
6E3FBC
0E3DF8
0E39F8
0E78F0
0E7BFC
0EF7BE
7FEF9F
7DDF0F
3CCC06
000000
ENDCHAR

STARTCHAR jisx0208_3038
ENCODING 12344
SWIDTH 960 0
DWIDTH 24 0
BBX 24 24 0 -2
BITMAP
001C00
001C00
7FFFFF
7FFFFF
7FFFFF
700007
770007
7707FF
07F7FC
0FF7FC
0FF71C
1E771C
3CF71C
7EF71C
7EE71C
2FE7FC
07C6FC
03C77A
0F8707
3F0707
7E07FF
7C07FF
3003FE
000000
ENDCHAR

STARTCHAR jisx0208_3039
ENCODING 12345
SWIDTH 960 0
DWIDTH 24 0
BBX 24 24 0 -2
BITMAP
0E0000
0E0FFC
0E0FFC
0E0FFC
7FEE1C
7FEE1C
7FEE1C
1CEFFC
1CEFFC
1CEFFC
3CEE1C
38EE1C
39EE1C
39CFFC
7DCFFC
7FCFFC
6F8E1C
07EE1C
1DEE1C
3ECE1C
7C3FFF
787FFF
307FFF
000000
ENDCHAR

STARTCHAR jisx0208_303A
ENCODING 12346
SWIDTH 960 0
DWIDTH 24 0
BBX 24 24 0 -2
BITMAP
0E00E0
0E00E0
0E00E0
0E00E0
7FE0E0
7FEFFF
7FEFFF
76EFFF
76EE00
76EE00
76EE00
7FEE00
7FEE00
7FEE00
6E0E00
6ECE00
0FCE00
0DEE00
0EEE00
0DEE00
7FEFFF
7F6FFF
7867FF
000000
ENDCHAR

STARTCHAR jisx0208_303B
ENCODING 12347
SWIDTH 960 0
DWIDTH 24 0
BBX 24 24 0 -2
BITMAP
078180
07C1C0
0FE1D8
1DE3F8
3EF3BC
7D779E
7B676E
379FFF
1FDFFF
1CFFC7
1FE006
1FEFF8
1CEFFE
1FEFFE
1FEE0E
1C0E0E
1DCE0E
1DEE0E
1EEE0E
1BEFFE
7F6FFE
7E6FFE
386E0E
000000
ENDCHAR

STARTCHAR jisx0208_303C
ENCODING 12348
SWIDTH 960 0
DWIDTH 24 0
BBX 24 24 0 -2
BITMAP
030600
078700
078700
2F4F00
7EEEFF
7DFFFF
3BDFFF
1FBC07
0F5BF7
1EEFF7
7DEFF7
7FEE77
7F6FF7
076FF7
370FF7
37EE77
36EFF7
37EFF7
776FF7
776E0F
77607E
37007E
07003C
000000
ENDCHAR

STARTCHAR jisx0208_303D
ENCODING 12349
SWIDTH 960 0
DWIDTH 24 0
BBX 24 24 0 -2
BITMAP
0301C0
0781C0
079FFE
2F5FFE
7EFFFE
7DE1C0
3BDFFF
1FBFFF
0F4770
1ECF77
7DDF7F
7FFEFF
7EFBBE
07DFC0
3727FE
37FF1E
36DFBC
376BFC
7771F8
7767F4
771F7F
373F1F
071C0E
000000
ENDCHAR

STARTCHAR jisx0208_303E
ENCODING 12350
SWIDTH 960 0
DWIDTH 24 0
BBX 24 24 0 -2
BITMAP
0E01C0
0E01C0
1FC1C0
1FC1C0
3CC1FF
79C1FF
77A1FF
3FE1C0
3B61C0
3B61C0
3FE1C0
3FEFFE
3B6FFE
3B6FFE
3FEE0E
3FEE0E
000E0E
356E0E
356E0E
35EFFE
75AFFE
758FFE
300E0E
000000
ENDCHAR

STARTCHAR jisx0208_303F
ENCODING 12351
SWIDTH 960 0
DWIDTH 24 0
BBX 24 24 0 -2
BITMAP
000398
0003BC
0003BC
7FFFDB
7FFFFF
7FFFFF
000380
1FF38C
1FF38E
1FF38E
1C73DE
1C71DC
1FF1FC
1FF1B8
1FF1F8
1C08F0
01F9E6
0FFBF7
7FE7F7
7F1F7F
387F3F
007C1F
00380E
000000
ENDCHAR

STARTCHAR jisx0208_3040
ENCODING 12352
SWIDTH 960 0
DWIDTH 24 0
BBX 24 24 0 -2
BITMAP
7FFFFF
7FFFFF
7FFFFF
00E380
3FFFFE
3FFFFE
3FFFFE
38E38E
3FFFFE
3FFFFE
061C30
0F9CF8
079CF0
7B7F6F
7FFFFF
7FFFFF
007F00
03DBE0
0FDDF8
7F9CFF
7E1C3F
381C0E
001C00
000000
ENDCHAR

STARTCHAR jisx0208_3041
ENCODING 12353
SWIDTH 960 0
DWIDTH 24 0
BBX 24 24 0 -2
BITMAP
0E03C0
0E03C0
0E07E0
7FC6F0
7FEF78
7FFE7C
01DE3E
03BC1F
077BEF
0FAFF6
0ECFF8
1DC000
3F0000
7FDFFC
6DDFFC
2F9FFC
0E1C1C
0E1C1C
0E1C1C
0E1FFC
0E1FFC
0E1FFC
0E1C1C
000000
ENDCHAR

STARTCHAR jisx0208_3042
ENCODING 12354
SWIDTH 960 0
DWIDTH 24 0
BBX 24 24 0 -2
BITMAP
001C00
001C00
3FFFFE
3FFFFE
3FFFFE
38000E
38380E
38780E
007800
7FF7FF
7FFFFF
7FFFFF
01C0E0
03C0E0
03A1E0
07FDC0
0FFFC0
0F3F80
060FF0
00FDFC
3FFC7E
3FF01E
1F800C
000000
ENDCHAR

STARTCHAR jisx0208_3043
ENCODING 12355
SWIDTH 960 0
DWIDTH 24 0
BBX 24 24 0 -2
BITMAP
000E00
000E00
1FFFFF
1FFFFF
1FFFFF
1C0E00
1FFDFE
1BFFFE
1FFFFE
1C38E0
1CF778
1DEFBE
1FFFFF
1FE73F
1AFFF6
1CFFF8
1CE738
1CFFFE
3CFFF7
38E707
7807FF
7807FF
3003FE
000000
ENDCHAR

STARTCHAR jisx0208_3044
ENCODING 12356
SWIDTH 960 0
DWIDTH 24 0
BBX 24 24 0 -2
BITMAP
0E01C0
0E01C0
0E7FFF
0E7FFF
7F7FFF
7F7007
7F7387
0E7387
0E0780
0F7F7F
0D7FFF
1F7FFF
7F0E38
7E1E38
6E1C38
0E3F78
0E7FF0
0E77F8
0E30FC
0E07FE
7E7FDF
7E7F0F
3C3C06
000000
ENDCHAR

STARTCHAR jisx0208_3045
ENCODING 12357
SWIDTH 960 0
DWIDTH 24 0
BBX 24 24 0 -2
BITMAP
0001C0
7F81C0
7FBFFE
7FBFFE
73BFFE
738C30
739F38
738F78
7FF6F7
7F7FFF
7FFFFF
738000
739FFC
739FFC
739FFC
7F9C1C
7F9FFC
7F9FFC
739C1C
701FFC
001FFC
001FFC
001C1C
000000
ENDCHAR

STARTCHAR jisx0208_3046
ENCODING 12358
SWIDTH 960 0
DWIDTH 24 0
BBX 24 24 0 -2
BITMAP
001C00
001C00
7FFFFF
7FFFFF
7FFFFF
703807
7FF7F7
6FFFF7
01C1C0
03FF80
039FF0
1C7BFC
1FF4FC
0F9C18
707FE7
7FFFFF
7FFFFF
007F00
0FDBF8
7FDDFF
7F1C7F
381C0E
001C00
000000
ENDCHAR

STARTCHAR jisx0208_3047
ENCODING 12359
SWIDTH 960 0
DWIDTH 24 0
BBX 24 24 0 -2
BITMAP
000000
7FE7FE
7FE7FE
70E70E
7FE7FE
7FE7FE
70E70E
7FE7FE
7FFFFE
70380E
73FFCE
73FFCE
71C38E
76FF6E
77FFEE
70000E
71FF8E
71C38E
71FF8E
71C38E
71FFFE
71C37E
70003C
000000
ENDCHAR

STARTCHAR jisx0208_3048
ENCODING 12360
SWIDTH 960 0
DWIDTH 24 0
BBX 24 24 0 -2
BITMAP
1DC0E0
1DC0E0
7FF0E0
7FFFFF
7FFFFF
1DDFFF
1FDC07
1FDCE7
0701E0
3FE1C0
3FFFFF
3FDFFF
3B7FFF
3FE39C
3FE79C
3FE73C
070FF8
7FFFF8
7FF6FC
7FF1FE
070FDF
071F8F
070E06
000000
ENDCHAR

STARTCHAR jisx0208_3049
ENCODING 12361
SWIDTH 960 0
DWIDTH 24 0
BBX 24 24 0 -2
BITMAP
001C00
001C00
001C00
7FFFFF
7FFFFF
7FFFFF
007F00
01DBC0
03DFE0
07DDF0
1F9CFC
7F1C7F
7C1C1F
381C0E
07E3F0
0FFFF8
0FFFF8
0E0038
0E0038
0FFFF8
0FFFF8
0FFFF8
0E0038
000000
ENDCHAR

STARTCHAR jisx0208_304A
ENCODING 12362
SWIDTH 960 0
DWIDTH 24 0
BBX 24 24 0 -2
BITMAP
000000
0E001C
0E001C
0E181C
0E3C1C
0E3E1C
0E1F1C
0E0F1C
0E071C
0E061C
0E001C
0E001C
0E003C
0E0038
0E0038
0E3078
0EF8F0
0FF9F8
1FE3FC
7F8FBE
7E3F9F
303E0F
001806
000000
ENDCHAR

STARTCHAR jisx0208_304B
ENCODING 12363
SWIDTH 960 0
DWIDTH 24 0
BBX 24 24 0 -2
BITMAP
030000
038000
07FFFC
077FFC
077FFC
0F071C
0F071C
1EFFFF
1EFFFF
3EFFFF
7E071C
7E071C
2E7FFC
0E7FFC
0E7FFC
0E071C
0E0F1C
0E0F00
0E1E00
0E3E00
0E7C00
0E7800
0E3000
000000
ENDCHAR

STARTCHAR jisx0208_304C
ENCODING 12364
SWIDTH 960 0
DWIDTH 24 0
BBX 24 24 0 -2
BITMAP
030380
038380
078380
078380
077FFE
0EFFFE
0EFFFE
1E0000
1E3038
3E7038
7E7838
7E3878
2E3870
0E3C70
0E1C70
0E1C70
0E1CF0
0E18E0
0E00E0
0FFFFF
0DFFFF
0FFFFF
0E0000
000000
ENDCHAR

STARTCHAR jisx0208_304D
ENCODING 12365
SWIDTH 960 0
DWIDTH 24 0
BBX 24 24 0 -2
BITMAP
030380
038380
078380
078380
077FFF
0EFFFF
0EFFFF
1E0780
1E0F80
3E0DCC
7E1DDE
7E3DFE
2E7DBC
0EFCF8
0FFCF0
0FDCE0
0D9C70
0E1C78
0E1DBC
0E1FFE
0EFFDF
0EFF0F
0E7806
000000
ENDCHAR

STARTCHAR jisx0208_304E
ENCODING 12366
SWIDTH 960 0
DWIDTH 24 0
BBX 24 24 0 -2
BITMAP
030700
038700
07BFF8
07BFF8
073FF8
0F0E38
0FFFFF
1EFFFF
1E0000
3E3FFC
7E3FFC
7E381C
2E3FFC
0E3FFC
0E00E0
0E7FFE
0E7FFE
0E70E0
0FFFFF
0DFFFF
0E00E0
0E00E0
0E00E0
000000
ENDCHAR

STARTCHAR jisx0208_304F
ENCODING 12367
SWIDTH 960 0
DWIDTH 24 0
BBX 24 24 0 -2
BITMAP
3FFFFE
3FFFFE
3FFFFE
38000E
38E38E
38E38E
3BFFEE
3BFFEE
3BFFEE
38E38E
38E38E
3FFFEE
37FFEE
3FFFEE
38E38E
39E38E
3BC38E
3BC38E
39838E
3E7C7E
3FFFFE
3FFFFE
38000E
000000
ENDCHAR

STARTCHAR jisx0208_3050
ENCODING 12368
SWIDTH 960 0
DWIDTH 24 0
BBX 24 24 0 -2
BITMAP
001C00
001C00
7FFFFF
7FFFFF
7FFFFF
001C00
1FFFF8
1FFFF8
001C38
1FFFF8
1FFFF8
1C1C00
3FFFFE
3FFFFE
383E0E
387F7E
00F7FE
01F7BC
07E3C0
1FC1F8
7F80FF
7E007F
38001E
000000
ENDCHAR

STARTCHAR jisx0208_3051
ENCODING 12369
SWIDTH 960 0
DWIDTH 24 0
BBX 24 24 0 -2
BITMAP
0007F0
1FFFF8
1FFFF8
0FFC00
701FFF
7FFFFF
7FFFFF
007F00
0FDBF8
7FDDFF
7F1C7F
387C0E
00F000
7FEFFF
7FFFFF
7FFFFF
01C0E0
07FBE0
07FFC0
030FB0
3CFFFE
3FF8FE
1FC01C
000000
ENDCHAR

STARTCHAR jisx0208_3052
ENCODING 12370
SWIDTH 960 0
DWIDTH 24 0
BBX 24 24 0 -2
BITMAP
0001D8
0001FC
0001BC
1FFFDB
1FFFFF
1FFFFF
1C01C0
1FFDCC
1BFDCE
1FFDCE
1CE1CE
1FFFDE
1FFEDC
1FFEFC
1DDCF8
1FDCF8
3BBC76
3FF9F7
3B7BF7
78FFBF
7FD79F
77CF1F
33060E
000000
ENDCHAR

STARTCHAR jisx0208_3053
ENCODING 12371
SWIDTH 960 0
DWIDTH 24 0
BBX 24 24 0 -2
BITMAP
00001C
3FFC1C
3FFC1C
3FFC1C
381C1C
3FFC1C
3FFFFF
3FFBFF
3803FF
3BF81C
3BF99C
3803DC
3FFFDC
37FDDC
3FFEDC
38E0DC
36FC1C
76DE1C
7EEE1C
6EEE1C
77ECFC
33E0FC
01C078
000000
ENDCHAR

STARTCHAR jisx0208_3054
ENCODING 12372
SWIDTH 960 0
DWIDTH 24 0
BBX 24 24 0 -2
BITMAP
0E0630
0E0778
0E0F78
0F8EF0
2D9FEF
3FBFFF
3DBFFF
3FFCE0
7E7CE0
6EDFFE
6E5FFE
6E1FFE
2E1CE0
0E1CE0
0E1FFE
0E1FFE
0E1FFE
0E1CE0
0E1CE0
0E1FFF
0E1FFF
0E1FFF
0E1C00
000000
ENDCHAR

STARTCHAR jisx0208_3055
ENCODING 12373
SWIDTH 960 0
DWIDTH 24 0
BBX 24 24 0 -2
BITMAP
001C00
001C00
1FFFFC
1FFFFC
0380E0
7DFFDF
7FFFFF
000000
07FFF0
07FFF0
070070
07FFF0
07FFF0
070070
07FFF0
07FFF0
180C0C
1DDEDE
1DCEFE
3DC6EF
79F9EF
79FFE7
30FFC6
000000
ENDCHAR

STARTCHAR jisx0208_3056
ENCODING 12374
SWIDTH 960 0
DWIDTH 24 0
BBX 24 24 0 -2
BITMAP
00001C
1FFC1C
1FFC1C
1FFC1C
1C1FFF
1FFBFF
1FFBFF
1C001C
1BFBDC
3C07DC
3FFDDC
38E0DC
76FE1C
7FDEFC
2DECFC
05C078
181E04
1DDEDE
1DCEFE
3DC6EF
79F9EF
79FFE7
30FFC6
000000
ENDCHAR

STARTCHAR jisx0208_3057
ENCODING 12375
SWIDTH 960 0
DWIDTH 24 0
BBX 24 24 0 -2
BITMAP
000000
0FFFF8
0FFFF8
0FFFF8
0E0038
0FFFF8
0FFFF8
0E0038
0FFFF8
0FFFF8
0FFFF8
01C000
07BFFE
1FFFFE
7FFFFE
7C71CE
33E78E
0FCF8E
3F9F1E
3E7E1E
19FDFC
03F1FC
01C0F8
000000
ENDCHAR

STARTCHAR jisx0208_3058
ENCODING 12376
SWIDTH 960 0
DWIDTH 24 0
BBX 24 24 0 -2
BITMAP
0E01C0
0E01C0
0E3FFE
0E3FFE
7FFFFE
7FC3E0
7FCF78
0E3F7E
1F3E3E
1F1C1C
1F63E3
3FFFFF
3DFFFF
7F801C
6E3F9C
2E3F9C
0E3B9C
0E3B9C
0E3F9C
0E3F9C
0E387C
0E00FC
0E0078
000000
ENDCHAR

STARTCHAR jisx0208_3059
ENCODING 12377
SWIDTH 960 0
DWIDTH 24 0
BBX 24 24 0 -2
BITMAP
030C00
078E00
07DE00
03DE00
1DBDE0
1FFFE0
1FFFE0
0070E0
00FFDC
00FFFC
01FFFC
01C01C
03FFFA
07FFFF
0FFFFF
1F0067
3E77F7
7B7777
777FBF
3F3B8F
0F3B7E
1E30FE
0C007C
000000
ENDCHAR

STARTCHAR jisx0208_305A
ENCODING 12378
SWIDTH 960 0
DWIDTH 24 0
BBX 24 24 0 -2
BITMAP
000000
0FFFF8
0FFFF8
0FFFF8
0E1C38
0FFFF8
0FFFF8
0E1C38
0FFFF8
0FFFF8
000000
7FFFFF
7FFFFF
7FFFFF
070E0C
07077E
0707FC
0703F0
073DE0
07FCFC
7FFC7F
7FE01F
3E000E
000000
ENDCHAR

STARTCHAR jisx0208_305B
ENCODING 12379
SWIDTH 960 0
DWIDTH 24 0
BBX 24 24 0 -2
BITMAP
000000
0FFFF8
0FFFF8
0FFFF8
0E1C38
0FFFF8
0FFFF8
0E1C38
0FFFF8
0FFFF8
0FFFF8
01C1C0
1FFFFC
1FFFFC
1FFFFC
01C1C0
7FFFFF
7FFFFF
7FFFFF
0180E0
3FC1FE
3F003E
1C000C
000000
ENDCHAR

STARTCHAR jisx0208_305C
ENCODING 12380
SWIDTH 960 0
DWIDTH 24 0
BBX 24 24 0 -2
BITMAP
038700
7FC700
7FCFFC
3E1FFE
0E3FFE
0EFC3C
7FFEF8
7F6FF0
7F87E0
0E1FC0
1F7F70
1FFEF0
3FB9EE
3D87FF
7E1FFF
6E7F1E
2E7F7C
0E37F8
0E03F0
0E0DE0
0EFFC0
0EFF00
0E7800
000000
ENDCHAR

STARTCHAR jisx0208_305D
ENCODING 12381
SWIDTH 960 0
DWIDTH 24 0
BBX 24 24 0 -2
BITMAP
030630
078738
078738
2F4F78
7EEE70
7DEFFF
3BDFFF
1FBFFF
0F7E70
1EDE70
7DEFFE
7FEFFE
7F6FFE
076E70
370FFE
37EFFE
36EFFE
37EE70
776E70
776FFF
776FFF
370FFF
070E00
000000
ENDCHAR

STARTCHAR jisx0208_305E
ENCODING 12382
SWIDTH 960 0
DWIDTH 24 0
BBX 24 24 0 -2
BITMAP
060380
070380
0F1FFC
2E9FFC
7DC71C
7FFFFF
3BBFFF
1F0000
0FDFFC
1EDFFC
7DDC1C
7FDFFC
7EDFFC
07C0E0
371FFE
36DFFE
37DCE0
36DCE0
76FFFF
77BFFF
7700E0
3700E0
0700E0
000000
ENDCHAR

STARTCHAR jisx0208_305F
ENCODING 12383
SWIDTH 960 0
DWIDTH 24 0
BBX 24 24 0 -2
BITMAP
000000
1FFFFC
1FFFFC
1C1C1C
1FFFFC
1FFFFC
1C1C1C
1FFFFC
1FFFFC
000000
0FFFF8
0FFFF8
0E0038
0FFFF8
0FFFF8
0E0038
0FFFF8
0FFFF8
0E0038
0E0038
0E01F8
0E01F8
0E00F0
000000
ENDCHAR

STARTCHAR jisx0208_3060
ENCODING 12384
SWIDTH 960 0
DWIDTH 24 0
BBX 24 24 0 -2
BITMAP
01C1C0
01C1C0
7FFFFF
7FFFFF
01C1C0
000E38
1FFFF8
1FFC00
601FFF
7FFFFF
007F00
7FDBFF
7F9CFF
3C7C1E
43F3E1
7FFFFF
00E0E0
03DDE0
07FFC0
078FF8
387FFE
3FFC7E
1FC01C
000000
ENDCHAR

STARTCHAR jisx0208_3061
ENCODING 12385
SWIDTH 960 0
DWIDTH 24 0
BBX 24 24 0 -2
BITMAP
001C00
001C00
001C00
001C00
7FFFFF
7FFFFF
7FFFFF
003E00
006E1E
00EF3E
01E77C
03E7F8
07C6F0
0F83E0
3F83C0
7F81E0
7B80F0
338EF8
03FE7C
037E3E
3FF81F
3FC00F
1E0006
000000
ENDCHAR

STARTCHAR jisx0208_3062
ENCODING 12386
SWIDTH 960 0
DWIDTH 24 0
BBX 24 24 0 -2
BITMAP
000000
3FDFFF
3FDFFF
001CE7
7FDFFF
7FDFFF
001CE7
3FDFFF
3FDFFF
000000
3FCFFE
3FCFFE
000E0E
3FCFFE
3FCFFE
3FCE0E
39CFFE
39CFFE
39CE0E
3FCE0E
3FCE7E
3FCE7E
380E3C
000000
ENDCHAR

STARTCHAR jisx0208_3063
ENCODING 12387
SWIDTH 960 0
DWIDTH 24 0
BBX 24 24 0 -2
BITMAP
000700
180700
3C7FF8
3E7FF8
1F0E38
0FFFFE
06FFFE
000000
003FFC
00381C
7E3FFC
7E3FFC
7E01C0
0E3FFC
0E3FFC
0E39C0
0EFFFE
0EFFFE
1E01C0
3F01C0
7FFE3F
7BFFFF
30FFFE
000000
ENDCHAR

STARTCHAR jisx0208_3064
ENCODING 12388
SWIDTH 960 0
DWIDTH 24 0
BBX 24 24 0 -2
BITMAP
000380
180380
3C7FFC
3E7FFC
1F739C
0F7FFC
067FFC
018383
01FFFF
000000
7E7FFC
7E701C
7E7FFC
0E701C
0E7FFC
0E701C
0E7FFC
0E1830
1EFC7E
3FF81E
7F67ED
7BFFFF
30FFFE
000000
ENDCHAR

STARTCHAR jisx0208_3065
ENCODING 12389
SWIDTH 960 0
DWIDTH 24 0
BBX 24 24 0 -2
BITMAP
000000
3FFFFE
3FFFFE
3FFFFE
387000
38FFFC
39FFFC
3BFFFC
3BC700
398700
3A7FFE
3BFFFE
3BFFFE
380F80
383DE0
38FDF8
3BF8FE
3BF07E
39C01C
3E3FE3
3FFFFF
3FFFFF
380000
000000
ENDCHAR

STARTCHAR jisx0208_3066
ENCODING 12390
SWIDTH 960 0
DWIDTH 24 0
BBX 24 24 0 -2
BITMAP
01C1C0
01C1C0
01C1C0
01C1C0
3FFFFE
3FFFFE
3FFFFE
01C1C0
01C1C0
01C1C0
01C1C0
01C1C0
7FFFFF
7FFFFF
7FFFFF
01C1C0
03C1C0
0781C0
0F81C0
1F01C0
7E01C0
7C01C0
3001C0
000000
ENDCHAR

STARTCHAR jisx0208_3067
ENCODING 12391
SWIDTH 960 0
DWIDTH 24 0
BBX 24 24 0 -2
BITMAP
001C00
001C00
001C00
7FFFFF
7FFFFF
7FFFFF
003000
0CF9E0
1FF3E0
1FE7C0
07CF98
01FF3C
00FE7C
007CF8
03F9F0
3FE7E0
3F8FC0
1E3FA0
007FF8
03FCFC
3FF03E
3FC01E
1E000C
000000
ENDCHAR

STARTCHAR jisx0208_3068
ENCODING 12392
SWIDTH 960 0
DWIDTH 24 0
BBX 24 24 0 -2
BITMAP
1C01D8
1C01FC
1C01BE
1C01DE
1CFFED
1CFFFF
7FFFFF
7F01C0
7FFDCE
1CFDCE
1CFFEE
1CEEFE
1CFEDC
1CFEDC
1EFEFC
1FE17A
7F1FF7
7CFEF7
73FDFF
01E3BF
000F9F
000F0F
000606
000000
ENDCHAR

STARTCHAR jisx0208_3069
ENCODING 12393
SWIDTH 960 0
DWIDTH 24 0
BBX 24 24 0 -2
BITMAP
001C00
001C00
7FFFFF
7FFFFF
7FFFFF
0070E0
01EF78
3FDFFC
3FFFFE
1FF81E
0007EC
07FFF0
070070
07FFF0
07FFF0
070070
07FFF0
07FFF0
070070
070070
0703F0
0703F0
0701E0
000000
ENDCHAR

STARTCHAR jisx0208_306A
ENCODING 12394
SWIDTH 960 0
DWIDTH 24 0
BBX 24 24 0 -2
BITMAP
038000
0381FE
0381FF
3FFDFF
3FFDCE
3FFDDE
0701DC
0FF9FC
0FF9B8
1FF9FC
3E39DE
7FF9CE
7FF9CF
2FF9C7
0E39C7
0FF9C7
0FF9C7
0FF9FF
0E39FE
0E39BC
0EF9C0
0EF9C0
0E71C0
000000
ENDCHAR

STARTCHAR jisx0208_306B
ENCODING 12395
SWIDTH 960 0
DWIDTH 24 0
BBX 24 24 0 -2
BITMAP
0001C0
7F99D8
7FB9F8
7FFDBE
1C75F6
1C2DAE
1C1DDC
1C39FA
3FF7B7
3FFFFF
3F73C3
7B81DC
7BFFEF
7B7FFF
3BB8E0
3BBEFE
3FF6DE
3F6FFC
3FF77A
38E6F7
3BEBBF
3BCF9F
01860E
000000
ENDCHAR

STARTCHAR jisx0208_306C
ENCODING 12396
SWIDTH 960 0
DWIDTH 24 0
BBX 24 24 0 -2
BITMAP
000000
000000
000000
000000
000000
000000
000000
000000
000000
000000
000000
7FFFFE
7FFFFE
7FFFFE
000000
000000
000000
000000
000000
000000
000000
000000
000000
000000
ENDCHAR

STARTCHAR jisx0208_306D
ENCODING 12397
SWIDTH 960 0
DWIDTH 24 0
BBX 24 24 0 -2
BITMAP
001C00
001C00
3FFFFE
3FFFFE
3FFFFE
001C00
0FFFF8
0FFFF8
000000
7FFFFF
7FFFFF
7FFFFF
700007
7380E7
738FF7
03FFF0
03FF80
03F80C
03800E
03800E
03FFFE
03FFFE
01FFFC
000000
ENDCHAR

STARTCHAR jisx0208_306E
ENCODING 12398
SWIDTH 960 0
DWIDTH 24 0
BBX 24 24 0 -2
BITMAP
181818
3E3C1C
3F3C3C
0F1E78
060E78
01FDB7
31FFFF
7DFFFF
7E1C70
1E3C78
0C783C
00F83E
0DF01F
0FEFEF
0EFFFE
1E7FFC
1C76DC
1C76DC
3C76DC
3876DC
79FFFF
79FFFF
31FFFF
000000
ENDCHAR

STARTCHAR jisx0208_306F
ENCODING 12399
SWIDTH 960 0
DWIDTH 24 0
BBX 24 24 0 -2
BITMAP
301C00
781C00
7C3FE0
3E7FF0
1EFFF0
0DF0E0
03CFDC
01FFFC
00FFFC
00E71C
7EFFFC
7EFFFC
7EFFFC
0E1DC0
0E3DCC
0E79CE
0FF9FE
0DF1FE
1EC0FC
3F0000
7FFFFF
7BFFFF
30FFFE
000000
ENDCHAR

STARTCHAR jisx0208_3070
ENCODING 12400
SWIDTH 960 0
DWIDTH 24 0
BBX 24 24 0 -2
BITMAP
03803E
7FBFFF
7FBFFF
3E1FE0
0E0007
0E1BCF
7FBFEF
7FFDFE
7FDEDE
0E0C0C
1F33F2
1FBBFE
3FBBFE
3FBB8E
7DBBFE
6E3BFE
2E3BFE
0E3B8E
0E3B8E
0E3BFE
0E3BFE
0E3BFE
0E3B8E
000000
ENDCHAR

STARTCHAR jisx0208_3071
ENCODING 12401
SWIDTH 960 0
DWIDTH 24 0
BBX 24 24 0 -2
BITMAP
01C1C0
01C1C0
7FFFFF
7FFFFF
7FFFFF
01C1C0
19DDC0
3C1C00
3E3BFC
1F3FFE
0F7FFE
06FB8E
00F3BC
0063BC
0187D8
03C7C0
07CFE0
0F9EF0
3F3EF8
7EFC7E
7DF83F
33F01F
01C006
000000
ENDCHAR

STARTCHAR jisx0208_3072
ENCODING 12402
SWIDTH 960 0
DWIDTH 24 0
BBX 24 24 0 -2
BITMAP
01C1C0
01C1C0
7FFFFF
7FFFFF
7FFFFF
01C1C0
01C1C0
000000
1FFFFC
1FFFFC
1FFFFC
001C00
001C00
7FFFFF
7FFFFF
7FFFFF
001C00
001C00
001C00
001C00
01FC00
01FC00
00F800
000000
ENDCHAR

STARTCHAR jisx0208_3073
ENCODING 12403
SWIDTH 960 0
DWIDTH 24 0
BBX 24 24 0 -2
BITMAP
180000
1C3F7F
1FBF7F
3FBFFF
398387
7B9FBF
775FBF
3FDFBF
36DC38
36FC78
3FBB77
3FBF7F
36FFFF
36C387
3FBB77
3FDBB7
000F9F
2AFFFF
2AFBF7
2AB76F
6BCF9F
6B3F7E
601E3C
000000
ENDCHAR

STARTCHAR jisx0208_3074
ENCODING 12404
SWIDTH 960 0
DWIDTH 24 0
BBX 24 24 0 -2
BITMAP
003000
003800
007860
0070F0
00F0F8
00E07C
01E3BC
7FDFFE
7FFFFF
3FFF8F
00E386
00E380
00E380
00E380
00E380
01E380
01E386
03C387
07C387
1F8387
7F03FF
7E03FF
3801FE
000000
ENDCHAR

STARTCHAR jisx0208_3075
ENCODING 12405
SWIDTH 960 0
DWIDTH 24 0
BBX 24 24 0 -2
BITMAP
007000
03F800
3FFFFE
3FE7FE
3F07FE
38070E
38070E
38070E
3FF70E
3FF70E
3FF70E
38070E
38070E
38070E
38070E
38070E
3FF70E
3FF77E
3FF77E
38073C
380700
380700
000700
000000
ENDCHAR

STARTCHAR jisx0208_3076
ENCODING 12406
SWIDTH 960 0
DWIDTH 24 0
BBX 24 24 0 -2
BITMAP
000000
007FFE
7F7FFE
7F7FFE
7F700E
77738E
77738E
777FEE
776FEE
777FEE
77738E
7773CE
7777EE
7F76EE
7F7EEE
7F6E6E
707E6E
706C6E
00700E
007FFE
007FFE
007FFE
00700E
000000
ENDCHAR

STARTCHAR jisx0208_3077
ENCODING 12407
SWIDTH 960 0
DWIDTH 24 0
BBX 24 24 0 -2
BITMAP
0FFFF0
0FFFF0
0FFFF0
0E0070
0FFFF0
0FFFF0
0FFFF0
000000
1FFFF8
1FFFF8
1C0038
1FFFF8
1FFFF8
1C0038
1FFFF8
1FFFF8
1C0038
1FFFF8
1FFFF8
0180E4
7FC1FF
7F003F
380006
000000
ENDCHAR

STARTCHAR jisx0208_3078
ENCODING 12408
SWIDTH 960 0
DWIDTH 24 0
BBX 24 24 0 -2
BITMAP
3FFFFE
3FFFFE
3FFFFE
38000E
381C0E
381C0E
381C0E
3FFFEE
37FFEE
3FFFEE
381C0E
383E0E
38770E
38F78E
39F3CE
3BE3EE
3FC1EE
3780EE
3B006E
3CFF9E
3FFFFE
3FFFFE
38000E
000000
ENDCHAR

STARTCHAR jisx0208_3079
ENCODING 12409
SWIDTH 960 0
DWIDTH 24 0
BBX 24 24 0 -2
BITMAP
0E0000
0E3FFE
0E3FFE
0E3FFE
7FB80E
7FB9CE
7FB9CE
1DBFEE
1DB7EE
1DBFEE
3DB9CE
39B9CE
39BBEE
3BBBEE
7FBF6E
7FB77E
37BF3E
0FF62E
1DF80E
3EBFFE
7C3FFE
783FFE
30380E
000000
ENDCHAR

STARTCHAR jisx0208_307A
ENCODING 12410
SWIDTH 960 0
DWIDTH 24 0
BBX 24 24 0 -2
BITMAP
00001C
7FF81C
7FF81C
7FF81C
00381C
00381C
3FF81C
3FF81C
3FF81C
38001C
38001C
38001C
7FF81C
7FF81C
7FF81C
70381C
00381C
00781C
00781C
00F01C
1FF01C
1FE01C
0FC01C
000000
ENDCHAR

STARTCHAR jisx0208_307B
ENCODING 12411
SWIDTH 960 0
DWIDTH 24 0
BBX 24 24 0 -2
BITMAP
03C300
07C380
0FE380
1EF380
3EF7FE
7D77FF
7BBFFF
37CEEE
1FFEFE
1C7CDC
1FECEC
1FF0E0
1C71F0
1FF1F0
1FF1F8
1C01B8
1DE3B8
1DE3BC
1EF79C
1BFF1E
7F6F0F
7E5E0F
380C06
000000
ENDCHAR

STARTCHAR jisx0208_307C
ENCODING 12412
SWIDTH 960 0
DWIDTH 24 0
BBX 24 24 0 -2
BITMAP
180038
3E07FC
3EFFFC
0EFFE0
067C1E
00871E
31EFBC
7DF7BC
7EF318
1E60E4
0C9FFE
00FFFE
0C7F80
0E0380
0FFFFF
1DFFFF
1DFFFF
1C0380
3C0380
380380
78FFFE
78FFFE
30FFFE
000000
ENDCHAR

STARTCHAR jisx0208_307D
ENCODING 12413
SWIDTH 960 0
DWIDTH 24 0
BBX 24 24 0 -2
BITMAP
0E1870
0EBC70
0FFE70
0DF770
0EEF70
0E7C70
0E3B70
0FF770
0DFF70
0FFB70
0E0370
0EFC70
0EFF70
0EE770
0EFF70
0EFF70
1EE776
1CFF77
1CFF77
3CE777
78FF7F
78DF7F
30EE3E
000000
ENDCHAR

STARTCHAR jisx0208_307E
ENCODING 12414
SWIDTH 960 0
DWIDTH 24 0
BBX 24 24 0 -2
BITMAP
00E1C0
00E1C0
7FFFFF
7FFFFF
00E1C0
3F03E0
3FC7F0
3FDF7C
39FE3F
3B79CF
3FB7F6
370808
3F8FF8
3B8038
3BDFF4
39DFFC
39C000
3FFFFF
3FBFFF
378738
387EDE
387FFE
383F8E
000000
ENDCHAR

STARTCHAR jisx0208_3121
ENCODING 12577
SWIDTH 960 0
DWIDTH 24 0
BBX 24 24 0 -2
BITMAP
0001C0
3F81C0
3FC1C0
3FFFFF
39BFFF
3BBFFF
3BB807
3FBFF7
3737FF
3F87F8
3B8000
3BBFFF
39BFFF
39FFFF
39C770
3FC770
3FCF70
378F76
381E77
383E77
38FC7F
38F87F
38703E
000000
ENDCHAR

STARTCHAR jisx0208_3122
ENCODING 12578
SWIDTH 960 0
DWIDTH 24 0
BBX 24 24 0 -2
BITMAP
7F83C0
7FC3C0
7FC7E0
71CEF0
739EF8
77BE7E
777DBF
7EF7DF
6E6006
7F1FF0
779FF8
738038
73BFF6
71FFFE
71C000
71FFFF
7FFFFF
6FCE30
779E7C
701DBE
70FBFF
70FFCF
707C06
000000
ENDCHAR

STARTCHAR jisx0208_3123
ENCODING 12579
SWIDTH 960 0
DWIDTH 24 0
BBX 24 24 0 -2
BITMAP
7F007C
7F7FFE
7FFFFE
73BF8C
77B31E
773BBC
7719BC
7F6658
6E7FFC
7F001C
773FFC
77BFFC
73801C
73FFFC
737FFC
738000
7FDFDE
7FDBDE
6EDDEF
71DDB7
73DE77
73DFF6
718FF0
000000
ENDCHAR

STARTCHAR jisx0208_3124
ENCODING 12580
SWIDTH 960 0
DWIDTH 24 0
BBX 24 24 0 -2
BITMAP
070000
0707FE
7FF7FE
7FF7FE
7FF70E
38E7FE
1DE7FE
7FD000
7FF7FE
7FF7FE
00070E
3FE7FE
3FE7FE
3FE70E
38E7FE
3FE7FE
3FE70E
3FE7FE
38E7FE
3FE318
3FFFBF
3FDF0F
380C06
000000
ENDCHAR

STARTCHAR jisx0208_3125
ENCODING 12581
SWIDTH 960 0
DWIDTH 24 0
BBX 24 24 0 -2
BITMAP
000038
000038
7F8038
7F8038
7F8038
73FFFF
737FFF
73FFFF
738038
738038
739838
73BC38
7FBE38
7F9E38
7F8F38
700F38
700638
700038
000038
000038
0003F8
0003F8
0001F0
000000
ENDCHAR

STARTCHAR jisx0208_3126
ENCODING 12582
SWIDTH 960 0
DWIDTH 24 0
BBX 24 24 0 -2
BITMAP
003000
003800
003800
007800
7FF7FF
7FFFFF
7FFFFF
00E000
01E000
03C000
03C000
07BFFC
0FFFFC
1FFFFC
3F801C
7B801C
7B801C
33801C
03801C
03FFFC
03FFFC
03FFFC
03801C
000000
ENDCHAR

STARTCHAR jisx0208_3127
ENCODING 12583
SWIDTH 960 0
DWIDTH 24 0
BBX 24 24 0 -2
BITMAP
001C00
001C00
7FFFFF
7FFFFF
7FFFFF
700007
700007
77FFF7
07FFF0
07FFF0
001C00
001C00
001C00
7FFFFF
7FFFFF
7FFFFF
001C00
001C00
001C00
001C00
00FC00
00FC00
007800
000000
ENDCHAR

STARTCHAR jisx0208_3128
ENCODING 12584
SWIDTH 960 0
DWIDTH 24 0
BBX 24 24 0 -2
BITMAP
007000
00F000
0FEFF0
0FFFF0
0FFFF0
0E0070
0FFFF0
0FFFF0
0FFFF0
0E0000
0FFFFE
0FFFFE
0E0000
0FFFFE
0FFFFE
0FFFFE
10018E
1BBFEE
3FFDFE
3DDEDE
78EF3C
78CDFC
3000F8
000000
ENDCHAR

STARTCHAR jisx0208_3129
ENCODING 12585
SWIDTH 960 0
DWIDTH 24 0
BBX 24 24 0 -2
BITMAP
000000
3FF7FE
3FF7FE
3FF7FE
00700E
18730E
3C778E
3E77CE
1F73EE
0F71EE
0670CE
01702E
03F07E
07F0FE
0F71EE
3F77EE
7E7FCE
7C6F8E
30760E
00700E
07F0FE
07F0FE
03E07C
000000
ENDCHAR

STARTCHAR jisx0208_312A
ENCODING 12586
SWIDTH 960 0
DWIDTH 24 0
BBX 24 24 0 -2
BITMAP
300000
787FFE
7C7FFE
3E7FFE
1E01C0
0C01C0
0001C0
0001C0
00FFFF
7EFFFF
7EFFFF
7E01C0
0E01C0
0E01C0
0E01C0
0E01C0
0E0FC0
0E0FC0
1E0780
3F8000
7FFFFF
7BFFFF
30FFFE
000000
ENDCHAR

STARTCHAR jisx0208_312B
ENCODING 12587
SWIDTH 960 0
DWIDTH 24 0
BBX 24 24 0 -2
BITMAP
000000
7FFFFF
7FFFFF
7FFFFF
001C00
001C00
3FFFFE
3FFFFE
3FFFFE
381C0E
3FDFEE
37DBEE
39DCEE
38DC6E
3B1D8E
3FDFEE
37DBEE
39DCEE
38DC6E
381C0E
381C7E
381C7E
381C3C
000000
ENDCHAR

STARTCHAR jisx0208_312C
ENCODING 12588
SWIDTH 960 0
DWIDTH 24 0
BBX 24 24 0 -2
BITMAP
006000
01F000
3FF7FE
3FE7FE
3F07FE
38E70E
38E70E
38E70E
38E70E
38E70E
38E70E
38E70E
39E70E
3FE70E
37E70E
7EE70E
7DE7FE
31C6FE
03C77C
0F8700
3F0700
3E0700
180700
000000
ENDCHAR

STARTCHAR jisx0208_312D
ENCODING 12589
SWIDTH 960 0
DWIDTH 24 0
BBX 24 24 0 -2
BITMAP
30C0C0
78E0E0
7DE1E0
3DE7DE
5BD7FE
7FF70E
7FF7FE
0777FE
3FF70E
3FF7FE
3707FE
7FF700
7FF7FF
7FF7FF
6F7700
1F77FF
1F77FF
3FF007
77F557
76EDDF
370DAE
070C7E
07003C
000000
ENDCHAR

STARTCHAR jisx0208_312E
ENCODING 12590
SWIDTH 960 0
DWIDTH 24 0
BBX 24 24 0 -2
BITMAP
001C00
001C00
3FFFFE
3FFFFE
3FFFFE
38E76E
3BE7FE
07C7F0
1F83E0
0E0C1C
038FFC
1FEE1C
1FEFFC
038E1C
3FEFFC
3FEE1C
038FFC
07FFFC
0EF372
1F6F77
7E1F7F
7C7E7F
30383E
000000
ENDCHAR

STARTCHAR jisx0208_312F
ENCODING 12591
SWIDTH 960 0
DWIDTH 24 0
BBX 24 24 0 -2
BITMAP
000000
1FFFF0
1FFFF0
1FFFF0
007070
007070
00F070
00F070
00E070
00E070
3FFFFF
3FFFFF
3FFFFF
00E0E0
01E0E0
01E0E0
01C0E0
01C0E0
01C0E0
7FFFFF
7FFFFF
7FFFFF
000000
000000
ENDCHAR

STARTCHAR jisx0208_3130
ENCODING 12592
SWIDTH 960 0
DWIDTH 24 0
BBX 24 24 0 -2
BITMAP
000630
7FE738
7FE778
7FEF70
0E0EFF
0E1FFF
1E3FFF
1C7E70
1C7E70
3FAFFE
3FCFFE
7FCFFE
7DCE70
3DCE70
1DCFFE
1DCFFE
1DCFFE
1FCE70
1FCE70
1FCFFF
1C0FFF
1C0FFF
000E00
000000
ENDCHAR

STARTCHAR jisx0208_3131
ENCODING 12593
SWIDTH 960 0
DWIDTH 24 0
BBX 24 24 0 -2
BITMAP
00E000
03F000
3FFFFE
3FCFFE
3E0FFE
38000E
38000E
38000E
38000E
38000E
3FF7FE
3FF7FE
3FF7FE
38000E
38000E
38000E
38000E
38000E
3FFFFE
3FFFFE
3FFFFE
38000E
38000E
000000
ENDCHAR

STARTCHAR jisx0208_3132
ENCODING 12594
SWIDTH 960 0
DWIDTH 24 0
BBX 24 24 0 -2
BITMAP
180000
3E7FFC
3F7FFC
0F7FFC
06701C
0073FC
3073FC
7C73FC
7E739C
1FFFFF
0DFFFF
01FFFF
0DC007
0DDFF7
0DDFF7
1DDFF7
1DDC77
1DDFF7
3DDFF7
39DFF7
79DC0F
79C03F
31C01E
000000
ENDCHAR

STARTCHAR jisx0208_3133
ENCODING 12595
SWIDTH 960 0
DWIDTH 24 0
BBX 24 24 0 -2
BITMAP
000700
0007FC
7E07FC
7E0700
7EFFFE
76FFFF
76FFFF
76E70E
76E7FC
76FFF0
76FF0E
76E7FE
7EE7FE
7EE3FC
7EE400
71F77C
71D76E
71BF7E
03DF7C
03D76C
07AFF3
077FFF
037FFF
000000
ENDCHAR

STARTCHAR jisx0208_3134
ENCODING 12596
SWIDTH 960 0
DWIDTH 24 0
BBX 24 24 0 -2
BITMAP
000000
003FFC
7FBFFC
7FBFFC
7FB81C
73B81C
73BFFC
73BFFC
73BFFC
73B81C
73BFFC
73BFFC
7FBFFC
7FB81C
7FB81C
703FFC
703FFC
703FFC
000C30
007E7E
01FC3F
01F80F
00E006
000000
ENDCHAR

STARTCHAR jisx0208_3135
ENCODING 12597
SWIDTH 960 0
DWIDTH 24 0
BBX 24 24 0 -2
BITMAP
0E3638
0E3E38
7F9DFF
7FB5FF
1F027C
7FFFFF
6DDDB7
6EB5BB
114A44
1FFFFC
1CE39C
1FFFFC
000000
1FF81C
1C3FFF
1FF7FF
1C3FFF
1FF81C
1C67DC
1FFFDC
7BF9BC
7FBCFC
3C1878
000000
ENDCHAR

STARTCHAR jisx0208_3136
ENCODING 12598
SWIDTH 960 0
DWIDTH 24 0
BBX 24 24 0 -2
BITMAP
01C1C0
01C1C0
7FFFFF
7FFFFF
7FFFFF
01C1C0
1E3C1C
1FFC1C
1C1C1C
1FFC1C
1FFFFF
1C07FF
1FFFFF
1BFC1C
1C039C
1FFFDC
3FFDDC
38E1DC
36FF9C
7EDE1C
6FEFFC
35E6FC
01C078
000000
ENDCHAR

STARTCHAR jisx0208_3137
ENCODING 12599
SWIDTH 960 0
DWIDTH 24 0
BBX 24 24 0 -2
BITMAP
0E0000
0E0FFC
1FCFFC
1FCE1C
3CCFFC
79CE1C
77AFFC
3FE000
3B7FFE
3B5FFE
3FDB6E
3FDFFE
3B7FFE
3B6000
3FFFF8
3FDFFC
00071C
3563F8
3561F0
35E7E8
759F7F
75BE1F
301806
000000
ENDCHAR

STARTCHAR jisx0208_3138
ENCODING 12600
SWIDTH 960 0
DWIDTH 24 0
BBX 24 24 0 -2
BITMAP
0E0380
0E0386
0E0387
0E1FEF
7FDFEE
7FDFFE
7FC39C
1DC3BC
1DFFFB
1DBFFF
3DFFFF
39C1E0
3BC7C0
7B9F8E
7FFF3F
6F7FFF
07B7FC
0FC7E2
1DE707
3EC707
7C07FF
7807FF
3003FE
000000
ENDCHAR

STARTCHAR jisx0208_3139
ENCODING 12601
SWIDTH 960 0
DWIDTH 24 0
BBX 24 24 0 -2
BITMAP
000000
1FFFFF
1FFFFF
1FFFFF
1C0000
1FFBFE
1BFBFE
1BFFFE
1B9DB8
1BFDB8
1BFDF8
1B9F77
1BFFFF
1BFFFF
1BFC70
3B98E8
3BBDF8
3BDDB8
7B7FBE
77EBB7
6FC7BF
370F3F
00061E
000000
ENDCHAR

STARTCHAR jisx0208_313A
ENCODING 12602
SWIDTH 960 0
DWIDTH 24 0
BBX 24 24 0 -2
BITMAP
180398
3E03BE
3F03BE
0FFFCD
05FFFF
01FFFF
300380
7CFFFE
7EFFFE
1EFFFE
0CE38E
00FFFE
0CFFFE
0EFFFE
0EE38E
1EFFFE
1CFFFE
1CFFFE
3CE38E
38E38E
78E3FE
78E37E
30E3BC
000000
ENDCHAR

STARTCHAR jisx0208_313B
ENCODING 12603
SWIDTH 960 0
DWIDTH 24 0
BBX 24 24 0 -2
BITMAP
000038
0007FC
0FFFFC
0FFFF0
0FFC70
0E3870
0E3870
0E3870
0E3870
0E3870
0E3870
0E3878
0E3838
0E3838
0E39B8
0E3BBC
1E3BDC
1C3DDC
1C37FE
3FFFEE
7BFCEF
79E0E7
3000C6
000000
ENDCHAR

STARTCHAR jisx0208_313C
ENCODING 12604
SWIDTH 960 0
DWIDTH 24 0
BBX 24 24 0 -2
BITMAP
000000
7FE7FE
7FE7FE
70E70E
7FE7FE
7FE7FE
70E70E
7FE7FE
7FE7FE
70000E
73FFCE
73FFCE
73FFCE
70380E
71FF8E
71FF8E
71FF8E
70380E
77FFEE
77FFEE
77FFFE
70003E
70001C
000000
ENDCHAR

STARTCHAR jisx0208_313D
ENCODING 12605
SWIDTH 960 0
DWIDTH 24 0
BBX 24 24 0 -2
BITMAP
001830
003E78
7F3EF8
7FCDE7
7EFFFF
7706C0
777FFE
777FFE
7776CE
777EFE
776CFE
77730E
7F7FFE
7F700E
7F7FFE
700038
71FFFF
01FFFF
003038
007C38
003DF8
0019F8
0000F0
000000
ENDCHAR

STARTCHAR jisx0208_313E
ENCODING 12606
SWIDTH 960 0
DWIDTH 24 0
BBX 24 24 0 -2
BITMAP
000000
0FFFF8
0FFFF8
0FFFF8
000000
000000
000000
000000
000000
7FFFFF
7FFFFF
7FFFFF
007000
00F0C0
00E1E0
01E1F0
03C0F8
03817C
07FFFE
7F7FFE
7FFF0F
3FC007
000006
000000
ENDCHAR

STARTCHAR jisx0208_313F
ENCODING 12607
SWIDTH 960 0
DWIDTH 24 0
BBX 24 24 0 -2
BITMAP
300000
78FFFE
7CFFFE
3EFFFE
1EE00E
0CFFFE
003FF8
004384
007FFC
00739C
7E7FFC
7E7FFC
7E739C
0E7FFC
0E7FFC
0E0380
0EFFFE
0EFFFE
1E0380
3F8380
7FFC7F
7BFFFF
30FFFE
000000
ENDCHAR

STARTCHAR jisx0208_3140
ENCODING 12608
SWIDTH 960 0
DWIDTH 24 0
BBX 24 24 0 -2
BITMAP
000000
1FFFFC
1FFFFC
1FFFFC
001C00
7FFFFF
7FFFFF
701C07
77DDF7
77DDF7
001C00
07DDF0
000000
0FFFF8
0FFFF8
000000
7FFFFF
7FFFFF
007030
01EFFC
3FDFFE
3FFFDE
1FF00C
000000
ENDCHAR

STARTCHAR jisx0208_3141
ENCODING 12609
SWIDTH 960 0
DWIDTH 24 0
BBX 24 24 0 -2
BITMAP
00E1C0
00E1C0
7FFFFF
7FFFFF
7FFFFF
00E1C0
03E1C0
070038
07FFFC
0F7FFC
0E3F80
1E0380
3E0380
7FFFFF
7DFFFF
2FFFFF
0E0380
0E0380
0E0380
0EFFFE
0EFFFE
0EFFFE
0E0000
000000
ENDCHAR

STARTCHAR jisx0208_3142
ENCODING 12610
SWIDTH 960 0
DWIDTH 24 0
BBX 24 24 0 -2
BITMAP
03C000
07EFFF
0FEFFF
1EFFFF
3E771C
7DB71C
7BB7FC
37C7FC
1FF7FC
1C771C
1FF7FC
1FF7FC
1C77FC
1FF71C
1FF71F
1C077F
1DC7FF
1DDFFC
1EFFDC
1BEE1C
7F701C
7E701C
38601C
000000
ENDCHAR

STARTCHAR jisx0208_3143
ENCODING 12611
SWIDTH 960 0
DWIDTH 24 0
BBX 24 24 0 -2
BITMAP
038000
038000
03F7FC
03F7FE
7F8FFE
7FFB8E
701B8E
7FFB8E
0FE38E
383BDE
7FFDDC
7BBDDC
37D9DC
0EF1FC
7D3CF8
7FFCF8
3C7870
1FF1F8
1C73FC
1FF7DE
1C7F9F
1FEF0F
1C7606
000000
ENDCHAR

STARTCHAR jisx0208_3144
ENCODING 12612
SWIDTH 960 0
DWIDTH 24 0
BBX 24 24 0 -2
BITMAP
061818
0F3C3C
0FBE7C
079EF8
7B6DF7
7FFFFF
7FFFFF
700007
73FFE7
73FFE7
03FFE0
0380E0
03FFE0
03FFE0
001C00
1FFBFC
1FFFFC
1FFFFC
1C001C
1FFFFC
1FFFFC
1FFFFC
1C001C
000000
ENDCHAR

STARTCHAR jisx0208_3145
ENCODING 12613
SWIDTH 960 0
DWIDTH 24 0
BBX 24 24 0 -2
BITMAP
000000
3FF7FE
3FF7FE
38770E
3FF7FE
38770E
3FF7FE
38770E
3FF7FE
18C18C
7DF7DF
786F8F
303B06
4FF4F9
7FFFFF
7FFFFF
01C1C0
0FBBC0
0FFF80
060FF8
39FEFE
3FF83E
1F000C
000000
ENDCHAR

STARTCHAR jisx0208_3146
ENCODING 12614
SWIDTH 960 0
DWIDTH 24 0
BBX 24 24 0 -2
BITMAP
00000C
3FF81E
3FF83E
3FF87C
3839F8
3FFBF0
383BE6
3FF98F
03801F
7FFC3E
7FFC7C
0001F8
3FFBF0
3FFBE0
383986
3FF80F
3FF81F
03803E
3BF87C
7B7DF8
7FBFF0
2F97E0
070380
000000
ENDCHAR

STARTCHAR jisx0208_3147
ENCODING 12615
SWIDTH 960 0
DWIDTH 24 0
BBX 24 24 0 -2
BITMAP
000380
7F8380
7F8380
7FBFFC
73BFFC
73BFFC
73B99C
73B99C
7FB99C
7FB99C
7FB99C
73FFFF
73FFFF
73FFFF
7383C0
7F87E0
7F86E0
7F8FF0
701F78
707E7C
71FC3F
01F81F
00E00E
000000
ENDCHAR

STARTCHAR jisx0208_3148
ENCODING 12616
SWIDTH 960 0
DWIDTH 24 0
BBX 24 24 0 -2
BITMAP
003800
003800
003800
1FFFF0
1FFFF0
1FFFF0
1C3870
1FFFF0
1FFFF0
1FFFF0
1C3870
1FFFF0
1FFFF0
1FFFF0
1C1C38
1C1EF8
000FF0
000DE6
0037C7
01FFA7
7FFDFF
7FE0FF
3E003E
000000
ENDCHAR

STARTCHAR jisx0208_3149
ENCODING 12617
SWIDTH 960 0
DWIDTH 24 0
BBX 24 24 0 -2
BITMAP
061818
0F3C3C
0FBE3C
079E78
038EF8
7F7DF7
7FFFFF
7FFFFF
700007
701C07
701C07
0FFFF8
3FFFFE
3FFFFE
007F00
01DBC0
03DFE0
07DDF0
1F9CFC
7F1C7F
7E1C3F
381C0E
001C00
000000
ENDCHAR

STARTCHAR jisx0208_314A
ENCODING 12618
SWIDTH 960 0
DWIDTH 24 0
BBX 24 24 0 -2
BITMAP
00E000
01F800
01FE00
007F00
000F00
07F600
07FC0C
07FC1E
001E3E
3FDE7C
3FDEF8
3FDFF0
01DFE0
03DBC0
039F80
079DE0
0F1DF0
1F1CF8
3E1C7E
7C1C3F
78FC1F
30FC06
007800
000000
ENDCHAR

STARTCHAR jisx0208_314B
ENCODING 12619
SWIDTH 960 0
DWIDTH 24 0
BBX 24 24 0 -2
BITMAP
181C00
3E3F80
3F3FE0
0F07E0
0600C0
007F00
307F80
7C7F8C
7E039E
1FFBBE
0DFBFC
01FBF8
0C1BF0
0E3BE0
0E3B70
1E7BF8
1C73B8
1CF3BC
3DE39E
3BE39F
7BDF8F
799F86
300F00
000000
ENDCHAR

STARTCHAR jisx0208_314C
ENCODING 12620
SWIDTH 960 0
DWIDTH 24 0
BBX 24 24 0 -2
BITMAP
180700
3E0700
3F0700
0FFFFC
05FFFC
01FFFC
31C71C
7DFFFC
7DFFFC
1DFFFC
0DC71C
01FFFC
0DFFFC
0FFFFC
0E070E
1E03BE
1C03FC
1C03F8
3C05E6
383FF7
7BFF7F
7BFC3F
31E00E
000000
ENDCHAR

STARTCHAR jisx0208_314D
ENCODING 12621
SWIDTH 960 0
DWIDTH 24 0
BBX 24 24 0 -2
BITMAP
000E70
7F8E70
7FFFFF
7F7FFF
0E7FFF
0E0E70
0E0DF0
0E338C
7FBFFC
7FBFFC
7FB99C
0E399C
0E399C
0EFFFF
0EFFFF
0FFFFF
7F87C0
7F8EF0
781EF8
007E7E
01FC3F
01F81F
00E006
000000
ENDCHAR

STARTCHAR jisx0208_314E
ENCODING 12622
SWIDTH 960 0
DWIDTH 24 0
BBX 24 24 0 -2
BITMAP
000000
3FFFC0
3FFFE0
3FFFE0
0381C0
03FDFE
07FFFE
07FFFE
0F1B8E
0EFC0E
1DFA0E
3E7F1E
7DEFFC
77C6FC
330078
0CFF80
0FFFF8
0FFFF8
0E7738
0E7738
7FFFFF
7FFFFF
7FFFFF
000000
ENDCHAR

STARTCHAR jisx0208_314F
ENCODING 12623
SWIDTH 960 0
DWIDTH 24 0
BBX 24 24 0 -2
BITMAP
380000
38EFFF
3FEFFF
3FEFFF
3F80E0
3877DE
3FF7FE
3FF7FE
1FE70E
0007FE
3FE7FE
3FE70E
1F07FE
67F7FE
7FF70E
7FF7FE
0707FE
1FE7FE
3FF198
7EFFBE
776F9F
371F0F
070C06
000000
ENDCHAR

STARTCHAR jisx0208_3150
ENCODING 12624
SWIDTH 960 0
DWIDTH 24 0
BBX 24 24 0 -2
BITMAP
380000
38EFFF
3FEFFF
3FEFFF
3F80E0
3877DE
3FF7FE
3FF7FE
1FE70E
0007FE
3FE7FE
3FE70E
0007FE
7FF7FE
7FF70E
0707FE
37E7FE
36E7FE
77F198
777FBE
3F6F9F
1F1F0F
0E0C06
000000
ENDCHAR

STARTCHAR jisx0208_3151
ENCODING 12625
SWIDTH 960 0
DWIDTH 24 0
BBX 24 24 0 -2
BITMAP
01C1C0
01C1C0
7FFFFF
7FFFFF
7FFFFF
01C1C0
01DDC0
063E30
07FFF0
07FFF0
071C70
071C70
071C70
7FFFFF
7FFFFF
7FFFFF
003E00
00F780
01F7E0
07E3F8
7FC1FF
7F007F
3C001E
000000
ENDCHAR

STARTCHAR jisx0208_3152
ENCODING 12626
SWIDTH 960 0
DWIDTH 24 0
BBX 24 24 0 -2
BITMAP
003800
0C3800
1EFF7E
3EFF7E
7C73FE
79FF80
37FFC0
0F003F
0EFF7F
1EFFFF
1CE39C
3CFF9C
7CFF9C
7C0E1C
5CFF9C
1CFF9C
1CEE1C
1CEE1C
1DFFDC
1DFFDC
1C0E3C
1C0E7C
1C0E38
000000
ENDCHAR

STARTCHAR jisx0208_3153
ENCODING 12627
SWIDTH 960 0
DWIDTH 24 0
BBX 24 24 0 -2
BITMAP
000E00
3F9FC0
3F9FE0
0003E0
7FC0C0
7FDF00
001FC0
3F9FCC
3F81DE
007DDE
3F7DFC
3F7DB8
000DF0
3F9DE0
3F9DF0
3FBDB8
3BB9FC
3BF9DE
3B71DF
3FF1CF
3F6FC6
3F8FC0
380780
000000
ENDCHAR

STARTCHAR jisx0208_3154
ENCODING 12628
SWIDTH 960 0
DWIDTH 24 0
BBX 24 24 0 -2
BITMAP
07860C
0FCF0E
1FEF9E
3DF7BC
7CF3BC
786F5A
378FFE
1FCFFE
1FCE0E
070E0E
7FEE0E
7FEFFE
7FEFFE
070FFE
777370
77F770
36E770
376776
378F77
06FE77
7FDE7F
7FBC7F
3C183E
000000
ENDCHAR

STARTCHAR jisx0208_3155
ENCODING 12629
SWIDTH 960 0
DWIDTH 24 0
BBX 24 24 0 -2
BITMAP
180380
3E0380
3EFFFF
0EFFFF
06FFFF
003180
3039C0
7C79FC
7E7BFE
1EF3FE
0CF78E
01F75E
0BFEFC
0FEF7C
0D7BBC
1E6BF8
1C71F8
1C70F0
3C73FC
3877BE
787F9F
786F0F
307606
000000
ENDCHAR

STARTCHAR jisx0208_3156
ENCODING 12630
SWIDTH 960 0
DWIDTH 24 0
BBX 24 24 0 -2
BITMAP
000700
000700
0FFFFF
0FFFFF
0FFFFF
2E0000
6E3FE0
7E3FE6
3E38E7
2E78FF
0EF8FF
2FF07E
3DE000
7EDFF8
6EFFFC
2EFFFC
0E3838
1E3EF0
1C1FE0
3C07D0
7BFFFF
7BFEFF
31F01E
000000
ENDCHAR

STARTCHAR jisx0208_3157
ENCODING 12631
SWIDTH 960 0
DWIDTH 24 0
BBX 24 24 0 -2
BITMAP
0300C0
0781E0
07C1E0
03C3C0
7DBFBF
7FFFFF
7FFFFF
01C380
03C1E0
0781F0
0F80F8
3F007E
7CFFBF
7FFFFF
2FFFF6
0E7738
0E7738
0E7738
0E7738
0E7738
7FFFFF
7FFFFF
7FFFFF
000000
ENDCHAR

STARTCHAR jisx0208_3158
ENCODING 12632
SWIDTH 960 0
DWIDTH 24 0
BBX 24 24 0 -2
BITMAP
000000
3FEFFE
3FEFFE
3FEFFE
3B8E0E
3FEE0E
3FEE0E
3B8E0E
3FEFFE
3FEFFE
3B8FFE
3B8EEE
3FEEEE
3FEEF0
3FEE70
406E70
556E78
577E38
5E7C3C
78FC1E
67DC1F
0FF80F
07D806
000000
ENDCHAR

STARTCHAR jisx0208_3159
ENCODING 12633
SWIDTH 960 0
DWIDTH 24 0
BBX 24 24 0 -2
BITMAP
0E1818
0E3C1C
0E3E3C
0F9E3C
2D8E78
3FBDF6
3DBFFE
3DBFFE
7FB80E
6E380E
6E380E
6E3FFE
2E3FFE
0E3FFE
0E0770
0E0770
0E0F70
0E0E76
0E1E77
0E3C77
0EFC7F
0EF87F
0E703E
000000
ENDCHAR

ENDFONT
